InterAlia-Italic.ufo
<glyph name="exclam" format="2">
  <advance height="2479" width="570"/>
  <unicode hex="0021"/>
  <outline>
    <contour>
      <point x="538" y="1489" type="line"/>
      <point x="340" y="1489" type="line"/>
      <point x="177" y="419" type="line"/>
      <point x="346" y="419" type="line"/>
    </contour>
    <component base="period" xOffset="3"/>
  </outline>
</glyph>
<glyph name="numbersign" format="2">
  <advance height="2479" width="1292"/>
  <unicode hex="0023"/>
  <outline>
    <contour>
      <point x="730" y="0" type="line"/>
      <point x="876" y="0" type="line"/>
      <point x="1146" y="1489" type="line"/>
      <point x="1001" y="1489" type="line"/>
    </contour>
    <contour>
      <point x="60" y="413" type="line"/>
      <point x="1171" y="413" type="line"/>
      <point x="1197" y="559" type="line"/>
      <point x="86" y="559" type="line"/>
    </contour>
    <contour>
      <point x="207" y="0" type="line"/>
      <point x="352" y="0" type="line"/>
      <point x="623" y="1489" type="line"/>
      <point x="477" y="1489" type="line"/>
    </contour>
    <contour>
      <point x="156" y="931" type="line"/>
      <point x="1267" y="931" type="line"/>
      <point x="1293" y="1076" type="line"/>
      <point x="182" y="1076" type="line"/>
    </contour>
  </outline>
</glyph>
<glyph name="dollar" format="2">
  <advance height="2479" width="1306"/>
  <unicode hex="0024"/>
  <anchor x="559" y="-26" name="bottom"/>
  <anchor x="564" y="0" name="cedilla"/>
  <anchor x="838" y="1676" name="top"/>
  <outline>
    <contour>
      <point x="471" y="-186" type="line"/>
      <point x="591" y="-186" type="line"/>
      <point x="899" y="1676" type="line"/>
      <point x="780" y="1676" type="line"/>
    </contour>
    <component base="S"/>
  </outline>
</glyph>
<glyph name="quotesingle" format="2">
  <advance height="2479" width="393"/>
  <unicode hex="0027"/>
  <outline>
    <contour>
      <point x="448" y="1489" type="line"/>
      <point x="253" y="1489" type="line"/>
      <point x="204" y="977" type="line"/>
      <point x="329" y="977" type="line"/>
    </contour>
  </outline>
</glyph>
<glyph name="parenleft" format="2">
  <advance height="2479" width="742"/>
  <unicode hex="0028"/>
  <outline>
    <contour>
      <point x="230" y="628" type="curve" smooth="yes"/>
      <point x="169" y="262"/>
      <point x="218" y="-44"/>
      <point x="352" y="-303" type="curve"/>
      <point x="503" y="-303" type="line"/>
      <point x="396" y="-111"/>
      <point x="349" y="282"/>
      <point x="407" y="628" type="curve" smooth="yes"/>
      <point x="465" y="975"/>
      <point x="640" y="1367"/>
      <point x="812" y="1559" type="curve"/>
      <point x="660" y="1559" type="line"/>
      <point x="439" y="1300"/>
      <point x="291" y="995"/>
    </contour>
  </outline>
</glyph>
<glyph name="plus" format="2">
  <advance height="2479" width="1350"/>
  <unicode hex="002B"/>
  <outline>
    <contour>
      <point x="518" y="102" type="line"/>
      <point x="682" y="102" type="line"/>
      <point x="841" y="1062" type="line"/>
      <point x="676" y="1062" type="line"/>
    </contour>
    <contour>
      <point x="185" y="500" type="line"/>
      <point x="1145" y="500" type="line"/>
      <point x="1172" y="663" type="line"/>
      <point x="212" y="663" type="line"/>
    </contour>
  </outline>
</glyph>
<glyph name="comma" format="2">
  <advance height="2479" width="573"/>
  <unicode hex="002C"/>
  <outline>
    <contour>
      <point x="355" y="204" type="line"/>
      <point x="169" y="204" type="line"/>
      <point x="145" y="122" type="line" smooth="yes"/>
      <point x="93" y="-76"/>
      <point x="17" y="-271"/>
      <point x="-15" y="-364" type="curve"/>
      <point x="116" y="-364" type="line"/>
      <point x="166" y="-265"/>
      <point x="276" y="-41"/>
      <point x="329" y="125" type="curve" smooth="yes"/>
    </contour>
  </outline>
</glyph>
<glyph name="period" format="2">
  <advance height="2479" width="564"/>
  <unicode hex="002E"/>
  <outline>
    <contour>
      <point x="209" y="-12" type="curve" smooth="yes"/>
      <point x="281" y="-12"/>
      <point x="339" y="47"/>
      <point x="340" y="119" type="curve" smooth="yes"/>
      <point x="342" y="189"/>
      <point x="281" y="247"/>
      <point x="209" y="247" type="curve" smooth="yes"/>
      <point x="138" y="247"/>
      <point x="77" y="192"/>
      <point x="79" y="119" type="curve" smooth="yes"/>
      <point x="80" y="47"/>
      <point x="135" y="-12"/>
    </contour>
  </outline>
</glyph>
<glyph name="slash" format="2">
  <advance height="2479" width="730"/>
  <unicode hex="002F"/>
  <outline>
    <contour>
      <point x="849" y="1559" type="line"/>
      <point x="692" y="1559" type="line"/>
      <point x="-81" y="-224" type="line"/>
      <point x="76" y="-224" type="line"/>
    </contour>
  </outline>
</glyph>
<glyph name="zero" format="2">
  <advance height="2479" width="1279"/>
  <unicode hex="0030"/>
  <outline>
    <contour>
      <point x="542" y="-20" type="curve" smooth="yes"/>
      <point x="871" y="-20"/>
      <point x="1106" y="259"/>
      <point x="1188" y="745" type="curve" smooth="yes"/>
      <point x="1268" y="1227"/>
      <point x="1121" y="1510"/>
      <point x="795" y="1510" type="curve" smooth="yes"/>
      <point x="469" y="1510"/>
      <point x="231" y="1228"/>
      <point x="152" y="745" type="curve" smooth="yes"/>
      <point x="73" y="258"/>
      <point x="213" y="-20"/>
    </contour>
    <contour>
      <point x="568" y="140" type="curve" smooth="yes"/>
      <point x="353" y="140"/>
      <point x="263" y="358"/>
      <point x="327" y="745" type="curve" smooth="yes"/>
      <point x="391" y="1132"/>
      <point x="553" y="1353"/>
      <point x="769" y="1353" type="curve" smooth="yes"/>
      <point x="984" y="1353"/>
      <point x="1077" y="1132"/>
      <point x="1013" y="745" type="curve" smooth="yes"/>
      <point x="949" y="358"/>
      <point x="786" y="140"/>
    </contour>
  </outline>
</glyph>
<glyph name="one" format="2">
  <advance height="2479" width="951"/>
  <unicode hex="0031"/>
  <outline>
    <contour>
      <point x="832" y="1489" type="line"/>
      <point x="652" y="1489" type="line"/>
      <point x="239" y="1242" type="line"/>
      <point x="207" y="1059" type="line"/>
      <point x="611" y="1300" type="line"/>
      <point x="620" y="1300" type="line"/>
      <point x="404" y="0" type="line"/>
      <point x="585" y="0" type="line"/>
    </contour>
  </outline>
</glyph>
<glyph name="four" format="2">
  <advance height="2479" width="1315"/>
  <unicode hex="0034"/>
  <outline>
    <contour>
      <point x="79" y="305" type="line"/>
      <point x="1155" y="305" type="line"/>
      <point x="1181" y="465" type="line"/>
      <point x="300" y="465" type="line"/>
      <point x="300" y="477" type="line"/>
      <point x="925" y="1260" type="line"/>
      <point x="998" y="1260" type="line"/>
      <point x="1036" y="1489" type="line"/>
      <point x="928" y="1489" type="line"/>
      <point x="102" y="454" type="line"/>
    </contour>
    <contour>
      <point x="727" y="0" type="line"/>
      <point x="899" y="0" type="line"/>
      <point x="1146" y="1489" type="line"/>
      <point x="975" y="1489" type="line"/>
      <point x="797" y="419" type="line"/>
      <point x="785" y="352" type="line"/>
    </contour>
  </outline>
</glyph>
<glyph name="seven" format="2">
  <advance height="2479" width="1169"/>
  <unicode hex="0037"/>
  <outline>
    <contour>
      <point x="108" y="0" type="line"/>
      <point x="297" y="0" type="line"/>
      <point x="1178" y="1321" type="line"/>
      <point x="1207" y="1489" type="line"/>
      <point x="253" y="1489" type="line"/>
      <point x="227" y="1329" type="line"/>
      <point x="995" y="1329" type="line"/>
      <point x="992" y="1318" type="line"/>
    </contour>
  </outline>
</glyph>
<glyph name="eight" format="2">
  <advance height="2479" width="1263"/>
  <unicode hex="0038"/>
  <outline>
    <contour>
      <point x="547" y="-20" type="curve" smooth="yes"/>
      <point x="837" y="-20"/>
      <point x="1068" y="146"/>
      <point x="1108" y="384" type="curve" smooth="yes"/>
      <point x="1141" y="577"/>
      <point x="1036" y="742"/>
      <point x="879" y="774" type="curve"/>
      <point x="879" y="780" type="line"/>
      <point x="1021" y="815"/>
      <point x="1144" y="937"/>
      <point x="1172" y="1103" type="curve" smooth="yes"/>
      <point x="1212" y="1335"/>
      <point x="1041" y="1510"/>
      <point x="777" y="1510" type="curve" smooth="yes"/>
      <point x="521" y="1510"/>
      <point x="316" y="1351"/>
      <point x="273" y="1126" type="curve" smooth="yes"/>
      <point x="242" y="963"/>
      <point x="305" y="817"/>
      <point x="442" y="780" type="curve"/>
      <point x="442" y="774" type="line"/>
      <point x="276" y="745"/>
      <point x="129" y="591"/>
      <point x="99" y="407" type="curve" smooth="yes"/>
      <point x="58" y="164"/>
      <point x="241" y="-20"/>
    </contour>
    <contour>
      <point x="553" y="140" type="curve" smooth="yes"/>
      <point x="356" y="140"/>
      <point x="252" y="236"/>
      <point x="276" y="393" type="curve" smooth="yes"/>
      <point x="304" y="567"/>
      <point x="468" y="692"/>
      <point x="663" y="692" type="curve" smooth="yes"/>
      <point x="847" y="692"/>
      <point x="963" y="582"/>
      <point x="937" y="416" type="curve" smooth="yes"/>
      <point x="911" y="250"/>
      <point x="763" y="140"/>
    </contour>
    <contour>
      <point x="669" y="847" type="curve" smooth="yes"/>
      <point x="514" y="847"/>
      <point x="417" y="938"/>
      <point x="442" y="1091" type="curve" smooth="yes"/>
      <point x="468" y="1248"/>
      <point x="598" y="1353"/>
      <point x="774" y="1353" type="curve" smooth="yes"/>
      <point x="936" y="1353"/>
      <point x="1028" y="1265"/>
      <point x="1001" y="1114" type="curve" smooth="yes"/>
      <point x="973" y="956"/>
      <point x="839" y="847"/>
    </contour>
  </outline>
</glyph>
<glyph name="nine" format="2">
  <advance height="2479" width="1277"/>
  <unicode hex="0039"/>
  <outline>
    <contour>
      <point x="777" y="1510" type="curve" smooth="yes"/>
      <point x="480" y="1513"/>
      <point x="256" y="1295"/>
      <point x="209" y="1024" type="curve" smooth="yes"/>
      <point x="160" y="730"/>
      <point x="343" y="518"/>
      <point x="605" y="518" type="curve" smooth="yes"/>
      <point x="756" y="518"/>
      <point x="893" y="588"/>
      <point x="995" y="710" type="curve"/>
      <point x="1007" y="721" type="line"/>
      <point x="943" y="340"/>
      <point x="756" y="140"/>
      <point x="527" y="140" type="curve" smooth="yes"/>
      <point x="367" y="140"/>
      <point x="294" y="236"/>
      <point x="288" y="375" type="curve"/>
      <point x="116" y="375" type="line"/>
      <point x="113" y="140"/>
      <point x="273" y="-20"/>
      <point x="521" y="-20" type="curve" smooth="yes"/>
      <point x="852" y="-20"/>
      <point x="1100" y="271"/>
      <point x="1187" y="794" type="curve" smooth="yes"/>
      <point x="1280" y="1350"/>
      <point x="1027" y="1507"/>
    </contour>
    <contour>
      <point x="771" y="1350" type="curve" smooth="yes"/>
      <point x="954" y="1350"/>
      <point x="1059" y="1199"/>
      <point x="1030" y="1027" type="curve" smooth="yes"/>
      <point x="1001" y="844"/>
      <point x="823" y="678"/>
      <point x="634" y="678" type="curve" smooth="yes"/>
      <point x="457" y="678"/>
      <point x="352" y="823"/>
      <point x="381" y="1001" type="curve" smooth="yes"/>
      <point x="413" y="1196"/>
      <point x="585" y="1350"/>
    </contour>
  </outline>
</glyph>
<glyph name="less" format="2">
  <advance height="2479" width="1350"/>
  <unicode hex="003C"/>
  <outline>
    <contour>
      <point x="199" y="524" type="line"/>
      <point x="1057" y="47" type="line"/>
      <point x="1089" y="233" type="line"/>
      <point x="426" y="579" type="line"/>
      <point x="432" y="567" type="line"/>
      <point x="435" y="596" type="line"/>
      <point x="429" y="585" type="line"/>
      <point x="1206" y="931" type="line"/>
      <point x="1235" y="1117" type="line"/>
      <point x="220" y="640" type="line"/>
    </contour>
  </outline>
</glyph>
<glyph name="question" format="2">
  <advance height="2479" width="1039"/>
  <unicode hex="003F"/>
  <outline>
    <contour>
      <point x="358" y="419" type="line"/>
      <point x="532" y="419" type="line"/>
      <point x="535" y="436" type="line"/>
      <point x="567" y="611"/>
      <point x="628" y="689"/>
      <point x="768" y="768" type="curve" smooth="yes"/>
      <point x="908" y="844"/>
      <point x="1004" y="957"/>
      <point x="1030" y="1117" type="curve" smooth="yes"/>
      <point x="1068" y="1344"/>
      <point x="928" y="1510"/>
      <point x="672" y="1510" type="curve" smooth="yes"/>
      <point x="436" y="1510"/>
      <point x="227" y="1364"/>
      <point x="175" y="1117" type="curve"/>
      <point x="358" y="1117" type="line"/>
      <point x="396" y="1289"/>
      <point x="529" y="1359"/>
      <point x="649" y="1359" type="curve" smooth="yes"/>
      <point x="785" y="1359"/>
      <point x="879" y="1268"/>
      <point x="855" y="1126" type="curve" smooth="yes"/>
      <point x="838" y="1009"/>
      <point x="756" y="928"/>
      <point x="663" y="876" type="curve" smooth="yes"/>
      <point x="510" y="791"/>
      <point x="409" y="708"/>
      <point x="361" y="436" type="curve"/>
    </contour>
    <component base="period" xOffset="192"/>
  </outline>
</glyph>
<glyph name="at" format="2">
  <advance height="2479" width="1917"/>
  <unicode hex="0040"/>
  <outline>
    <contour>
      <point x="858" y="-393" type="curve" smooth="yes"/>
      <point x="1007" y="-393"/>
      <point x="1201" y="-349"/>
      <point x="1300" y="-311" type="curve"/>
      <point x="1280" y="-177" type="line"/>
      <point x="1225" y="-195"/>
      <point x="1047" y="-253"/>
      <point x="887" y="-253" type="curve" smooth="yes"/>
      <point x="390" y="-253"/>
      <point x="172" y="26"/>
      <point x="253" y="521" type="curve" smooth="yes"/>
      <point x="332" y="1007"/>
      <point x="652" y="1297"/>
      <point x="1108" y="1297" type="curve" smooth="yes"/>
      <point x="1571" y="1297"/>
      <point x="1737" y="972"/>
      <point x="1681" y="646" type="curve" smooth="yes"/>
      <point x="1626" y="314"/>
      <point x="1568" y="166"/>
      <point x="1420" y="166" type="curve" smooth="yes"/>
      <point x="1332" y="166"/>
      <point x="1297" y="239"/>
      <point x="1309" y="320" type="curve" smooth="yes"/>
      <point x="1420" y="977" type="line"/>
      <point x="1265" y="977" type="line"/>
      <point x="1251" y="896" type="line"/>
      <point x="1242" y="896" type="line"/>
      <point x="1233" y="960"/>
      <point x="1129" y="1015"/>
      <point x="980" y="1001" type="curve" smooth="yes"/>
      <point x="759" y="977"/>
      <point x="564" y="797"/>
      <point x="521" y="535" type="curve" smooth="yes"/>
      <point x="474" y="259"/>
      <point x="570" y="47"/>
      <point x="820" y="38" type="curve" smooth="yes"/>
      <point x="986" y="32"/>
      <point x="1088" y="113"/>
      <point x="1135" y="198" type="curve"/>
      <point x="1143" y="198" type="line"/>
      <point x="1140" y="73"/>
      <point x="1292" y="29"/>
      <point x="1393" y="29" type="curve" smooth="yes"/>
      <point x="1702" y="29"/>
      <point x="1786" y="361"/>
      <point x="1833" y="643" type="curve" smooth="yes"/>
      <point x="1897" y="1041"/>
      <point x="1684" y="1434"/>
      <point x="1140" y="1434" type="curve" smooth="yes"/>
      <point x="579" y="1434"/>
      <point x="186" y="1094"/>
      <point x="93" y="527" type="curve" smooth="yes"/>
      <point x="-3" y="-61"/>
      <point x="265" y="-393"/>
    </contour>
    <contour>
      <point x="870" y="186" type="curve" smooth="yes"/>
      <point x="681" y="186"/>
      <point x="643" y="358"/>
      <point x="672" y="544" type="curve" smooth="yes"/>
      <point x="701" y="713"/>
      <point x="820" y="858"/>
      <point x="986" y="858" type="curve" smooth="yes"/>
      <point x="1161" y="858"/>
      <point x="1242" y="788"/>
      <point x="1201" y="544" type="curve" smooth="yes"/>
      <point x="1161" y="303"/>
      <point x="1065" y="186"/>
    </contour>
  </outline>
</glyph>
<glyph name="A" format="2">
  <advance height="2479" width="1385"/>
  <unicode hex="0041"/>
  <anchor x="599" y="0" name="bottom"/>
  <anchor x="1239" y="0" name="ogonek"/>
  <anchor x="649" y="1489" name="tonos"/>
  <anchor x="879" y="1676" name="top"/>
  <outline>
    <contour>
      <point x="148" y="0" type="line"/>
      <point x="803" y="1254" type="line"/>
      <point x="815" y="1254" type="line"/>
      <point x="1050" y="0" type="line"/>
      <point x="1239" y="0" type="line"/>
      <point x="940" y="1489" type="line"/>
      <point x="753" y="1489" type="line"/>
      <point x="-41" y="0" type="line"/>
    </contour>
    <contour>
      <point x="314" y="582" type="line"/>
      <point x="288" y="422" type="line"/>
      <point x="1050" y="422" type="line"/>
      <point x="1076" y="582" type="line"/>
    </contour>
  </outline>
</glyph>
<glyph name="D" format="2">
  <advance height="2479" width="1472"/>
  <unicode hex="0044"/>
  <anchor x="436" y="0" name="bottom"/>
  <anchor x="340" y="768" name="cross"/>
  <anchor x="989" y="1676" name="top"/>
  <outline>
    <contour>
      <point x="553" y="0" type="line" smooth="yes"/>
      <point x="1007" y="0"/>
      <point x="1303" y="276"/>
      <point x="1379" y="736" type="curve" smooth="yes"/>
      <point x="1457" y="1204"/>
      <point x="1242" y="1489"/>
      <point x="809" y="1489" type="curve" smooth="yes"/>
      <point x="428" y="1489" type="line"/>
      <point x="401" y="1329" type="line"/>
      <point x="783" y="1329" type="line" smooth="yes"/>
      <point x="1132" y="1329"/>
      <point x="1268" y="1114"/>
      <point x="1207" y="759" type="curve" smooth="yes"/>
      <point x="1146" y="390"/>
      <point x="928" y="160"/>
      <point x="559" y="160" type="curve" smooth="yes"/>
      <point x="215" y="160" type="line"/>
      <point x="189" y="0" type="line"/>
    </contour>
    <contour>
      <point x="515" y="1489" type="line"/>
      <point x="335" y="1489" type="line"/>
      <point x="87" y="0" type="line"/>
      <point x="268" y="0" type="line"/>
    </contour>
  </outline>
</glyph>
<glyph name="H" format="2">
  <advance height="2479" width="1516"/>
  <unicode hex="0048"/>
  <anchor x="663" y="0" name="bottom"/>
  <anchor x="198" y="0" name="cedilla"/>
  <anchor x="1321" y="64" name="cyrtic"/>
  <anchor x="1239" y="0" name="right"/>
  <anchor x="294" y="1489" name="tonos"/>
  <anchor x="951" y="1679" name="top"/>
  <outline>
    <contour>
      <point x="87" y="0" type="line"/>
      <point x="268" y="0" type="line"/>
      <point x="378" y="666" type="line"/>
      <point x="1172" y="666" type="line"/>
      <point x="1062" y="0" type="line"/>
      <point x="1242" y="0" type="line"/>
      <point x="1489" y="1489" type="line"/>
      <point x="1309" y="1489" type="line"/>
      <point x="1199" y="826" type="line"/>
      <point x="404" y="826" type="line"/>
      <point x="515" y="1489" type="line"/>
      <point x="335" y="1489" type="line"/>
    </contour>
  </outline>
</glyph>
<glyph name="J" format="2">
  <advance height="2479" width="1112"/>
  <unicode hex="004A"/>
  <anchor x="896" y="884" name="cross"/>
  <anchor x="1027" y="1676" name="top"/>
  <outline>
    <contour>
      <point x="905" y="1489" type="line"/>
      <point x="730" y="431" type="line"/>
      <point x="698" y="244"/>
      <point x="584" y="140"/>
      <point x="425" y="140" type="curve" smooth="yes"/>
      <point x="287" y="140"/>
      <point x="203" y="217"/>
      <point x="221" y="349" type="curve"/>
      <point x="49" y="349" type="line"/>
      <point x="14" y="121"/>
      <point x="172" y="-20"/>
      <point x="422" y="-20" type="curve" smooth="yes"/>
      <point x="684" y="-20"/>
      <point x="861" y="134"/>
      <point x="908" y="419" type="curve"/>
      <point x="1085" y="1489" type="line"/>
    </contour>
  </outline>
</glyph>
<glyph name="K" format="2">
  <advance height="2479" width="1335"/>
  <unicode hex="004B"/>
  <anchor x="596" y="0" name="bottom"/>
  <anchor x="855" y="1676" name="top"/>
  <outline>
    <contour>
      <point x="87" y="0" type="line"/>
      <point x="268" y="0" type="line"/>
      <point x="349" y="483" type="line"/>
      <point x="570" y="692" type="line"/>
      <point x="972" y="0" type="line"/>
      <point x="1190" y="0" type="line"/>
      <point x="701" y="817" type="line"/>
      <point x="1437" y="1489" type="line"/>
      <point x="1201" y="1489" type="line"/>
      <point x="410" y="751" type="line"/>
      <point x="393" y="751" type="line"/>
      <point x="515" y="1489" type="line"/>
      <point x="335" y="1489" type="line"/>
    </contour>
  </outline>
</glyph>
<glyph name="M" format="2">
  <advance height="2479" width="1822"/>
  <unicode hex="004D"/>
  <anchor x="817" y="0" name="bottom"/>
  <anchor x="1527" y="0" name="right"/>
  <anchor x="1097" y="1676" name="top"/>
  <outline>
    <contour>
      <point x="335" y="1489" type="line"/>
      <point x="87" y="0" type="line"/>
      <point x="256" y="0" type="line"/>
      <point x="445" y="1132" type="line"/>
      <point x="460" y="1132" type="line"/>
      <point x="736" y="0" type="line"/>
      <point x="899" y="0" type="line"/>
      <point x="1553" y="1132" type="line"/>
      <point x="1568" y="1132" type="line"/>
      <point x="1379" y="0" type="line"/>
      <point x="1548" y="0" type="line"/>
      <point x="1795" y="1489" type="line"/>
      <point x="1580" y="1489" type="line"/>
      <point x="870" y="253" type="line"/>
      <point x="852" y="253" type="line"/>
      <point x="550" y="1489" type="line"/>
    </contour>
  </outline>
</glyph>
<glyph name="N" format="2">
  <advance height="2479" width="1543"/>
  <unicode hex="004E"/>
  <anchor x="678" y="0" name="bottom"/>
  <anchor x="1265" y="0" name="right"/>
  <anchor x="957" y="1676" name="top"/>
  <outline>
    <contour>
      <point x="1516" y="1489" type="line"/>
      <point x="1338" y="1489" type="line"/>
      <point x="1143" y="317" type="line"/>
      <point x="1129" y="317" type="line"/>
      <point x="509" y="1489" type="line"/>
      <point x="335" y="1489" type="line"/>
      <point x="87" y="0" type="line"/>
      <point x="268" y="0" type="line"/>
      <point x="463" y="1169" type="line"/>
      <point x="477" y="1169" type="line"/>
      <point x="1094" y="0" type="line"/>
      <point x="1268" y="0" type="line"/>
    </contour>
  </outline>
</glyph>
<glyph name="O" format="2">
  <advance height="2479" width="1559"/>
  <unicode hex="004F"/>
  <anchor x="698" y="6" name="bottom"/>
  <anchor x="841" y="0" name="ogonek"/>
  <anchor x="329" y="1489" name="tonos"/>
  <anchor x="963" y="1676" name="top"/>
  <outline>
    <contour>
      <point x="1466" y="733" type="curve"/>
      <point x="1545" y="1210"/>
      <point x="1312" y="1510"/>
      <point x="928" y="1510" type="curve" smooth="yes"/>
      <point x="550" y="1510"/>
      <point x="233" y="1222"/>
      <point x="154" y="756" type="curve"/>
      <point x="76" y="279"/>
      <point x="308" y="-20"/>
      <point x="695" y="-20" type="curve" smooth="yes"/>
      <point x="1071" y="-20"/>
      <point x="1388" y="268"/>
    </contour>
    <contour>
      <point x="1295" y="756" type="curve"/>
      <point x="1231" y="364"/>
      <point x="977" y="148"/>
      <point x="701" y="148" type="curve" smooth="yes"/>
      <point x="436" y="148"/>
      <point x="262" y="352"/>
      <point x="326" y="733" type="curve"/>
      <point x="390" y="1126"/>
      <point x="643" y="1341"/>
      <point x="919" y="1341" type="curve" smooth="yes"/>
      <point x="1184" y="1341"/>
      <point x="1359" y="1137"/>
    </contour>
  </outline>
</glyph>
<glyph name="P" format="2">
  <advance height="2479" width="1297"/>
  <unicode hex="0050"/>
  <anchor x="300" y="1489" name="tonos"/>
  <anchor x="835" y="1676" name="top"/>
  <outline>
    <contour>
      <point x="87" y="0" type="line"/>
      <point x="268" y="0" type="line"/>
      <point x="489" y="1329" type="line"/>
      <point x="806" y="1329" type="line"/>
      <point x="1047" y="1329"/>
      <point x="1117" y="1199"/>
      <point x="1088" y="1018" type="curve" smooth="yes"/>
      <point x="1059" y="841"/>
      <point x="943" y="704"/>
      <point x="704" y="704" type="curve"/>
      <point x="349" y="704" type="line"/>
      <point x="323" y="544" type="line"/>
      <point x="684" y="544" type="line"/>
      <point x="1030" y="544"/>
      <point x="1222" y="756"/>
      <point x="1265" y="1018" type="curve" smooth="yes"/>
      <point x="1309" y="1283"/>
      <point x="1187" y="1489"/>
      <point x="838" y="1489" type="curve"/>
      <point x="335" y="1489" type="line"/>
    </contour>
  </outline>
</glyph>
<glyph name="Q" format="2">
  <advance height="2479" width="1588"/>
  <unicode hex="0051"/>
  <anchor x="698" y="6" name="bottom"/>
  <anchor x="841" y="0" name="ogonek"/>
  <anchor x="329" y="1489" name="tonos"/>
  <anchor x="963" y="1676" name="top"/>
  <outline>
    <contour>
      <point x="695" y="465" type="line"/>
      <point x="948" y="134" type="line"/>
      <point x="989" y="79" type="line"/>
      <point x="1152" y="-140" type="line"/>
      <point x="1350" y="-140" type="line"/>
      <point x="1103" y="189" type="line"/>
      <point x="1059" y="247" type="line"/>
      <point x="893" y="465" type="line"/>
    </contour>
    <component base="O"/>
  </outline>
</glyph>
<glyph name="S" format="2">
  <advance height="2479" width="1306"/>
  <unicode hex="0053"/>
  <anchor x="559" y="-26" name="bottom"/>
  <anchor x="564" y="0" name="cedilla"/>
  <anchor x="838" y="1676" name="top"/>
  <outline>
    <contour>
      <point x="1085" y="1105" type="curve"/>
      <point x="1260" y="1105" type="line"/>
      <point x="1286" y="1341"/>
      <point x="1111" y="1510"/>
      <point x="823" y="1510" type="curve" smooth="yes"/>
      <point x="538" y="1510"/>
      <point x="288" y="1344"/>
      <point x="244" y="1094" type="curve" smooth="yes"/>
      <point x="212" y="893"/>
      <point x="337" y="774"/>
      <point x="559" y="707" type="curve" smooth="yes"/>
      <point x="733" y="655" type="line" smooth="yes"/>
      <point x="884" y="611"/>
      <point x="1015" y="556"/>
      <point x="989" y="407" type="curve" smooth="yes"/>
      <point x="963" y="244"/>
      <point x="788" y="137"/>
      <point x="582" y="137" type="curve" smooth="yes"/>
      <point x="404" y="137"/>
      <point x="259" y="215"/>
      <point x="273" y="384" type="curve"/>
      <point x="87" y="384" type="line"/>
      <point x="64" y="140"/>
      <point x="236" y="-26"/>
      <point x="556" y="-26" type="curve" smooth="yes"/>
      <point x="899" y="-26"/>
      <point x="1123" y="163"/>
      <point x="1164" y="404" type="curve" smooth="yes"/>
      <point x="1210" y="684"/>
      <point x="960" y="774"/>
      <point x="815" y="815" type="curve" smooth="yes"/>
      <point x="669" y="855" type="line" smooth="yes"/>
      <point x="564" y="884"/>
      <point x="396" y="943"/>
      <point x="422" y="1103" type="curve" smooth="yes"/>
      <point x="445" y="1245"/>
      <point x="593" y="1350"/>
      <point x="791" y="1350" type="curve" smooth="yes"/>
      <point x="972" y="1350"/>
      <point x="1085" y="1265"/>
    </contour>
  </outline>
</glyph>
<glyph name="V" format="2">
  <advance height="2479" width="1385"/>
  <unicode hex="0056"/>
  <anchor x="600" y="0" name="bottom"/>
  <anchor x="877" y="1676" name="top"/>
  <outline>
    <contour>
      <point x="394" y="1489" type="line"/>
      <point x="205" y="1489" type="line"/>
      <point x="504" y="0" type="line"/>
      <point x="691" y="0" type="line"/>
      <point x="1485" y="1489" type="line"/>
      <point x="1296" y="1489" type="line"/>
      <point x="647" y="236" type="line"/>
      <point x="630" y="236" type="line"/>
    </contour>
  </outline>
</glyph>
<glyph name="W" format="2">
  <advance height="2479" width="1945"/>
  <unicode hex="0057"/>
  <anchor x="881" y="12" name="bottom"/>
  <anchor x="1158" y="1676" name="top"/>
  <outline>
    <contour>
      <point x="358" y="0" type="line"/>
      <point x="544" y="0" type="line"/>
      <point x="1071" y="1187" type="line"/>
      <point x="1082" y="1187" type="line"/>
      <point x="1213" y="0" type="line"/>
      <point x="1399" y="0" type="line"/>
      <point x="2054" y="1489" type="line"/>
      <point x="1871" y="1489" type="line"/>
      <point x="1359" y="276" type="line"/>
      <point x="1344" y="276" type="line"/>
      <point x="1228" y="1489" type="line"/>
      <point x="1024" y="1489" type="line"/>
      <point x="506" y="276" type="line"/>
      <point x="492" y="276" type="line"/>
      <point x="381" y="1489" type="line"/>
      <point x="198" y="1489" type="line"/>
    </contour>
  </outline>
</glyph>
<glyph name="X" format="2">
  <advance height="2479" width="1315"/>
  <unicode hex="0058"/>
  <anchor x="567" y="12" name="bottom"/>
  <anchor x="689" y="745" name="cross"/>
  <anchor x="1146" y="64" name="cyrtic"/>
  <anchor x="1036" y="0" name="right"/>
  <anchor x="844" y="1676" name="top"/>
  <outline>
    <contour>
      <point x="422" y="1489" type="line"/>
      <point x="209" y="1489" type="line"/>
      <point x="567" y="745" type="line"/>
      <point x="-38" y="0" type="line"/>
      <point x="175" y="0" type="line"/>
      <point x="660" y="608" type="line"/>
      <point x="672" y="608" type="line"/>
      <point x="954" y="0" type="line"/>
      <point x="1167" y="0" type="line"/>
      <point x="823" y="745" type="line"/>
      <point x="1414" y="1489" type="line"/>
      <point x="1201" y="1489" type="line"/>
      <point x="716" y="870" type="line"/>
      <point x="704" y="870" type="line"/>
    </contour>
  </outline>
</glyph>
<glyph name="Y" format="2">
  <advance height="2479" width="1361"/>
  <unicode hex="0059"/>
  <anchor x="588" y="0" name="bottom"/>
  <anchor x="687" y="593" name="cross"/>
  <anchor x="678" y="0" name="ogonek"/>
  <anchor x="140" y="1489" name="tonos"/>
  <anchor x="867" y="1676" name="top"/>
  <outline>
    <contour>
      <point x="207" y="1489" type="line"/>
      <point x="599" y="614" type="line"/>
      <point x="497" y="0" type="line"/>
      <point x="678" y="0" type="line"/>
      <point x="780" y="614" type="line"/>
      <point x="1463" y="1489" type="line"/>
      <point x="1257" y="1489" type="line"/>
      <point x="730" y="794" type="line"/>
      <point x="713" y="794" type="line"/>
      <point x="413" y="1489" type="line"/>
    </contour>
  </outline>
</glyph>
<glyph name="bracketleft" format="2">
  <advance height="2479" width="742"/>
  <unicode hex="005B"/>
  <outline>
    <contour>
      <point x="99" y="-303" type="line"/>
      <point x="529" y="-303" type="line"/>
      <point x="553" y="-160" type="line"/>
      <point x="285" y="-160" type="line"/>
      <point x="547" y="1417" type="line"/>
      <point x="815" y="1417" type="line"/>
      <point x="838" y="1559" type="line"/>
      <point x="407" y="1559" type="line"/>
    </contour>
  </outline>
</glyph>
<glyph name="backslash" format="2">
  <advance height="2479" width="730"/>
  <unicode hex="005C"/>
  <outline>
    <contour>
      <point x="398" y="-224" type="line"/>
      <point x="551" y="-224" type="line"/>
      <point x="366" y="1559" type="line"/>
      <point x="213" y="1559" type="line"/>
    </contour>
  </outline>
</glyph>
<glyph name="asciicircum" format="2">
  <advance height="2479" width="960"/>
  <unicode hex="005E"/>
  <outline>
    <contour>
      <point x="593" y="1361" type="line"/>
      <point x="582" y="1289" type="line"/>
      <point x="634" y="1289" type="line"/>
      <point x="646" y="1361" type="line"/>
    </contour>
    <contour>
      <point x="125" y="815" type="line"/>
      <point x="305" y="815" type="line"/>
      <point x="620" y="1318" type="line"/>
      <point x="602" y="1318" type="line"/>
      <point x="756" y="815" type="line"/>
      <point x="922" y="815" type="line"/>
      <point x="724" y="1443" type="line"/>
      <point x="527" y="1443" type="line"/>
    </contour>
  </outline>
</glyph>
<glyph name="underscore" format="2">
  <advance height="2479" width="925"/>
  <unicode hex="005F"/>
  <anchor x="401" y="157" name="_bottom"/>
  <outline>
    <contour>
      <point x="835" y="0" type="line"/>
      <point x="-96" y="0" type="line"/>
      <point x="-122" y="-160" type="line"/>
      <point x="809" y="-160" type="line"/>
    </contour>
  </outline>
</glyph>
<glyph name="grave" format="2">
  <advance height="2479" width="1018"/>
  <unicode hex="0060"/>
  <anchor x="742" y="1303" name="_top"/>
  <anchor x="783" y="1676" name="top"/>
  <outline>
    <contour>
      <point x="663" y="1268" type="line"/>
      <point x="815" y="1268" type="line"/>
      <point x="695" y="1606" type="line"/>
      <point x="495" y="1606" type="line"/>
    </contour>
  </outline>
</glyph>
<glyph name="a" format="2">
  <advance height="2479" width="1155"/>
  <unicode hex="0061"/>
  <anchor x="495" y="0" name="bottom"/>
  <anchor x="905" y="0" name="ogonek"/>
  <anchor x="707" y="1303" name="rhalfring"/>
  <anchor x="719" y="1303" name="top"/>
  <outline>
    <contour>
      <point x="390" y="-25" type="curve" smooth="yes"/>
      <point x="585" y="-25"/>
      <point x="704" y="79"/>
      <point x="751" y="151" type="curve"/>
      <point x="759" y="151" type="line"/>
      <point x="733" y="0" type="line"/>
      <point x="905" y="0" type="line"/>
      <point x="1027" y="736" type="line" smooth="yes"/>
      <point x="1086" y="1091"/>
      <point x="823" y="1132"/>
      <point x="681" y="1132" type="curve" smooth="yes"/>
      <point x="512" y="1132"/>
      <point x="308" y="1073"/>
      <point x="189" y="870" type="curve"/>
      <point x="340" y="812" type="line"/>
      <point x="393" y="893"/>
      <point x="503" y="980"/>
      <point x="666" y="980" type="curve" smooth="yes"/>
      <point x="823" y="980"/>
      <point x="858" y="898"/>
      <point x="858" y="753" type="curve" smooth="yes"/>
      <point x="858" y="748" type="line" smooth="yes"/>
      <point x="858" y="665"/>
      <point x="759" y="672"/>
      <point x="553" y="646" type="curve" smooth="yes"/>
      <point x="340" y="620"/>
      <point x="108" y="573"/>
      <point x="64" y="317" type="curve" smooth="yes"/>
      <point x="29" y="99"/>
      <point x="177" y="-25"/>
    </contour>
    <contour>
      <point x="439" y="129" type="curve" smooth="yes"/>
      <point x="303" y="129"/>
      <point x="215" y="189"/>
      <point x="236" y="308" type="curve" smooth="yes"/>
      <point x="256" y="439"/>
      <point x="384" y="480"/>
      <point x="521" y="497" type="curve" smooth="yes"/>
      <point x="593" y="506"/>
      <point x="791" y="527"/>
      <point x="826" y="561" type="curve"/>
      <point x="800" y="404" type="line" smooth="yes"/>
      <point x="777" y="265"/>
      <point x="643" y="129"/>
    </contour>
  </outline>
</glyph>
<glyph name="b" format="2">
  <advance height="2479" width="1271"/>
  <unicode hex="0062"/>
  <anchor x="556" y="0" name="bottom"/>
  <anchor x="387" y="1280" name="cross"/>
  <anchor x="803" y="1303" name="top"/>
  <outline>
    <contour>
      <point x="87" y="0" type="line"/>
      <point x="253" y="0" type="line"/>
      <point x="282" y="172" type="line"/>
      <point x="303" y="172" type="line"/>
      <point x="332" y="111"/>
      <point x="381" y="-23"/>
      <point x="596" y="-23" type="curve" smooth="yes"/>
      <point x="876" y="-23"/>
      <point x="1108" y="201"/>
      <point x="1167" y="556" type="curve" smooth="yes"/>
      <point x="1225" y="908"/>
      <point x="1068" y="1132"/>
      <point x="785" y="1132" type="curve" smooth="yes"/>
      <point x="567" y="1132"/>
      <point x="477" y="998"/>
      <point x="431" y="940" type="curve"/>
      <point x="416" y="940" type="line"/>
      <point x="506" y="1489" type="line"/>
      <point x="335" y="1489" type="line"/>
    </contour>
    <contour>
      <point x="349" y="559" type="curve" smooth="yes"/>
      <point x="390" y="809"/>
      <point x="529" y="977"/>
      <point x="739" y="977" type="curve" smooth="yes"/>
      <point x="957" y="977"/>
      <point x="1033" y="794"/>
      <point x="995" y="559" type="curve" smooth="yes"/>
      <point x="954" y="320"/>
      <point x="815" y="131"/>
      <point x="599" y="131" type="curve" smooth="yes"/>
      <point x="393" y="131"/>
      <point x="308" y="305"/>
    </contour>
  </outline>
</glyph>
<glyph name="h" format="2">
  <advance height="2479" width="1210"/>
  <unicode hex="0068"/>
  <anchor x="509" y="0" name="bottom"/>
  <anchor x="166" y="0" name="cedilla"/>
  <anchor x="367" y="1303" name="cross"/>
  <anchor x="431" y="1676" name="top"/>
  <outline>
    <contour>
      <point x="346" y="672" type="line" smooth="yes"/>
      <point x="381" y="867"/>
      <point x="524" y="977"/>
      <point x="692" y="977" type="curve" smooth="yes"/>
      <point x="852" y="977"/>
      <point x="934" y="876"/>
      <point x="905" y="698" type="curve" smooth="yes"/>
      <point x="788" y="0" type="line"/>
      <point x="960" y="0" type="line"/>
      <point x="1079" y="710" type="line" smooth="yes"/>
      <point x="1126" y="998"/>
      <point x="995" y="1132"/>
      <point x="768" y="1132" type="curve" smooth="yes"/>
      <point x="591" y="1132"/>
      <point x="477" y="1059"/>
      <point x="407" y="943" type="curve"/>
      <point x="393" y="943" type="line"/>
      <point x="483" y="1489" type="line"/>
      <point x="311" y="1489" type="line"/>
      <point x="64" y="0" type="line"/>
      <point x="236" y="0" type="line"/>
    </contour>
  </outline>
</glyph>
<glyph name="l" format="2">
  <advance height="2479" width="486"/>
  <unicode hex="006C"/>
  <anchor x="150" y="0" name="bottom"/>
  <anchor x="279" y="768" name="cross"/>
  <anchor x="625" y="1489" name="raccent"/>
  <anchor x="428" y="1676" name="top"/>
  <outline>
    <contour>
      <point x="483" y="1489" type="line"/>
      <point x="311" y="1489" type="line"/>
      <point x="64" y="0" type="line"/>
      <point x="236" y="0" type="line"/>
    </contour>
  </outline>
</glyph>
<glyph name="m" format="2">
  <advance height="2479" width="1780"/>
  <unicode hex="006D"/>
  <anchor x="797" y="0" name="bottom"/>
  <anchor x="1012" y="1303" name="top"/>
  <outline>
    <contour>
      <point x="64" y="0" type="line"/>
      <point x="236" y="0" type="line"/>
      <point x="352" y="698" type="line" smooth="yes"/>
      <point x="378" y="861"/>
      <point x="518" y="977"/>
      <point x="652" y="977" type="curve" smooth="yes"/>
      <point x="783" y="977"/>
      <point x="858" y="893"/>
      <point x="838" y="765" type="curve" smooth="yes"/>
      <point x="710" y="0" type="line"/>
      <point x="884" y="0" type="line"/>
      <point x="1007" y="727" type="line" smooth="yes"/>
      <point x="1030" y="873"/>
      <point x="1137" y="977"/>
      <point x="1295" y="977" type="curve" smooth="yes"/>
      <point x="1417" y="977"/>
      <point x="1510" y="913"/>
      <point x="1484" y="748" type="curve" smooth="yes"/>
      <point x="1359" y="0" type="line"/>
      <point x="1530" y="0" type="line"/>
      <point x="1655" y="748" type="line" smooth="yes"/>
      <point x="1699" y="1009"/>
      <point x="1577" y="1132"/>
      <point x="1379" y="1132" type="curve" smooth="yes"/>
      <point x="1219" y="1132"/>
      <point x="1088" y="1059"/>
      <point x="1012" y="943" type="curve"/>
      <point x="1001" y="943" type="line"/>
      <point x="966" y="1062"/>
      <point x="879" y="1132"/>
      <point x="733" y="1132" type="curve" smooth="yes"/>
      <point x="588" y="1132"/>
      <point x="468" y="1062"/>
      <point x="401" y="943" type="curve"/>
      <point x="387" y="943" type="line"/>
      <point x="416" y="1117" type="line"/>
      <point x="250" y="1117" type="line"/>
    </contour>
  </outline>
</glyph>
<glyph name="o" format="2">
  <advance height="2479" width="1222"/>
  <unicode hex="006F"/>
  <anchor x="519" y="0" name="bottom"/>
  <anchor x="647" y="0" name="ogonek"/>
  <anchor x="735" y="1303" name="top"/>
  <outline>
    <contour>
      <point x="525" y="-23" type="curve" smooth="yes"/>
      <point x="821" y="-23"/>
      <point x="1057" y="201"/>
      <point x="1113" y="541" type="curve" smooth="yes"/>
      <point x="1169" y="896"/>
      <point x="1001" y="1132"/>
      <point x="694" y="1132" type="curve" smooth="yes"/>
      <point x="396" y="1132"/>
      <point x="161" y="908"/>
      <point x="106" y="564" type="curve" smooth="yes"/>
      <point x="49" y="212"/>
      <point x="216" y="-23"/>
    </contour>
    <contour>
      <point x="528" y="131" type="curve" smooth="yes"/>
      <point x="303" y="131"/>
      <point x="236" y="323"/>
      <point x="272" y="541" type="curve" smooth="yes"/>
      <point x="308" y="771"/>
      <point x="455" y="977"/>
      <point x="691" y="977" type="curve" smooth="yes"/>
      <point x="914" y="977"/>
      <point x="981" y="783"/>
      <point x="947" y="564" type="curve" smooth="yes"/>
      <point x="909" y="334"/>
      <point x="763" y="131"/>
    </contour>
  </outline>
</glyph>
<glyph name="p" format="2">
  <advance height="2479" width="1296"/>
  <unicode hex="0070"/>
  <anchor x="80" y="-419" name="bottom"/>
  <anchor x="1063" y="-495" name="bottom0315"/>
  <anchor x="126" y="-163" name="cross"/>
  <anchor x="781" y="1303" name="top"/>
  <outline>
    <contour>
      <point x="-6" y="-419" type="line"/>
      <point x="167" y="-419" type="line"/>
      <point x="266" y="172" type="line"/>
      <point x="280" y="172" type="line"/>
      <point x="309" y="111"/>
      <point x="358" y="-23"/>
      <point x="574" y="-23" type="curve" smooth="yes"/>
      <point x="853" y="-23"/>
      <point x="1086" y="201"/>
      <point x="1144" y="556" type="curve" smooth="yes"/>
      <point x="1202" y="908"/>
      <point x="1045" y="1132"/>
      <point x="763" y="1132" type="curve" smooth="yes"/>
      <point x="544" y="1132"/>
      <point x="454" y="998"/>
      <point x="408" y="940" type="curve"/>
      <point x="388" y="940" type="line"/>
      <point x="417" y="1117" type="line"/>
      <point x="251" y="1117" type="line"/>
    </contour>
    <contour>
      <point x="327" y="559" type="curve" smooth="yes"/>
      <point x="367" y="809"/>
      <point x="507" y="977"/>
      <point x="717" y="977" type="curve" smooth="yes"/>
      <point x="934" y="977"/>
      <point x="1010" y="794"/>
      <point x="973" y="559" type="curve" smooth="yes"/>
      <point x="931" y="320"/>
      <point x="792" y="131"/>
      <point x="577" y="131" type="curve" smooth="yes"/>
      <point x="370" y="131"/>
      <point x="286" y="305"/>
    </contour>
  </outline>
</glyph>
<glyph name="q" format="2">
  <advance height="2479" width="1295"/>
  <unicode hex="0071"/>
  <anchor x="892" y="-419" name="bottom"/>
  <anchor x="931" y="-163" name="cross"/>
  <anchor x="761" y="1303" name="top"/>
  <outline>
    <contour>
      <point x="805" y="-419" type="line"/>
      <point x="976" y="-419" type="line"/>
      <point x="1231" y="1117" type="line"/>
      <point x="1065" y="1117" type="line"/>
      <point x="1035" y="940" type="line"/>
      <point x="1014" y="940" type="line"/>
      <point x="987" y="998"/>
      <point x="942" y="1132"/>
      <point x="723" y="1132" type="curve" smooth="yes"/>
      <point x="441" y="1132"/>
      <point x="209" y="908"/>
      <point x="152" y="556" type="curve" smooth="yes"/>
      <point x="93" y="201"/>
      <point x="251" y="-23"/>
      <point x="530" y="-23" type="curve" smooth="yes"/>
      <point x="745" y="-23"/>
      <point x="840" y="111"/>
      <point x="888" y="172" type="curve"/>
      <point x="902" y="172" type="line"/>
    </contour>
    <contour>
      <point x="578" y="131" type="curve" smooth="yes"/>
      <point x="363" y="131"/>
      <point x="284" y="320"/>
      <point x="323" y="559" type="curve" smooth="yes"/>
      <point x="363" y="794"/>
      <point x="500" y="977"/>
      <point x="719" y="977" type="curve" smooth="yes"/>
      <point x="928" y="977"/>
      <point x="1011" y="809"/>
      <point x="969" y="559" type="curve" smooth="yes"/>
      <point x="927" y="305"/>
      <point x="785" y="131"/>
    </contour>
  </outline>
</glyph>
<glyph name="u" format="2">
  <advance height="2479" width="1236"/>
  <unicode hex="0075"/>
  <anchor x="503" y="0" name="bottom"/>
  <anchor x="939" y="0" name="ogonek"/>
  <anchor x="718" y="1303" name="top"/>
  <outline>
    <contour>
      <point x="843" y="457" type="line" smooth="yes"/>
      <point x="808" y="247"/>
      <point x="634" y="151"/>
      <point x="506" y="151" type="curve" smooth="yes"/>
      <point x="363" y="151"/>
      <point x="279" y="256"/>
      <point x="305" y="419" type="curve" smooth="yes"/>
      <point x="422" y="1117" type="line"/>
      <point x="250" y="1117" type="line"/>
      <point x="131" y="407" type="line" smooth="yes"/>
      <point x="84" y="122"/>
      <point x="212" y="-15"/>
      <point x="422" y="-15" type="curve" smooth="yes"/>
      <point x="590" y="-15"/>
      <point x="718" y="76"/>
      <point x="788" y="189" type="curve"/>
      <point x="800" y="189" type="line"/>
      <point x="768" y="0" type="line"/>
      <point x="939" y="0" type="line"/>
      <point x="1126" y="1117" type="line"/>
      <point x="954" y="1117" type="line"/>
    </contour>
  </outline>
</glyph>
<glyph name="x" format="2">
  <advance height="2479" width="1105"/>
  <unicode hex="0078"/>
  <anchor x="460" y="0" name="bottom"/>
  <anchor x="553" y="559" name="cross"/>
  <anchor x="908" y="64" name="cyrtic"/>
  <anchor x="768" y="0" name="right"/>
  <anchor x="675" y="1303" name="top"/>
  <outline>
    <contour>
      <point x="378" y="1117" type="line"/>
      <point x="180" y="1117" type="line"/>
      <point x="442" y="559" type="line"/>
      <point x="-6" y="0" type="line"/>
      <point x="192" y="0" type="line"/>
      <point x="532" y="433" type="line"/>
      <point x="727" y="0" type="line"/>
      <point x="925" y="0" type="line"/>
      <point x="657" y="559" type="line"/>
      <point x="1111" y="1117" type="line"/>
      <point x="913" y="1117" type="line"/>
      <point x="570" y="660" type="line"/>
    </contour>
  </outline>
</glyph>
<glyph name="z" format="2">
  <advance height="2479" width="1108"/>
  <unicode hex="007A"/>
  <anchor x="454" y="0" name="bottom"/>
  <anchor x="553" y="559" name="cross"/>
  <anchor x="675" y="1303" name="top"/>
  <outline>
    <contour>
      <point x="32" y="0" type="line"/>
      <point x="908" y="0" type="line"/>
      <point x="934" y="160" type="line"/>
      <point x="297" y="160" type="line"/>
      <point x="300" y="172" type="line"/>
      <point x="1050" y="980" type="line"/>
      <point x="1073" y="1117" type="line"/>
      <point x="239" y="1117" type="line"/>
      <point x="212" y="957" type="line"/>
      <point x="826" y="957" type="line"/>
      <point x="823" y="945" type="line"/>
      <point x="55" y="131" type="line"/>
    </contour>
  </outline>
</glyph>
<glyph name="braceleft" format="2">
  <advance height="2479" width="742"/>
  <unicode hex="007B"/>
  <outline>
    <contour>
      <point x="87" y="625" type="line"/>
      <point x="401" y="625"/>
      <point x="480" y="727"/>
      <point x="503" y="879" type="curve" smooth="yes"/>
      <point x="553" y="1169" type="line" smooth="yes"/>
      <point x="579" y="1341"/>
      <point x="646" y="1417"/>
      <point x="815" y="1417" type="curve"/>
      <point x="838" y="1559" type="line"/>
      <point x="553" y="1559"/>
      <point x="439" y="1437"/>
      <point x="396" y="1169" type="curve" smooth="yes"/>
      <point x="358" y="937" type="line" smooth="yes"/>
      <point x="332" y="776"/>
      <point x="265" y="716"/>
      <point x="102" y="716" type="curve"/>
    </contour>
    <contour>
      <point x="529" y="-303" type="curve"/>
      <point x="553" y="-160" type="line"/>
      <point x="384" y="-160"/>
      <point x="343" y="-84"/>
      <point x="372" y="87" type="curve" smooth="yes"/>
      <point x="422" y="378" type="line" smooth="yes"/>
      <point x="445" y="529"/>
      <point x="401" y="631"/>
      <point x="87" y="631" type="curve"/>
      <point x="73" y="541" type="line"/>
      <point x="236" y="541"/>
      <point x="279" y="480"/>
      <point x="253" y="320" type="curve" smooth="yes"/>
      <point x="215" y="87" type="line" smooth="yes"/>
      <point x="172" y="-180"/>
      <point x="244" y="-303"/>
    </contour>
    <contour>
      <point x="70" y="541" type="line"/>
      <point x="241" y="541" type="line"/>
      <point x="271" y="716" type="line"/>
      <point x="99" y="716" type="line"/>
    </contour>
  </outline>
</glyph>
<glyph name="cent" format="2">
  <advance height="2479" width="1142"/>
  <unicode hex="00A2"/>
  <anchor x="555" y="191" name="cedilla"/>
  <anchor x="758" y="1494" name="top"/>
  <outline>
    <contour>
      <point x="432" y="0" type="line"/>
      <point x="552" y="0" type="line"/>
      <point x="826" y="1489" type="line"/>
      <point x="707" y="1489" type="line"/>
    </contour>
    <component base="c" xOffset="32" yOffset="191"/>
  </outline>
</glyph>
<glyph name="sterling" format="2">
  <advance height="2479" width="1292"/>
  <unicode hex="00A3"/>
  <outline>
    <contour>
      <point x="1027" y="0" type="line"/>
      <point x="1053" y="160" type="line"/>
      <point x="67" y="160" type="line"/>
      <point x="41" y="0" type="line"/>
    </contour>
    <contour>
      <point x="809" y="579" type="line"/>
      <point x="838" y="745" type="line"/>
      <point x="160" y="745" type="line"/>
      <point x="131" y="579" type="line"/>
    </contour>
    <contour>
      <point x="524" y="1039" type="line"/>
      <point x="561" y="1254"/>
      <point x="719" y="1350"/>
      <point x="858" y="1350" type="curve" smooth="yes"/>
      <point x="989" y="1350"/>
      <point x="1103" y="1265"/>
      <point x="1059" y="1114" type="curve"/>
      <point x="1219" y="1068" type="line"/>
      <point x="1312" y="1289"/>
      <point x="1152" y="1510"/>
      <point x="876" y="1510" type="curve" smooth="yes"/>
      <point x="649" y="1510"/>
      <point x="396" y="1356"/>
      <point x="355" y="1039" type="curve" smooth="yes"/>
      <point x="271" y="407" type="line" smooth="yes"/>
      <point x="259" y="320"/>
      <point x="212" y="160"/>
      <point x="125" y="160" type="curve"/>
      <point x="300" y="119" type="line"/>
      <point x="387" y="175"/>
      <point x="428" y="285"/>
      <point x="442" y="407" type="curve" smooth="yes"/>
    </contour>
  </outline>
</glyph>
<glyph name="yen" format="2">
  <advance height="2479" width="1123"/>
  <unicode hex="00A5"/>
  <outline>
    <contour>
      <point x="384" y="1489" type="line"/>
      <point x="183" y="1489" type="line"/>
      <point x="477" y="602" type="line"/>
      <point x="628" y="660" type="line"/>
    </contour>
    <contour>
      <point x="529" y="660" type="line"/>
      <point x="657" y="602" type="line"/>
      <point x="1248" y="1489" type="line"/>
      <point x="1047" y="1489" type="line"/>
    </contour>
    <contour>
      <point x="689" y="783" type="line"/>
      <point x="509" y="783" type="line"/>
      <point x="378" y="0" type="line"/>
      <point x="559" y="0" type="line"/>
    </contour>
    <contour>
      <point x="1007" y="742" type="line"/>
      <point x="175" y="742" type="line"/>
      <point x="154" y="611" type="line"/>
      <point x="986" y="611" type="line"/>
    </contour>
    <contour>
      <point x="960" y="454" type="line"/>
      <point x="128" y="454" type="line"/>
      <point x="108" y="323" type="line"/>
      <point x="940" y="323" type="line"/>
    </contour>
  </outline>
</glyph>
<glyph name="dieresis" format="2">
  <advance height="2479" width="1210"/>
  <unicode hex="00A8"/>
  <anchor x="727" y="1303" name="_top"/>
  <anchor x="791" y="1676" name="top"/>
  <outline>
    <contour>
      <point x="528" y="1303" type="curve" smooth="yes"/>
      <point x="592" y="1303"/>
      <point x="644" y="1353"/>
      <point x="653" y="1408" type="curve" smooth="yes"/>
      <point x="665" y="1481"/>
      <point x="618" y="1536"/>
      <point x="545" y="1536" type="curve" smooth="yes"/>
      <point x="490" y="1536"/>
      <point x="432" y="1492"/>
      <point x="423" y="1431" type="curve" smooth="yes"/>
      <point x="414" y="1364"/>
      <point x="464" y="1303"/>
    </contour>
    <contour>
      <point x="947" y="1303" type="curve" smooth="yes"/>
      <point x="1011" y="1303"/>
      <point x="1063" y="1353"/>
      <point x="1072" y="1408" type="curve" smooth="yes"/>
      <point x="1084" y="1481"/>
      <point x="1037" y="1536"/>
      <point x="964" y="1536" type="curve" smooth="yes"/>
      <point x="909" y="1536"/>
      <point x="852" y="1492"/>
      <point x="842" y="1431" type="curve" smooth="yes"/>
      <point x="831" y="1361"/>
      <point x="883" y="1303"/>
    </contour>
  </outline>
</glyph>
<glyph name="copyright" format="2">
  <advance height="2479" width="1873"/>
  <unicode hex="00A9"/>
  <outline>
    <contour>
      <point x="543" y="745" type="curve" smooth="yes"/>
      <point x="503" y="506"/>
      <point x="665" y="313"/>
      <point x="903" y="313" type="curve" smooth="yes"/>
      <point x="1110" y="313"/>
      <point x="1293" y="458"/>
      <point x="1353" y="652" type="curve"/>
      <point x="1177" y="652" type="line"/>
      <point x="1139" y="553"/>
      <point x="1029" y="481"/>
      <point x="916" y="481" type="curve" smooth="yes"/>
      <point x="772" y="481"/>
      <point x="689" y="609"/>
      <point x="711" y="745" type="curve" smooth="yes"/>
      <point x="736" y="900"/>
      <point x="890" y="1008"/>
      <point x="1033" y="1008" type="curve" smooth="yes"/>
      <point x="1148" y="1008"/>
      <point x="1219" y="938"/>
      <point x="1222" y="838" type="curve"/>
      <point x="1398" y="838" type="line"/>
      <point x="1402" y="1031"/>
      <point x="1252" y="1177"/>
      <point x="1046" y="1177" type="curve" smooth="yes"/>
      <point x="807" y="1177"/>
      <point x="582" y="983"/>
    </contour>
    <component base="whiteCircle" xOffset="1"/>
  </outline>
</glyph>
<glyph name="ordfeminine" format="2">
  <advance height="2479" width="919"/>
  <unicode hex="00AA"/>
  <outline>
    <contour>
      <point x="631" y="861" type="line"/>
      <point x="623" y="809"/>
      <point x="623" y="753"/>
      <point x="628" y="707" type="curve"/>
      <point x="806" y="707" type="line"/>
      <point x="797" y="765"/>
      <point x="800" y="823"/>
      <point x="812" y="887" type="curve" smooth="yes"/>
      <point x="864" y="1201" type="line"/>
      <point x="893" y="1385"/>
      <point x="791" y="1478"/>
      <point x="617" y="1478" type="curve" smooth="yes"/>
      <point x="428" y="1478"/>
      <point x="291" y="1379"/>
      <point x="268" y="1245" type="curve"/>
      <point x="436" y="1231" type="line"/>
      <point x="448" y="1295"/>
      <point x="506" y="1329"/>
      <point x="593" y="1329" type="curve" smooth="yes"/>
      <point x="672" y="1329"/>
      <point x="701" y="1286"/>
      <point x="689" y="1201" type="curve"/>
    </contour>
    <contour>
      <point x="724" y="1152" type="line"/>
      <point x="579" y="1152" type="line"/>
      <point x="349" y="1152"/>
      <point x="221" y="1068"/>
      <point x="198" y="919" type="curve" smooth="yes"/>
      <point x="175" y="783"/>
      <point x="250" y="692"/>
      <point x="410" y="692" type="curve" smooth="yes"/>
      <point x="547" y="692"/>
      <point x="634" y="771"/>
      <point x="675" y="835" type="curve"/>
      <point x="675" y="951" type="line"/>
      <point x="669" y="902"/>
      <point x="559" y="838"/>
      <point x="477" y="838" type="curve" smooth="yes"/>
      <point x="396" y="838"/>
      <point x="367" y="870"/>
      <point x="375" y="925" type="curve" smooth="yes"/>
      <point x="384" y="983"/>
      <point x="442" y="1036"/>
      <point x="559" y="1036" type="curve"/>
      <point x="704" y="1036" type="line"/>
    </contour>
  </outline>
</glyph>
<glyph name="degree" format="2">
  <advance height="2479" width="931"/>
  <unicode hex="00B0"/>
  <outline>
    <contour>
      <point x="566" y="832" type="curve" smooth="yes"/>
      <point x="751" y="832"/>
      <point x="900" y="982"/>
      <point x="900" y="1167" type="curve" smooth="yes"/>
      <point x="900" y="1351"/>
      <point x="751" y="1501"/>
      <point x="566" y="1501" type="curve" smooth="yes"/>
      <point x="381" y="1501"/>
      <point x="231" y="1351"/>
      <point x="231" y="1167" type="curve" smooth="yes"/>
      <point x="231" y="982"/>
      <point x="381" y="832"/>
    </contour>
    <contour>
      <point x="566" y="977" type="curve" smooth="yes"/>
      <point x="461" y="977"/>
      <point x="377" y="1062"/>
      <point x="377" y="1167" type="curve" smooth="yes"/>
      <point x="377" y="1271"/>
      <point x="461" y="1356"/>
      <point x="566" y="1356" type="curve" smooth="yes"/>
      <point x="671" y="1356"/>
      <point x="755" y="1271"/>
      <point x="755" y="1167" type="curve" smooth="yes"/>
      <point x="755" y="1062"/>
      <point x="671" y="977"/>
    </contour>
  </outline>
</glyph>
<glyph name="plusminus" format="2">
  <advance height="2479" width="1350"/>
  <unicode hex="00B1"/>
  <outline>
    <contour>
      <point x="125" y="70" type="line"/>
      <point x="1062" y="70" type="line"/>
      <point x="1088" y="233" type="line"/>
      <point x="151" y="233" type="line"/>
    </contour>
    <contour>
      <point x="224" y="657" type="line"/>
      <point x="1161" y="657" type="line"/>
      <point x="1187" y="820" type="line"/>
      <point x="250" y="820" type="line"/>
    </contour>
    <contour>
      <point x="561" y="361" type="line"/>
      <point x="724" y="361" type="line"/>
      <point x="849" y="1117" type="line"/>
      <point x="687" y="1117" type="line"/>
    </contour>
  </outline>
</glyph>
<glyph name="threesuperior" format="2">
  <advance height="2479" width="879"/>
  <unicode hex="00B3"/>
  <outline>
    <contour>
      <point x="474" y="733" type="curve" smooth="yes"/>
      <point x="675" y="733"/>
      <point x="841" y="832"/>
      <point x="867" y="986" type="curve" smooth="yes"/>
      <point x="884" y="1100"/>
      <point x="812" y="1184"/>
      <point x="681" y="1204" type="curve"/>
      <point x="681" y="1210" type="line"/>
      <point x="803" y="1231"/>
      <point x="881" y="1289"/>
      <point x="899" y="1393" type="curve" smooth="yes"/>
      <point x="922" y="1536"/>
      <point x="815" y="1649"/>
      <point x="614" y="1649" type="curve" smooth="yes"/>
      <point x="436" y="1649"/>
      <point x="276" y="1548"/>
      <point x="247" y="1391" type="curve"/>
      <point x="399" y="1391" type="line"/>
      <point x="413" y="1472"/>
      <point x="515" y="1524"/>
      <point x="611" y="1524" type="curve" smooth="yes"/>
      <point x="719" y="1524"/>
      <point x="762" y="1475"/>
      <point x="748" y="1393" type="curve" smooth="yes"/>
      <point x="736" y="1324"/>
      <point x="646" y="1260"/>
      <point x="532" y="1260" type="curve" smooth="yes"/>
      <point x="463" y="1260" type="line"/>
      <point x="445" y="1143" type="line"/>
      <point x="518" y="1143" type="line" smooth="yes"/>
      <point x="649" y="1143"/>
      <point x="721" y="1094"/>
      <point x="707" y="1009" type="curve" smooth="yes"/>
      <point x="692" y="928"/>
      <point x="596" y="864"/>
      <point x="480" y="864" type="curve" smooth="yes"/>
      <point x="375" y="864"/>
      <point x="305" y="916"/>
      <point x="317" y="995" type="curve"/>
      <point x="160" y="995" type="line"/>
      <point x="137" y="841"/>
      <point x="268" y="733"/>
    </contour>
  </outline>
</glyph>
<glyph name="acute" format="2">
  <advance height="2479" width="1018"/>
  <unicode hex="00B4"/>
  <anchor x="609" y="1303" name="_top"/>
  <anchor x="694" y="1676" name="top"/>
  <outline>
    <contour>
      <point x="525" y="1268" type="line"/>
      <point x="676" y="1268" type="line"/>
      <point x="959" y="1606" type="line"/>
      <point x="758" y="1606" type="line"/>
    </contour>
  </outline>
</glyph>
<glyph name="micro" format="2">
  <advance height="2479" width="1274"/>
  <unicode hex="00B5"/>
  <outline>
    <contour>
      <point x="-6" y="-419" type="line"/>
      <point x="166" y="-419" type="line"/>
      <point x="265" y="166" type="line"/>
      <point x="273" y="166" type="line"/>
      <point x="314" y="49"/>
      <point x="419" y="-15"/>
      <point x="541" y="-15" type="curve" smooth="yes"/>
      <point x="666" y="-15"/>
      <point x="791" y="49"/>
      <point x="873" y="166" type="curve"/>
      <point x="881" y="166" type="line"/>
      <point x="852" y="0" type="line"/>
      <point x="1024" y="0" type="line"/>
      <point x="1210" y="1117" type="line"/>
      <point x="1039" y="1117" type="line"/>
      <point x="928" y="457" type="line" smooth="yes"/>
      <point x="899" y="276"/>
      <point x="756" y="151"/>
      <point x="570" y="151" type="curve" smooth="yes"/>
      <point x="384" y="151"/>
      <point x="282" y="276"/>
      <point x="311" y="457" type="curve" smooth="yes"/>
      <point x="422" y="1117" type="line"/>
      <point x="250" y="1117" type="line"/>
    </contour>
  </outline>
</glyph>
<glyph name="paragraph" format="2">
  <advance height="2479" width="1228"/>
  <unicode hex="00B6"/>
  <outline>
    <contour>
      <point x="1172" y="1329" type="line"/>
      <point x="1199" y="1489" type="line"/>
      <point x="756" y="1489" type="line" smooth="yes"/>
      <point x="439" y="1489"/>
      <point x="233" y="1289"/>
      <point x="186" y="1021" type="curve" smooth="yes"/>
      <point x="143" y="751"/>
      <point x="285" y="553"/>
      <point x="602" y="553" type="curve" smooth="yes"/>
      <point x="687" y="553" type="line"/>
      <point x="815" y="1329" type="line"/>
    </contour>
    <contour>
      <point x="774" y="0" type="line"/>
      <point x="954" y="0" type="line"/>
      <point x="1201" y="1489" type="line"/>
      <point x="1021" y="1489" type="line"/>
    </contour>
  </outline>
</glyph>
<glyph name="cedilla" format="2">
  <advance height="2479" width="547"/>
  <unicode hex="00B8"/>
  <anchor x="186" y="0" name="_cedilla"/>
  <outline>
    <contour>
      <point x="113" y="6" type="line"/>
      <point x="58" y="-137" type="line"/>
      <point x="169" y="-145"/>
      <point x="212" y="-163"/>
      <point x="201" y="-230" type="curve" smooth="yes"/>
      <point x="189" y="-297"/>
      <point x="119" y="-323"/>
      <point x="29" y="-323" type="curve"/>
      <point x="15" y="-436" type="line"/>
      <point x="215" y="-436"/>
      <point x="335" y="-349"/>
      <point x="355" y="-224" type="curve" smooth="yes"/>
      <point x="375" y="-111"/>
      <point x="308" y="-64"/>
      <point x="233" y="-52" type="curve"/>
      <point x="256" y="6" type="line"/>
    </contour>
  </outline>
</glyph>
<glyph name="onesuperior" format="2">
  <advance height="2479" width="641"/>
  <unicode hex="00B9"/>
  <outline>
    <contour>
      <point x="349" y="745" type="line"/>
      <point x="500" y="745" type="line"/>
      <point x="649" y="1638" type="line"/>
      <point x="497" y="1638" type="line"/>
      <point x="234" y="1481" type="line"/>
      <point x="208" y="1327" type="line"/>
      <point x="464" y="1479" type="line"/>
      <point x="471" y="1479" type="line"/>
    </contour>
  </outline>
</glyph>
<glyph name="ordmasculine" format="2">
  <advance height="2479" width="919"/>
  <unicode hex="00BA"/>
  <outline>
    <contour>
      <point x="195" y="1044" type="line"/>
      <point x="160" y="838"/>
      <point x="271" y="692"/>
      <point x="486" y="692" type="curve" smooth="yes"/>
      <point x="698" y="692"/>
      <point x="852" y="838"/>
      <point x="887" y="1044" type="curve"/>
      <point x="899" y="1123" type="line"/>
      <point x="934" y="1329"/>
      <point x="826" y="1478"/>
      <point x="611" y="1478" type="curve" smooth="yes"/>
      <point x="399" y="1478"/>
      <point x="241" y="1329"/>
      <point x="207" y="1123" type="curve"/>
    </contour>
    <contour>
      <point x="381" y="1123" type="line"/>
      <point x="401" y="1239"/>
      <point x="474" y="1329"/>
      <point x="588" y="1329" type="curve" smooth="yes"/>
      <point x="704" y="1329"/>
      <point x="745" y="1239"/>
      <point x="724" y="1123" type="curve"/>
      <point x="713" y="1044" type="line"/>
      <point x="692" y="925"/>
      <point x="623" y="838"/>
      <point x="509" y="838" type="curve" smooth="yes"/>
      <point x="393" y="838"/>
      <point x="349" y="925"/>
      <point x="369" y="1044" type="curve"/>
    </contour>
  </outline>
</glyph>
<glyph name="AE" format="2">
  <advance height="2479" width="2028"/>
  <unicode hex="00C6"/>
  <anchor x="1510" y="1676" name="top"/>
  <outline>
    <contour>
      <point x="-41" y="0" type="line"/>
      <point x="157" y="0" type="line"/>
      <point x="1004" y="1329" type="line"/>
      <point x="1111" y="1329" type="line"/>
      <point x="890" y="0" type="line"/>
      <point x="1801" y="0" type="line"/>
      <point x="1827" y="160" type="line"/>
      <point x="1097" y="160" type="line"/>
      <point x="1181" y="666" type="line"/>
      <point x="1853" y="666" type="line"/>
      <point x="1879" y="826" type="line"/>
      <point x="1207" y="826" type="line"/>
      <point x="1292" y="1329" type="line"/>
      <point x="2010" y="1329" type="line"/>
      <point x="2036" y="1489" type="line"/>
      <point x="928" y="1489" type="line"/>
    </contour>
    <contour>
      <point x="349" y="422" type="line"/>
      <point x="1053" y="422" type="line"/>
      <point x="1079" y="582" type="line"/>
      <point x="375" y="582" type="line"/>
    </contour>
  </outline>
</glyph>
<glyph name="Oslash" format="2">
  <advance height="2479" width="1559"/>
  <unicode hex="00D8"/>
  <anchor x="697" y="3" name="bottom"/>
  <anchor x="840" y="-3" name="ogonek"/>
  <anchor x="328" y="1486" name="tonos"/>
  <anchor x="962" y="1673" name="top"/>
  <outline>
    <contour>
      <point x="348" y="-61" type="line"/>
      <point x="1384" y="1472" type="line"/>
      <point x="1273" y="1548" type="line"/>
      <point x="238" y="15" type="line"/>
    </contour>
    <component base="O" xOffset="-1" yOffset="-3"/>
  </outline>
</glyph>
<glyph name="Thorn" format="2">
  <advance height="2479" width="1292"/>
  <unicode hex="00DE"/>
  <outline>
    <contour>
      <point x="323" y="1489" type="line"/>
      <point x="76" y="0" type="line"/>
      <point x="256" y="0" type="line"/>
      <point x="503" y="1489" type="line"/>
    </contour>
    <contour>
      <point x="355" y="1181" type="line"/>
      <point x="329" y="1021" type="line"/>
      <point x="713" y="1021" type="line" smooth="yes"/>
      <point x="919" y="1021"/>
      <point x="1018" y="919"/>
      <point x="989" y="751" type="curve" smooth="yes"/>
      <point x="960" y="582"/>
      <point x="832" y="486"/>
      <point x="625" y="486" type="curve" smooth="yes"/>
      <point x="241" y="486" type="line"/>
      <point x="215" y="326" type="line"/>
      <point x="599" y="326" type="line" smooth="yes"/>
      <point x="916" y="326"/>
      <point x="1123" y="518"/>
      <point x="1161" y="753" type="curve" smooth="yes"/>
      <point x="1201" y="989"/>
      <point x="1056" y="1181"/>
      <point x="739" y="1181" type="curve" smooth="yes"/>
    </contour>
  </outline>
</glyph>
<glyph name="ae" format="2">
  <advance height="2479" width="1942"/>
  <unicode hex="00E6"/>
  <anchor x="1056" y="1303" name="top"/>
  <outline>
    <contour>
      <point x="1231" y="-23" type="curve"/>
      <point x="1457" y="-23"/>
      <point x="1641" y="90"/>
      <point x="1722" y="259" type="curve"/>
      <point x="1565" y="305" type="line"/>
      <point x="1501" y="189"/>
      <point x="1391" y="131"/>
      <point x="1257" y="131" type="curve" smooth="yes"/>
      <point x="1050" y="131"/>
      <point x="931" y="271"/>
      <point x="972" y="524" type="curve" smooth="yes"/>
      <point x="989" y="623" type="line" smooth="yes"/>
      <point x="1018" y="806"/>
      <point x="1172" y="977"/>
      <point x="1379" y="977" type="curve"/>
      <point x="1565" y="977"/>
      <point x="1661" y="838"/>
      <point x="1629" y="649" type="curve"/>
      <point x="943" y="649" type="line"/>
      <point x="919" y="500" type="line"/>
      <point x="1780" y="500" type="line"/>
      <point x="1792" y="573" type="line" smooth="yes"/>
      <point x="1862" y="989"/>
      <point x="1638" y="1132"/>
      <point x="1405" y="1132" type="curve" smooth="yes"/>
      <point x="1207" y="1132"/>
      <point x="1050" y="1030"/>
      <point x="948" y="861" type="curve"/>
      <point x="826" y="305" type="line"/>
      <point x="832" y="111"/>
      <point x="983" y="-23"/>
    </contour>
    <contour>
      <point x="439" y="128" type="curve" smooth="yes"/>
      <point x="303" y="128"/>
      <point x="215" y="189"/>
      <point x="236" y="308" type="curve" smooth="yes"/>
      <point x="256" y="439"/>
      <point x="384" y="480"/>
      <point x="521" y="497" type="curve" smooth="yes"/>
      <point x="593" y="506"/>
      <point x="791" y="527"/>
      <point x="826" y="561" type="curve"/>
      <point x="800" y="404" type="line" smooth="yes"/>
      <point x="777" y="265"/>
      <point x="643" y="128"/>
    </contour>
    <contour>
      <point x="390" y="-26" type="curve" smooth="yes"/>
      <point x="585" y="-26"/>
      <point x="774" y="79"/>
      <point x="838" y="204" type="curve"/>
      <point x="852" y="204" type="line"/>
      <point x="1033" y="887" type="line"/>
      <point x="1001" y="1103"/>
      <point x="800" y="1132"/>
      <point x="681" y="1132" type="curve" smooth="yes"/>
      <point x="512" y="1132"/>
      <point x="308" y="1073"/>
      <point x="189" y="870" type="curve"/>
      <point x="340" y="812" type="line"/>
      <point x="393" y="893"/>
      <point x="497" y="980"/>
      <point x="660" y="980" type="curve" smooth="yes"/>
      <point x="817" y="980"/>
      <point x="881" y="896"/>
      <point x="858" y="753" type="curve" smooth="yes"/>
      <point x="858" y="748" type="line" smooth="yes"/>
      <point x="844" y="666"/>
      <point x="759" y="672"/>
      <point x="553" y="646" type="curve" smooth="yes"/>
      <point x="340" y="620"/>
      <point x="108" y="573"/>
      <point x="64" y="317" type="curve" smooth="yes"/>
      <point x="29" y="99"/>
      <point x="177" y="-26"/>
    </contour>
  </outline>
</glyph>
<glyph name="oslash" format="2">
  <advance height="2479" width="1222"/>
  <unicode hex="00F8"/>
  <anchor x="519" y="0" name="bottom"/>
  <anchor x="647" y="0" name="ogonek"/>
  <anchor x="735" y="1303" name="top"/>
  <outline>
    <contour>
      <point x="175" y="-61" type="line"/>
      <point x="1143" y="1094" type="line"/>
      <point x="1047" y="1169" type="line"/>
      <point x="76" y="15" type="line"/>
    </contour>
    <component base="o"/>
  </outline>
</glyph>
<glyph name="thorn" format="2">
  <advance height="2479" width="1248"/>
  <unicode hex="00FE"/>
  <outline>
    <contour>
      <point x="311" y="1489" type="line"/>
      <point x="-6" y="-419" type="line"/>
      <point x="166" y="-419" type="line"/>
      <point x="271" y="209" type="line"/>
      <point x="288" y="570" type="line"/>
      <point x="378" y="852" type="line"/>
      <point x="483" y="1489" type="line"/>
    </contour>
    <contour>
      <point x="323" y="940" type="line"/>
      <point x="195" y="172" type="line"/>
      <point x="279" y="172" type="line"/>
      <point x="308" y="111"/>
      <point x="358" y="-23"/>
      <point x="573" y="-23" type="curve" smooth="yes"/>
      <point x="852" y="-23"/>
      <point x="1085" y="201"/>
      <point x="1143" y="556" type="curve" smooth="yes"/>
      <point x="1201" y="908"/>
      <point x="1044" y="1132"/>
      <point x="762" y="1132" type="curve" smooth="yes"/>
      <point x="544" y="1132"/>
      <point x="454" y="998"/>
      <point x="407" y="940" type="curve"/>
    </contour>
    <contour>
      <point x="972" y="559" type="curve" smooth="yes"/>
      <point x="931" y="320"/>
      <point x="791" y="131"/>
      <point x="576" y="131" type="curve" smooth="yes"/>
      <point x="369" y="131"/>
      <point x="285" y="305"/>
      <point x="326" y="559" type="curve" smooth="yes"/>
      <point x="367" y="809"/>
      <point x="506" y="977"/>
      <point x="716" y="977" type="curve" smooth="yes"/>
      <point x="934" y="977"/>
      <point x="1009" y="794"/>
    </contour>
  </outline>
</glyph>
<glyph name="dcroat" format="2">
  <advance height="2479" width="1274"/>
  <unicode hex="0111"/>
  <anchor x="521" y="0" name="bottom"/>
  <anchor x="1126" y="1280" name="cross"/>
  <anchor x="1404" y="1489" name="raccent"/>
  <anchor x="748" y="1489" name="top"/>
  <outline>
    <contour>
      <point x="720" y="1214" type="line"/>
      <point x="1360" y="1214" type="line"/>
      <point x="1383" y="1347" type="line"/>
      <point x="743" y="1347" type="line"/>
    </contour>
    <component base="d"/>
  </outline>
</glyph>
<glyph name="Hbar" format="2">
  <advance height="2479" width="1593"/>
  <unicode hex="0126"/>
  <anchor x="701" y="0" name="bottom"/>
  <anchor x="236" y="0" name="cedilla"/>
  <anchor x="1359" y="64" name="cyrtic"/>
  <anchor x="1277" y="0" name="right"/>
  <anchor x="332" y="1489" name="tonos"/>
  <anchor x="989" y="1679" name="top"/>
  <outline>
    <contour>
      <point x="1594" y="1175" type="line"/>
      <point x="201" y="1175" type="line"/>
      <point x="177" y="1024" type="line"/>
      <point x="1571" y="1024" type="line"/>
    </contour>
    <component base="H" xOffset="38"/>
  </outline>
</glyph>
<glyph name="lslash" format="2">
  <advance height="2479" width="486"/>
  <unicode hex="0142"/>
  <anchor x="150" y="0" name="bottom"/>
  <anchor x="279" y="768" name="cross"/>
  <anchor x="625" y="1489" name="raccent"/>
  <anchor x="428" y="1676" name="top"/>
  <outline>
    <contour>
      <point x="550" y="931" type="line"/>
      <point x="29" y="745" type="line"/>
      <point x="6" y="617" type="line"/>
      <point x="529" y="803" type="line"/>
    </contour>
    <component base="l"/>
  </outline>
</glyph>
<glyph name="eng" format="2">
  <advance height="2479" width="1199"/>
  <unicode hex="014B"/>
  <anchor x="506" y="0" name="bottom"/>
  <anchor x="721" y="1303" name="top"/>
  <outline>
    <contour>
      <point x="777" y="0" type="line"/>
      <point x="756" y="-119" type="line" smooth="yes"/>
      <point x="737" y="-235"/>
      <point x="663" y="-271"/>
      <point x="570" y="-271" type="curve" smooth="yes"/>
      <point x="550" y="-271"/>
      <point x="529" y="-268"/>
      <point x="515" y="-265" type="curve"/>
      <point x="492" y="-410" type="line"/>
      <point x="515" y="-419"/>
      <point x="553" y="-419"/>
      <point x="588" y="-419" type="curve" smooth="yes"/>
      <point x="751" y="-419"/>
      <point x="895" y="-311"/>
      <point x="928" y="-119" type="curve" smooth="yes"/>
      <point x="948" y="0" type="line"/>
    </contour>
    <component base="n"/>
  </outline>
</glyph>
<glyph name="OE" format="2">
  <advance height="2479" width="1950"/>
  <unicode hex="0152"/>
  <anchor x="1246" y="0" name="bottom"/>
  <anchor x="1249" y="0" name="cedilla"/>
  <anchor x="1723" y="0" name="ogonek"/>
  <anchor x="1013" y="1489" name="tonos"/>
  <anchor x="1540" y="1676" name="top"/>
  <outline>
    <contour>
      <point x="684" y="0" type="curve" smooth="yes"/>
      <point x="885" y="0" type="line"/>
      <point x="914" y="160" type="line"/>
      <point x="713" y="160" type="line" smooth="yes"/>
      <point x="424" y="160"/>
      <point x="268" y="396"/>
      <point x="327" y="745" type="curve" smooth="yes"/>
      <point x="385" y="1097"/>
      <point x="617" y="1329"/>
      <point x="905" y="1329" type="curve" smooth="yes"/>
      <point x="1106" y="1329" type="line"/>
      <point x="1132" y="1489" type="line"/>
      <point x="932" y="1489" type="line" smooth="yes"/>
      <point x="540" y="1489"/>
      <point x="225" y="1193"/>
      <point x="152" y="745" type="curve" smooth="yes"/>
      <point x="78" y="300"/>
      <point x="293" y="0"/>
    </contour>
    <component base="E" xOffset="725"/>
  </outline>
</glyph>
<glyph name="Bhook" format="2">
  <advance height="2479" width="1643"/>
  <unicode hex="0181"/>
  <anchor x="864" y="0" name="bottom"/>
  <anchor x="1134" y="1676" name="top"/>
  <outline>
    <contour>
      <point x="669" y="1329" type="line"/>
      <point x="695" y="1489" type="line"/>
      <point x="550" y="1489" type="line" smooth="yes"/>
      <point x="359" y="1489"/>
      <point x="228" y="1356"/>
      <point x="204" y="1193" type="curve" smooth="yes"/>
      <point x="189" y="1094" type="line"/>
      <point x="358" y="1094" type="line"/>
      <point x="367" y="1149" type="line" smooth="yes"/>
      <point x="381" y="1242"/>
      <point x="411" y="1329"/>
      <point x="527" y="1329" type="curve" smooth="yes"/>
    </contour>
    <component base="B" xOffset="311"/>
  </outline>
</glyph>
<glyph name="Btopbar" format="2">
  <advance height="2479" width="1337"/>
  <unicode hex="0182"/>
  <outline>
    <contour>
      <point x="87" y="0" type="line"/>
      <point x="646" y="0" type="line" smooth="yes"/>
      <point x="967" y="0"/>
      <point x="1171" y="180"/>
      <point x="1213" y="439" type="curve" smooth="yes"/>
      <point x="1257" y="698"/>
      <point x="1110" y="864"/>
      <point x="788" y="864" type="curve" smooth="yes"/>
      <point x="410" y="864" type="line"/>
      <point x="489" y="1329" type="line"/>
      <point x="1207" y="1329" type="line"/>
      <point x="1233" y="1489" type="line"/>
      <point x="335" y="1489" type="line"/>
    </contour>
    <contour>
      <point x="294" y="157" type="line"/>
      <point x="384" y="704" type="line"/>
      <point x="762" y="704" type="line" smooth="yes"/>
      <point x="967" y="704"/>
      <point x="1060" y="585"/>
      <point x="1036" y="442" type="curve" smooth="yes"/>
      <point x="1012" y="297"/>
      <point x="876" y="157"/>
      <point x="672" y="157" type="curve" smooth="yes"/>
    </contour>
  </outline>
</glyph>
<glyph name="btopbar" format="2">
  <advance height="2479" width="1271"/>
  <unicode hex="0183"/>
  <anchor x="556" y="0" name="bottom"/>
  <anchor x="387" y="1280" name="cross"/>
  <anchor x="803" y="1303" name="top"/>
  <outline>
    <contour>
      <point x="1172" y="1489" type="line"/>
      <point x="483" y="1489" type="line"/>
      <point x="454" y="1329" type="line"/>
      <point x="1146" y="1329" type="line"/>
    </contour>
    <component base="b"/>
  </outline>
</glyph>
<glyph name="Tonesix" format="2">
  <advance height="2479" width="1463"/>
  <unicode hex="0184"/>
  <outline>
    <contour>
      <point x="704" y="1489" type="line"/>
      <point x="175" y="1489" type="line"/>
      <point x="148" y="1329" type="line"/>
      <point x="678" y="1329" type="line"/>
    </contour>
    <contour>
      <point x="553" y="864" type="line"/>
      <point x="527" y="704" type="line"/>
      <point x="951" y="704" type="line"/>
      <point x="1155" y="704"/>
      <point x="1248" y="585"/>
      <point x="1225" y="442" type="curve"/>
      <point x="1201" y="297"/>
      <point x="1065" y="157"/>
      <point x="861" y="157" type="curve"/>
      <point x="483" y="157" type="line"/>
      <point x="704" y="1489" type="line"/>
      <point x="524" y="1489" type="line"/>
      <point x="276" y="0" type="line"/>
      <point x="835" y="0" type="line"/>
      <point x="1155" y="0"/>
      <point x="1359" y="180"/>
      <point x="1402" y="439" type="curve"/>
      <point x="1446" y="698"/>
      <point x="1297" y="864"/>
      <point x="977" y="864" type="curve"/>
    </contour>
  </outline>
</glyph>
<glyph name="tonesix" format="2">
  <advance height="2479" width="1181"/>
  <unicode hex="0185"/>
  <outline>
    <contour>
      <point x="641" y="-23" type="curve" smooth="yes"/>
      <point x="840" y="-23"/>
      <point x="1007" y="140"/>
      <point x="1053" y="415" type="curve" smooth="yes"/>
      <point x="1098" y="693"/>
      <point x="964" y="847"/>
      <point x="783" y="848" type="curve" smooth="yes"/>
      <point x="644" y="847"/>
      <point x="556" y="755"/>
      <point x="511" y="671" type="curve"/>
      <point x="503" y="671" type="line"/>
      <point x="577" y="1117" type="line"/>
      <point x="412" y="1117" type="line"/>
      <point x="393" y="1008" type="line"/>
      <point x="387" y="1008" type="line"/>
      <point x="218" y="0" type="line"/>
      <point x="384" y="0" type="line"/>
      <point x="401" y="128" type="line"/>
      <point x="413" y="128" type="line"/>
      <point x="436" y="32"/>
      <point x="519" y="-23"/>
    </contour>
    <contour>
      <point x="615" y="131" type="curve" smooth="yes"/>
      <point x="480" y="131"/>
      <point x="428" y="239"/>
      <point x="458" y="419" type="curve" smooth="yes"/>
      <point x="484" y="582"/>
      <point x="579" y="694"/>
      <point x="710" y="694" type="curve" smooth="yes"/>
      <point x="847" y="694"/>
      <point x="911" y="578"/>
      <point x="881" y="406" type="curve" smooth="yes"/>
      <point x="855" y="241"/>
      <point x="745" y="131"/>
    </contour>
    <contour>
      <point x="193" y="745" type="line"/>
      <point x="503" y="1008" type="line"/>
      <point x="412" y="1117" type="line"/>
      <point x="102" y="854" type="line"/>
    </contour>
  </outline>
</glyph>
<glyph name="Chook" format="2">
  <advance height="2479" width="1580"/>
  <unicode hex="0187"/>
  <anchor x="695" y="-12" name="cedilla"/>
  <anchor x="969" y="1676" name="top"/>
  <outline>
    <contour>
      <point x="1455" y="1024" type="line"/>
      <point x="1487" y="1210" type="line" smooth="yes"/>
      <point x="1506" y="1327"/>
      <point x="1581" y="1361"/>
      <point x="1673" y="1361" type="curve" smooth="yes"/>
      <point x="1695" y="1361"/>
      <point x="1714" y="1359"/>
      <point x="1728" y="1356" type="curve"/>
      <point x="1751" y="1501" type="line"/>
      <point x="1727" y="1510"/>
      <point x="1689" y="1510"/>
      <point x="1655" y="1510" type="curve" smooth="yes"/>
      <point x="1492" y="1510"/>
      <point x="1348" y="1402"/>
      <point x="1315" y="1210" type="curve" smooth="yes"/>
      <point x="1283" y="1024" type="line"/>
    </contour>
    <component base="C"/>
  </outline>
</glyph>
<glyph name="Dhook" format="2">
  <advance height="2479" width="1795"/>
  <unicode hex="018A"/>
  <anchor x="759" y="0" name="bottom"/>
  <anchor x="663" y="768" name="cross"/>
  <anchor x="1312" y="1676" name="top"/>
  <outline>
    <contour>
      <point x="189" y="1094" type="line"/>
      <point x="358" y="1094" type="line"/>
      <point x="367" y="1149" type="line" smooth="yes"/>
      <point x="381" y="1242"/>
      <point x="410" y="1329"/>
      <point x="527" y="1329" type="curve" smooth="yes"/>
      <point x="669" y="1329" type="line"/>
      <point x="695" y="1489" type="line"/>
      <point x="550" y="1489" type="line" smooth="yes"/>
      <point x="358" y="1489"/>
      <point x="227" y="1356"/>
      <point x="204" y="1193" type="curve" smooth="yes"/>
    </contour>
    <component base="D" xOffset="323"/>
  </outline>
</glyph>
<glyph name="dtopbar" format="2">
  <advance height="2479" width="1272"/>
  <unicode hex="018C"/>
  <anchor x="489" y="0" name="bottom"/>
  <anchor x="1123" y="1280" name="cross"/>
  <anchor x="708" y="1303" name="top"/>
  <outline>
    <contour>
      <point x="407" y="1489" type="line"/>
      <point x="381" y="1329" type="line"/>
      <point x="1071" y="1329" type="line"/>
      <point x="1097" y="1489" type="line"/>
    </contour>
    <contour>
      <point x="998" y="0" type="line"/>
      <point x="1245" y="1489" type="line"/>
      <point x="1073" y="1489" type="line"/>
      <point x="982" y="940" type="line"/>
      <point x="967" y="940" type="line"/>
      <point x="940" y="998"/>
      <point x="895" y="1132"/>
      <point x="676" y="1132" type="curve" smooth="yes"/>
      <point x="394" y="1132"/>
      <point x="162" y="908"/>
      <point x="105" y="556" type="curve" smooth="yes"/>
      <point x="46" y="201"/>
      <point x="204" y="-23"/>
      <point x="483" y="-23" type="curve" smooth="yes"/>
      <point x="698" y="-23"/>
      <point x="793" y="111"/>
      <point x="841" y="172" type="curve"/>
      <point x="861" y="172" type="line"/>
      <point x="832" y="0" type="line"/>
    </contour>
    <contour>
      <point x="922" y="559" type="curve" smooth="yes"/>
      <point x="880" y="305"/>
      <point x="738" y="131"/>
      <point x="531" y="131" type="curve" smooth="yes"/>
      <point x="316" y="131"/>
      <point x="237" y="320"/>
      <point x="276" y="559" type="curve" smooth="yes"/>
      <point x="316" y="794"/>
      <point x="453" y="977"/>
      <point x="672" y="977" type="curve" smooth="yes"/>
      <point x="881" y="977"/>
      <point x="964" y="809"/>
    </contour>
  </outline>
</glyph>
<glyph name="deltaturned" format="2">
  <advance height="2479" width="1179"/>
  <unicode hex="018D"/>
  <outline>
    <contour>
      <point x="425" y="-451" type="curve" smooth="yes"/>
      <point x="639" y="-451"/>
      <point x="803" y="-343"/>
      <point x="830" y="-182" type="curve" smooth="yes"/>
      <point x="850" y="-55"/>
      <point x="789" y="58"/>
      <point x="674" y="108" type="curve"/>
      <point x="676" y="113" type="line"/>
      <point x="878" y="161"/>
      <point x="1039" y="345"/>
      <point x="1080" y="592" type="curve" smooth="yes"/>
      <point x="1132" y="907"/>
      <point x="971" y="1130"/>
      <point x="674" y="1130" type="curve" smooth="yes"/>
      <point x="387" y="1130"/>
      <point x="165" y="919"/>
      <point x="119" y="634" type="curve" smooth="yes"/>
      <point x="72" y="357"/>
      <point x="208" y="138"/>
      <point x="459" y="47" type="curve" smooth="yes"/>
      <point x="591" y="-9"/>
      <point x="673" y="-89"/>
      <point x="661" y="-161" type="curve" smooth="yes"/>
      <point x="648" y="-239"/>
      <point x="549" y="-297"/>
      <point x="437" y="-297" type="curve" smooth="yes"/>
      <point x="365" y="-297"/>
      <point x="263" y="-271"/>
      <point x="165" y="-228" type="curve"/>
      <point x="146" y="-397" type="line"/>
      <point x="223" y="-428"/>
      <point x="327" y="-451"/>
    </contour>
    <contour>
      <point x="519" y="201" type="curve"/>
      <point x="343" y="239"/>
      <point x="249" y="388"/>
      <point x="283" y="595" type="curve" smooth="yes"/>
      <point x="319" y="815"/>
      <point x="475" y="976"/>
      <point x="668" y="976" type="curve" smooth="yes"/>
      <point x="852" y="976"/>
      <point x="947" y="826"/>
      <point x="910" y="599" type="curve" smooth="yes"/>
      <point x="870" y="361"/>
      <point x="713" y="202"/>
    </contour>
  </outline>
</glyph>
<glyph name="Schwa" format="2">
  <advance height="2479" width="1566"/>
  <unicode hex="018F"/>
  <outline>
    <contour>
      <point x="696" y="-20" type="curve" smooth="yes"/>
      <point x="1087" y="-20"/>
      <point x="1397" y="268"/>
      <point x="1474" y="733" type="curve" smooth="yes"/>
      <point x="1553" y="1210"/>
      <point x="1328" y="1510"/>
      <point x="941" y="1510" type="curve" smooth="yes"/>
      <point x="632" y="1510"/>
      <point x="362" y="1312"/>
      <point x="260" y="1024" type="curve"/>
      <point x="446" y="1024" type="line"/>
      <point x="542" y="1220"/>
      <point x="713" y="1341"/>
      <point x="933" y="1341" type="curve" smooth="yes"/>
      <point x="1193" y="1341"/>
      <point x="1367" y="1137"/>
      <point x="1303" y="756" type="curve" smooth="yes"/>
      <point x="1239" y="364"/>
      <point x="985" y="148"/>
      <point x="704" y="148" type="curve" smooth="yes"/>
      <point x="453" y="148"/>
      <point x="309" y="316"/>
      <point x="354" y="591" type="curve"/>
      <point x="298" y="585" type="line"/>
      <point x="1371" y="585" type="line"/>
      <point x="1397" y="745" type="line"/>
      <point x="205" y="745" type="line"/>
      <point x="180" y="591" type="line" smooth="yes"/>
      <point x="118" y="222"/>
      <point x="336" y="-20"/>
    </contour>
  </outline>
</glyph>
<glyph name="Eopen" format="2">
  <advance height="2479" width="1292"/>
  <unicode hex="0190"/>
  <outline>
    <contour>
      <point x="554" y="-23" type="curve" smooth="yes"/>
      <point x="830" y="-23"/>
      <point x="1097" y="108"/>
      <point x="1146" y="404" type="curve"/>
      <point x="973" y="404" type="line"/>
      <point x="950" y="262"/>
      <point x="785" y="145"/>
      <point x="561" y="145" type="curve" smooth="yes"/>
      <point x="392" y="145"/>
      <point x="237" y="215"/>
      <point x="268" y="401" type="curve" smooth="yes"/>
      <point x="297" y="582"/>
      <point x="460" y="673"/>
      <point x="671" y="673" type="curve" smooth="yes"/>
      <point x="829" y="673" type="line"/>
      <point x="848" y="801" type="line"/>
      <point x="675" y="801" type="line"/>
      <point x="349" y="801"/>
      <point x="138" y="672"/>
      <point x="95" y="413" type="curve" smooth="yes"/>
      <point x="44" y="108"/>
      <point x="274" y="-23"/>
    </contour>
    <contour>
      <point x="671" y="711" type="curve"/>
      <point x="833" y="711" type="line"/>
      <point x="855" y="842" type="line"/>
      <point x="688" y="842" type="line" smooth="yes"/>
      <point x="472" y="842"/>
      <point x="389" y="959"/>
      <point x="410" y="1085" type="curve" smooth="yes"/>
      <point x="435" y="1235"/>
      <point x="587" y="1341"/>
      <point x="785" y="1341" type="curve" smooth="yes"/>
      <point x="971" y="1341"/>
      <point x="1087" y="1245"/>
      <point x="1063" y="1108" type="curve"/>
      <point x="1242" y="1108" type="line"/>
      <point x="1283" y="1356"/>
      <point x="1096" y="1510"/>
      <point x="801" y="1510" type="curve" smooth="yes"/>
      <point x="517" y="1510"/>
      <point x="276" y="1363"/>
      <point x="234" y="1114" type="curve" smooth="yes"/>
      <point x="193" y="863"/>
      <point x="380" y="712"/>
    </contour>
  </outline>
</glyph>
<glyph name="Fhook" format="2">
  <advance height="2479" width="1201"/>
  <unicode hex="0191"/>
  <anchor x="468" y="12" name="bottom"/>
  <anchor x="236" y="349" name="cross"/>
  <anchor x="832" y="1676" name="top"/>
  <outline>
    <contour>
      <point x="87" y="0" type="line"/>
      <point x="70" y="-116" type="line" smooth="yes"/>
      <point x="52" y="-237"/>
      <point x="-26" y="-268"/>
      <point x="-111" y="-268" type="curve" smooth="yes"/>
      <point x="-137" y="-268"/>
      <point x="-157" y="-265"/>
      <point x="-172" y="-262" type="curve"/>
      <point x="-195" y="-410" type="line"/>
      <point x="-166" y="-419"/>
      <point x="-145" y="-419"/>
      <point x="-128" y="-419" type="curve" smooth="yes"/>
      <point x="76" y="-419"/>
      <point x="215" y="-313"/>
      <point x="247" y="-119" type="curve" smooth="yes"/>
      <point x="268" y="0" type="line"/>
    </contour>
    <component base="F"/>
  </outline>
</glyph>
<glyph name="florin" format="2">
  <advance height="2479" width="791"/>
  <unicode hex="0192"/>
  <outline>
    <contour>
      <point x="751" y="1082" type="line"/>
      <point x="547" y="1082" type="line"/>
      <point x="564" y="1193" type="line" smooth="yes"/>
      <point x="585" y="1321"/>
      <point x="657" y="1385"/>
      <point x="774" y="1385" type="curve" smooth="yes"/>
      <point x="809" y="1385"/>
      <point x="835" y="1379"/>
      <point x="852" y="1373" type="curve"/>
      <point x="922" y="1530" type="line"/>
      <point x="887" y="1545"/>
      <point x="812" y="1556"/>
      <point x="756" y="1556" type="curve" smooth="yes"/>
      <point x="576" y="1556"/>
      <point x="422" y="1428"/>
      <point x="384" y="1193" type="curve" smooth="yes"/>
      <point x="367" y="1082" type="line"/>
      <point x="186" y="1082" type="line"/>
      <point x="160" y="934" type="line"/>
      <point x="340" y="934" type="line"/>
      <point x="175" y="-73" type="line" smooth="yes"/>
      <point x="156" y="-189"/>
      <point x="84" y="-259"/>
      <point x="6" y="-259" type="curve" smooth="yes"/>
      <point x="-12" y="-259"/>
      <point x="-70" y="-256"/>
      <point x="-90" y="-247" type="curve"/>
      <point x="-131" y="-404" type="line"/>
      <point x="-93" y="-416"/>
      <point x="-61" y="-419"/>
      <point x="-20" y="-419" type="curve" smooth="yes"/>
      <point x="183" y="-419"/>
      <point x="318" y="-297"/>
      <point x="355" y="-73" type="curve" smooth="yes"/>
      <point x="521" y="934" type="line"/>
      <point x="724" y="934" type="line"/>
    </contour>
  </outline>
</glyph>
<glyph name="Ghook" format="2">
  <advance height="2479" width="1583"/>
  <unicode hex="0193"/>
  <anchor x="676" y="0" name="bottom"/>
  <anchor x="958" y="1676" name="top"/>
  <outline>
    <contour>
      <point x="1457" y="1024" type="line"/>
      <point x="1484" y="1181" type="line" smooth="yes"/>
      <point x="1503" y="1297"/>
      <point x="1578" y="1332"/>
      <point x="1673" y="1332" type="curve" smooth="yes"/>
      <point x="1692" y="1332"/>
      <point x="1712" y="1329"/>
      <point x="1725" y="1327" type="curve"/>
      <point x="1748" y="1472" type="line"/>
      <point x="1725" y="1481"/>
      <point x="1687" y="1481"/>
      <point x="1652" y="1481" type="curve" smooth="yes"/>
      <point x="1466" y="1481"/>
      <point x="1352" y="1373"/>
      <point x="1309" y="1181" type="curve" smooth="yes"/>
      <point x="1274" y="1024" type="line"/>
    </contour>
    <component base="G"/>
  </outline>
</glyph>
<glyph name="hv" format="2">
  <advance height="2479" width="1983"/>
  <unicode hex="0195"/>
  <outline>
    <contour>
      <point x="64" y="0" type="line"/>
      <point x="236" y="0" type="line"/>
      <point x="346" y="672" type="line" smooth="yes"/>
      <point x="381" y="867"/>
      <point x="524" y="977"/>
      <point x="692" y="977" type="curve" smooth="yes"/>
      <point x="852" y="977"/>
      <point x="934" y="876"/>
      <point x="905" y="698" type="curve" smooth="yes"/>
      <point x="881" y="559" type="line"/>
      <point x="1053" y="559" type="line"/>
      <point x="1079" y="710" type="line" smooth="yes"/>
      <point x="1126" y="998"/>
      <point x="995" y="1132"/>
      <point x="768" y="1132" type="curve" smooth="yes"/>
      <point x="591" y="1132"/>
      <point x="477" y="1059"/>
      <point x="407" y="943" type="curve"/>
      <point x="393" y="943" type="line"/>
      <point x="483" y="1489" type="line"/>
      <point x="311" y="1489" type="line"/>
    </contour>
    <contour>
      <point x="1158" y="-20" type="curve" smooth="yes"/>
      <point x="1455" y="-20"/>
      <point x="1731" y="268"/>
      <point x="1847" y="966" type="curve" smooth="yes"/>
      <point x="1873" y="1117" type="line"/>
      <point x="1702" y="1117" type="line"/>
      <point x="1676" y="966" type="line" smooth="yes"/>
      <point x="1574" y="349"/>
      <point x="1376" y="131"/>
      <point x="1196" y="131" type="curve" smooth="yes"/>
      <point x="1108" y="131"/>
      <point x="989" y="180"/>
      <point x="1033" y="442" type="curve" smooth="yes"/>
      <point x="1053" y="559" type="line"/>
      <point x="881" y="559" type="line"/>
      <point x="861" y="442" type="line" smooth="yes"/>
      <point x="809" y="119"/>
      <point x="951" y="-20"/>
    </contour>
  </outline>
</glyph>
<glyph name="lambdastroke" format="2">
  <advance height="2479" width="1199"/>
  <unicode hex="019B"/>
  <outline>
    <contour>
      <point x="276" y="1062" type="line"/>
      <point x="799" y="1248" type="line"/>
      <point x="828" y="1420" type="line"/>
      <point x="304" y="1231" type="line"/>
    </contour>
    <component base="lambda"/>
  </outline>
</glyph>
<glyph name="Nhookleft" format="2">
  <advance height="2479" width="1557"/>
  <unicode hex="019D"/>
  <anchor x="692" y="0" name="bottom"/>
  <anchor x="1279" y="0" name="right"/>
  <anchor x="971" y="1676" name="top"/>
  <outline>
    <contour>
      <point x="101" y="0" type="line"/>
      <point x="81" y="-116" type="line" smooth="yes"/>
      <point x="60" y="-233"/>
      <point x="-13" y="-268"/>
      <point x="-108" y="-268" type="curve" smooth="yes"/>
      <point x="-127" y="-268"/>
      <point x="-147" y="-265"/>
      <point x="-164" y="-262" type="curve"/>
      <point x="-187" y="-410" type="line"/>
      <point x="-156" y="-417"/>
      <point x="-113" y="-422"/>
      <point x="-68" y="-422" type="curve" smooth="yes"/>
      <point x="95" y="-422"/>
      <point x="217" y="-326"/>
      <point x="258" y="-119" type="curve" smooth="yes"/>
      <point x="281" y="0" type="line"/>
    </contour>
    <component base="N" xOffset="14"/>
  </outline>
</glyph>
<glyph name="Ohorn" format="2">
  <advance height="2479" width="1585"/>
  <unicode hex="01A0"/>
  <anchor x="698" y="6" name="bottom"/>
  <anchor x="841" y="0" name="ogonek"/>
  <anchor x="329" y="1489" name="tonos"/>
  <anchor x="963" y="1676" name="top"/>
  <outline>
    <contour>
      <point x="1559" y="1597" type="line"/>
      <point x="1531" y="1428"/>
      <point x="1448" y="1329"/>
      <point x="1297" y="1329" type="curve"/>
      <point x="1274" y="1187" type="line"/>
      <point x="1532" y="1187"/>
      <point x="1687" y="1335"/>
      <point x="1731" y="1597" type="curve"/>
    </contour>
    <component base="O"/>
  </outline>
</glyph>
<glyph name="Oi" format="2">
  <advance height="2479" width="1770"/>
  <unicode hex="01A2"/>
  <outline>
    <contour>
      <point x="1279" y="759" type="line" name="hr00"/>
      <point x="1081" y="759" type="line"/>
      <point x="996" y="250" type="line"/>
      <point x="919" y="180"/>
      <point x="806" y="145"/>
      <point x="688" y="145" type="curve" smooth="yes"/>
      <point x="404" y="145"/>
      <point x="293" y="342"/>
      <point x="349" y="678" type="curve" smooth="yes"/>
      <point x="369" y="806" type="line"/>
      <point x="163" y="803" type="line"/>
      <point x="143" y="678" type="line" smooth="yes"/>
      <point x="71" y="249"/>
      <point x="257" y="-20"/>
      <point x="649" y="-20" type="curve" smooth="yes"/>
      <point x="867" y="-20"/>
      <point x="1074" y="60"/>
      <point x="1185" y="198" type="curve"/>
    </contour>
    <contour>
      <point x="1367" y="1292" type="line"/>
      <point x="1303" y="1424"/>
      <point x="1128" y="1510"/>
      <point x="919" y="1510" type="curve" smooth="yes"/>
      <point x="519" y="1510"/>
      <point x="236" y="1249"/>
      <point x="164" y="812" type="curve" smooth="yes"/>
      <point x="145" y="695" type="line"/>
      <point x="352" y="695" type="line"/>
      <point x="371" y="812" type="line" smooth="yes"/>
      <point x="428" y="1159"/>
      <point x="606" y="1341"/>
      <point x="889" y="1341" type="curve" smooth="yes"/>
      <point x="1012" y="1341"/>
      <point x="1113" y="1301"/>
      <point x="1159" y="1236" type="curve"/>
      <point x="1078" y="742" type="line"/>
      <point x="1276" y="742" type="line"/>
    </contour>
    <contour>
      <point x="1743" y="1489" type="line"/>
      <point x="1588" y="1489" type="line"/>
      <point x="1290" y="1376" type="line"/>
      <point x="1263" y="1207" type="line"/>
      <point x="1510" y="1292" type="line"/>
      <point x="1226" y="-419" type="line"/>
      <point x="1427" y="-419" type="line"/>
    </contour>
  </outline>
</glyph>
<glyph name="phook" format="2">
  <advance height="2479" width="1248"/>
  <unicode hex="01A5"/>
  <anchor x="80" y="-419" name="bottom"/>
  <anchor x="1063" y="-495" name="bottom0315"/>
  <anchor x="126" y="-163" name="cross"/>
  <anchor x="781" y="1303" name="top"/>
  <outline>
    <contour>
      <point x="416" y="1117" type="line"/>
      <point x="430" y="1199"/>
      <point x="487" y="1233"/>
      <point x="596" y="1233" type="curve" smooth="yes"/>
      <point x="614" y="1233"/>
      <point x="634" y="1231"/>
      <point x="652" y="1228" type="curve"/>
      <point x="675" y="1373" type="line"/>
      <point x="660" y="1379"/>
      <point x="623" y="1382"/>
      <point x="579" y="1382" type="curve" smooth="yes"/>
      <point x="402" y="1382"/>
      <point x="277" y="1287"/>
      <point x="250" y="1117" type="curve"/>
    </contour>
    <component base="p"/>
  </outline>
</glyph>
<glyph name="Yr" format="2">
  <advance height="2479" width="1388"/>
  <unicode hex="01A6"/>
  <outline>
    <contour>
      <point x="227" y="326" type="line"/>
      <point x="611" y="326" type="line" smooth="yes"/>
      <point x="928" y="326"/>
      <point x="1135" y="518"/>
      <point x="1172" y="753" type="curve" smooth="yes"/>
      <point x="1213" y="989"/>
      <point x="1068" y="1181"/>
      <point x="751" y="1181" type="curve" smooth="yes"/>
      <point x="367" y="1181" type="line"/>
      <point x="340" y="1021" type="line"/>
      <point x="724" y="1021" type="line" smooth="yes"/>
      <point x="931" y="1021"/>
      <point x="1030" y="919"/>
      <point x="1001" y="751" type="curve" smooth="yes"/>
      <point x="972" y="582"/>
      <point x="844" y="486"/>
      <point x="637" y="486" type="curve" smooth="yes"/>
      <point x="253" y="486" type="line"/>
    </contour>
    <contour>
      <point x="932" y="-419" type="line"/>
      <point x="1142" y="-419" type="line"/>
      <point x="828" y="406" type="line"/>
      <point x="624" y="406" type="line"/>
    </contour>
    <contour>
      <point x="87" y="0" type="line"/>
      <point x="268" y="0" type="line"/>
      <point x="515" y="1489" type="line"/>
      <point x="335" y="1489" type="line"/>
    </contour>
  </outline>
</glyph>
<glyph name="Tonetwo" format="2">
  <advance height="2479" width="1305"/>
  <unicode hex="01A7"/>
  <anchor x="554" y="-26" name="bottom"/>
  <anchor x="558" y="0" name="cedilla"/>
  <anchor x="839" y="1676" name="top"/>
  <outline>
    <contour>
      <point x="403" y="1117" type="line"/>
      <point x="445" y="1264"/>
      <point x="595" y="1350"/>
      <point x="776" y="1350" type="curve" smooth="yes"/>
      <point x="974" y="1350"/>
      <point x="1087" y="1245"/>
      <point x="1063" y="1103" type="curve" smooth="yes"/>
      <point x="1037" y="943"/>
      <point x="850" y="884"/>
      <point x="734" y="855" type="curve" smooth="yes"/>
      <point x="577" y="815" type="line" smooth="yes"/>
      <point x="416" y="774"/>
      <point x="136" y="684"/>
      <point x="90" y="404" type="curve" smooth="yes"/>
      <point x="50" y="163"/>
      <point x="214" y="-26"/>
      <point x="557" y="-26" type="curve" smooth="yes"/>
      <point x="877" y="-26"/>
      <point x="1102" y="140"/>
      <point x="1160" y="384" type="curve"/>
      <point x="974" y="384" type="line"/>
      <point x="931" y="215"/>
      <point x="761" y="137"/>
      <point x="583" y="137" type="curve" smooth="yes"/>
      <point x="377" y="137"/>
      <point x="238" y="244"/>
      <point x="264" y="407" type="curve" smooth="yes"/>
      <point x="289" y="556"/>
      <point x="438" y="611"/>
      <point x="602" y="655" type="curve" smooth="yes"/>
      <point x="794" y="707" type="line" smooth="yes"/>
      <point x="1038" y="774"/>
      <point x="1203" y="893"/>
      <point x="1236" y="1094" type="curve" smooth="yes"/>
      <point x="1278" y="1344"/>
      <point x="1082" y="1510"/>
      <point x="797" y="1510" type="curve" smooth="yes"/>
      <point x="509" y="1510"/>
      <point x="273" y="1342"/>
      <point x="228" y="1117" type="curve"/>
    </contour>
  </outline>
</glyph>
<glyph name="tonetwo" format="2">
  <advance height="2479" width="1070"/>
  <unicode hex="01A8"/>
  <outline>
    <contour>
      <point x="452" y="-23" type="curve" smooth="yes"/>
      <point x="676" y="-23"/>
      <point x="844" y="72"/>
      <point x="915" y="262" type="curve"/>
      <point x="758" y="314" type="line"/>
      <point x="708" y="194"/>
      <point x="605" y="128"/>
      <point x="460" y="128" type="curve" smooth="yes"/>
      <point x="305" y="128"/>
      <point x="220" y="201"/>
      <point x="236" y="291" type="curve" smooth="yes"/>
      <point x="249" y="374"/>
      <point x="316" y="432"/>
      <point x="433" y="458" type="curve" smooth="yes"/>
      <point x="627" y="502" type="line" smooth="yes"/>
      <point x="840" y="550"/>
      <point x="943" y="649"/>
      <point x="967" y="797" type="curve" smooth="yes"/>
      <point x="1000" y="992"/>
      <point x="843" y="1132"/>
      <point x="602" y="1132" type="curve" smooth="yes"/>
      <point x="386" y="1132"/>
      <point x="252" y="1031"/>
      <point x="173" y="873" type="curve"/>
      <point x="321" y="817" type="line"/>
      <point x="364" y="895"/>
      <point x="444" y="983"/>
      <point x="599" y="983" type="curve" smooth="yes"/>
      <point x="730" y="983"/>
      <point x="816" y="919"/>
      <point x="801" y="829" type="curve" smooth="yes"/>
      <point x="786" y="737"/>
      <point x="713" y="689"/>
      <point x="576" y="656" type="curve" smooth="yes"/>
      <point x="403" y="615" type="line" smooth="yes"/>
      <point x="196" y="567"/>
      <point x="87" y="473"/>
      <point x="63" y="323" type="curve" smooth="yes"/>
      <point x="30" y="124"/>
      <point x="188" y="-23"/>
    </contour>
  </outline>
</glyph>
<glyph name="eshreversedloop" format="2">
  <advance height="2479" width="1105"/>
  <unicode hex="01AA"/>
  <outline>
    <contour>
      <point x="689" y="1135" type="line" name="hr00"/>
      <point x="489" y="-70" type="line" smooth="yes"/>
      <point x="451" y="-297"/>
      <point x="524" y="-419"/>
      <point x="713" y="-419" type="curve" smooth="yes"/>
      <point x="748" y="-419"/>
      <point x="800" y="-413"/>
      <point x="832" y="-401" type="curve"/>
      <point x="858" y="-244" type="line"/>
      <point x="838" y="-250"/>
      <point x="809" y="-253"/>
      <point x="791" y="-253" type="curve" smooth="yes"/>
      <point x="704" y="-253"/>
      <point x="667" y="-207"/>
      <point x="689" y="-70" type="curve" smooth="yes"/>
      <point x="905" y="1219" type="line"/>
    </contour>
    <contour>
      <point x="224" y="1219" type="curve" smooth="yes"/>
      <point x="192" y="1033"/>
      <point x="317" y="879"/>
      <point x="506" y="879" type="curve" smooth="yes"/>
      <point x="692" y="879"/>
      <point x="873" y="1033"/>
      <point x="905" y="1219" type="curve" smooth="yes"/>
      <point x="934" y="1408"/>
      <point x="806" y="1558"/>
      <point x="620" y="1558" type="curve" smooth="yes"/>
      <point x="431" y="1558"/>
      <point x="253" y="1408"/>
    </contour>
    <contour>
      <point x="538" y="1062" type="curve" smooth="yes"/>
      <point x="451" y="1062"/>
      <point x="393" y="1114"/>
      <point x="410" y="1222" type="curve" smooth="yes"/>
      <point x="428" y="1327"/>
      <point x="503" y="1382"/>
      <point x="591" y="1382" type="curve" smooth="yes"/>
      <point x="675" y="1382"/>
      <point x="733" y="1327"/>
      <point x="716" y="1222" type="curve" smooth="yes"/>
      <point x="698" y="1114"/>
      <point x="623" y="1062"/>
    </contour>
  </outline>
</glyph>
<glyph name="tpalatalhook" format="2">
  <advance height="2479" width="750"/>
  <unicode hex="01AB"/>
  <anchor x="320" y="0" name="bottom"/>
  <anchor x="407" y="0" name="cedilla"/>
  <anchor x="692" y="1562" name="raccent"/>
  <anchor x="474" y="1489" name="top"/>
  <outline>
    <contour>
      <point x="428" y="134" type="line"/>
      <point x="384" y="-119" type="line" smooth="yes"/>
      <point x="364" y="-235"/>
      <point x="291" y="-271"/>
      <point x="198" y="-271" type="curve" smooth="yes"/>
      <point x="177" y="-271"/>
      <point x="157" y="-268"/>
      <point x="143" y="-265" type="curve"/>
      <point x="119" y="-410" type="line"/>
      <point x="143" y="-419"/>
      <point x="180" y="-419"/>
      <point x="215" y="-419" type="curve" smooth="yes"/>
      <point x="378" y="-419"/>
      <point x="523" y="-311"/>
      <point x="556" y="-119" type="curve" smooth="yes"/>
      <point x="605" y="169" type="line"/>
    </contour>
    <component base="t"/>
  </outline>
</glyph>
<glyph name="thook" format="2">
  <advance height="2479" width="745"/>
  <unicode hex="01AD"/>
  <outline>
    <contour>
      <point x="439" y="-15" type="curve" smooth="yes"/>
      <point x="503" y="-15"/>
      <point x="547" y="-3"/>
      <point x="573" y="6" type="curve"/>
      <point x="561" y="160" type="line"/>
      <point x="547" y="157"/>
      <point x="524" y="151"/>
      <point x="486" y="151" type="curve" smooth="yes"/>
      <point x="410" y="151"/>
      <point x="340" y="175"/>
      <point x="364" y="320" type="curve" smooth="yes"/>
      <point x="505" y="1164" type="line"/>
      <point x="333" y="1164" type="line"/>
      <point x="186" y="273" type="line" smooth="yes"/>
      <point x="154" y="79"/>
      <point x="294" y="-15"/>
    </contour>
    <contour>
      <point x="134" y="972" type="line"/>
      <point x="713" y="972" type="line"/>
      <point x="736" y="1117" type="line"/>
      <point x="157" y="1117" type="line"/>
    </contour>
    <contour>
      <point x="317" y="1065" type="line"/>
      <point x="489" y="1065" type="line"/>
      <point x="512" y="1210" type="line" smooth="yes"/>
      <point x="531" y="1327"/>
      <point x="608" y="1361"/>
      <point x="701" y="1361" type="curve" smooth="yes"/>
      <point x="721" y="1361"/>
      <point x="742" y="1359"/>
      <point x="753" y="1356" type="curve"/>
      <point x="780" y="1501" type="line"/>
      <point x="753" y="1510"/>
      <point x="716" y="1510"/>
      <point x="681" y="1510" type="curve" smooth="yes"/>
      <point x="518" y="1510"/>
      <point x="371" y="1402"/>
      <point x="340" y="1210" type="curve" smooth="yes"/>
    </contour>
  </outline>
</glyph>
<glyph name="Vhook" format="2">
  <advance height="2479" width="1581"/>
  <unicode hex="01B2"/>
  <outline>
    <contour>
      <point x="673" y="-23" type="curve"/>
      <point x="1054" y="-24"/>
      <point x="1354" y="288"/>
      <point x="1438" y="790" type="curve" smooth="yes"/>
      <point x="1509" y="1213"/>
      <point x="1381" y="1508"/>
      <point x="1115" y="1508" type="curve" smooth="yes"/>
      <point x="1051" y="1508"/>
      <point x="966" y="1490"/>
      <point x="903" y="1459" type="curve"/>
      <point x="918" y="1303" type="line"/>
      <point x="977" y="1338"/>
      <point x="1050" y="1348"/>
      <point x="1085" y="1348" type="curve" smooth="yes"/>
      <point x="1239" y="1348"/>
      <point x="1323" y="1145"/>
      <point x="1272" y="829" type="curve" smooth="yes"/>
      <point x="1208" y="419"/>
      <point x="971" y="147"/>
      <point x="663" y="145" type="curve" smooth="yes"/>
      <point x="445" y="145"/>
      <point x="315" y="286"/>
      <point x="352" y="512" type="curve" smooth="yes"/>
      <point x="513" y="1489" type="line"/>
      <point x="333" y="1489" type="line"/>
      <point x="171" y="509" type="line" smooth="yes"/>
      <point x="118" y="190"/>
      <point x="318" y="-23"/>
    </contour>
  </outline>
</glyph>
<glyph name="Ezh" format="2">
  <advance height="2479" width="1395"/>
  <unicode hex="01B7"/>
  <anchor x="884" y="1676" name="top"/>
  <outline>
    <contour>
      <point x="17" y="64" type="line"/>
      <point x="-17" y="-235"/>
      <point x="201" y="-441"/>
      <point x="520" y="-441" type="curve" smooth="yes"/>
      <point x="876" y="-441"/>
      <point x="1157" y="-180"/>
      <point x="1217" y="180" type="curve" smooth="yes"/>
      <point x="1275" y="531"/>
      <point x="1082" y="780"/>
      <point x="754" y="794" type="curve"/>
      <point x="756" y="809" type="line"/>
      <point x="1374" y="1359" type="line"/>
      <point x="1396" y="1489" type="line"/>
      <point x="337" y="1489" type="line"/>
      <point x="309" y="1327" type="line"/>
      <point x="1118" y="1327" type="line"/>
      <point x="1116" y="1315" type="line"/>
      <point x="535" y="803" type="line"/>
      <point x="508" y="652" type="line"/>
      <point x="619" y="652" type="line" smooth="yes"/>
      <point x="911" y="652"/>
      <point x="1087" y="468"/>
      <point x="1039" y="177" type="curve" smooth="yes"/>
      <point x="997" y="-80"/>
      <point x="803" y="-278"/>
      <point x="551" y="-278" type="curve" smooth="yes"/>
      <point x="336" y="-278"/>
      <point x="180" y="-139"/>
      <point x="200" y="64" type="curve"/>
    </contour>
  </outline>
</glyph>
<glyph name="Ezhreversed" format="2">
  <advance height="2479" width="1395"/>
  <unicode hex="01B8"/>
  <anchor x="881" y="1676" name="top"/>
  <outline>
    <contour>
      <point x="1214" y="64" type="curve"/>
      <point x="1031" y="64" type="line"/>
      <point x="983" y="-139"/>
      <point x="781" y="-278"/>
      <point x="567" y="-278" type="curve" smooth="yes"/>
      <point x="314" y="-278"/>
      <point x="187" y="-80"/>
      <point x="230" y="177" type="curve" smooth="yes"/>
      <point x="277" y="468"/>
      <point x="513" y="652"/>
      <point x="806" y="652" type="curve" smooth="yes"/>
      <point x="916" y="652" type="line"/>
      <point x="941" y="803" type="line"/>
      <point x="528" y="1315" type="line"/>
      <point x="529" y="1327" type="line"/>
      <point x="1338" y="1327" type="line"/>
      <point x="1366" y="1489" type="line"/>
      <point x="307" y="1489" type="line"/>
      <point x="285" y="1359" type="line"/>
      <point x="720" y="809" type="line"/>
      <point x="718" y="794" type="line"/>
      <point x="384" y="780"/>
      <point x="110" y="531"/>
      <point x="52" y="180" type="curve" smooth="yes"/>
      <point x="-8" y="-180"/>
      <point x="187" y="-441"/>
      <point x="542" y="-441" type="curve" smooth="yes"/>
      <point x="862" y="-441"/>
      <point x="1147" y="-235"/>
    </contour>
  </outline>
</glyph>
<glyph name="ezhtail" format="2">
  <advance height="2479" width="1105"/>
  <unicode hex="01BA"/>
  <outline>
    <contour>
      <point x="237" y="1117" type="line" name="hr00"/>
      <point x="211" y="957" type="line"/>
      <point x="791" y="957" type="line"/>
      <point x="353" y="620" type="line"/>
      <point x="333" y="495" type="line"/>
      <point x="438" y="495" type="line"/>
      <point x="1087" y="995" type="line"/>
      <point x="1107" y="1117" type="line"/>
    </contour>
    <contour>
      <point x="179" y="-125" type="curve" smooth="yes"/>
      <point x="191" y="-54"/>
      <point x="243" y="6"/>
      <point x="442" y="47" type="curve" smooth="yes"/>
      <point x="692" y="97"/>
      <point x="861" y="175"/>
      <point x="893" y="367" type="curve" smooth="yes"/>
      <point x="921" y="538"/>
      <point x="781" y="655"/>
      <point x="534" y="655" type="curve" smooth="yes"/>
      <point x="470" y="655" type="line"/>
      <point x="432" y="495" type="line"/>
      <point x="508" y="495" type="line" smooth="yes"/>
      <point x="655" y="495"/>
      <point x="706" y="448"/>
      <point x="694" y="372" type="curve" smooth="yes"/>
      <point x="679" y="282"/>
      <point x="623" y="247"/>
      <point x="439" y="209" type="curve" smooth="yes"/>
      <point x="166" y="153"/>
      <point x="9" y="61"/>
      <point x="-19" y="-113" type="curve" smooth="yes"/>
      <point x="-51" y="-311"/>
      <point x="94" y="-442"/>
      <point x="351" y="-442" type="curve" smooth="yes"/>
      <point x="638" y="-442"/>
      <point x="825" y="-265"/>
      <point x="854" y="-84" type="curve"/>
      <point x="656" y="-84" type="line"/>
      <point x="623" y="-236"/>
      <point x="489" y="-282"/>
      <point x="369" y="-282" type="curve" smooth="yes"/>
      <point x="233" y="-282"/>
      <point x="163" y="-225"/>
    </contour>
  </outline>
</glyph>
<glyph name="Tonefive" format="2">
  <advance height="2479" width="1222"/>
  <unicode hex="01BC"/>
  <outline>
    <contour>
      <point x="547" y="1489" type="line" name="hr00"/>
      <point x="224" y="1489" type="line"/>
      <point x="195" y="1329" type="line"/>
      <point x="518" y="1329" type="line"/>
    </contour>
    <component base="five"/>
  </outline>
</glyph>
<glyph name="tonefive" format="2">
  <advance height="2479" width="1105"/>
  <unicode hex="01BD"/>
  <outline>
    <contour>
      <point x="367" y="471" type="line" name="hr00"/>
      <point x="413" y="527"/>
      <point x="480" y="576"/>
      <point x="593" y="576" type="curve" smooth="yes"/>
      <point x="742" y="576"/>
      <point x="803" y="489"/>
      <point x="783" y="361" type="curve" smooth="yes"/>
      <point x="762" y="236"/>
      <point x="675" y="145"/>
      <point x="515" y="145" type="curve" smooth="yes"/>
      <point x="384" y="145"/>
      <point x="303" y="215"/>
      <point x="323" y="323" type="curve"/>
      <point x="128" y="305" type="line"/>
      <point x="90" y="87"/>
      <point x="303" y="-17"/>
      <point x="489" y="-17" type="curve" smooth="yes"/>
      <point x="794" y="-17"/>
      <point x="945" y="148"/>
      <point x="980" y="361" type="curve" smooth="yes"/>
      <point x="1018" y="602"/>
      <point x="899" y="742"/>
      <point x="657" y="736" type="curve"/>
      <point x="582" y="733"/>
      <point x="486" y="704"/>
      <point x="439" y="675" type="curve"/>
      <point x="506" y="911" type="line"/>
      <point x="1015" y="911" type="line"/>
      <point x="1044" y="1082" type="line"/>
      <point x="367" y="1082" type="line"/>
      <point x="198" y="486" type="line"/>
    </contour>
    <contour>
      <point x="483" y="1082" type="line"/>
      <point x="180" y="1082" type="line"/>
      <point x="151" y="911" type="line"/>
      <point x="454" y="911" type="line"/>
    </contour>
  </outline>
</glyph>
<glyph name="wynn" format="2">
  <advance height="2479" width="1200"/>
  <unicode hex="01BF"/>
  <outline>
    <contour>
      <point x="141" y="-208" type="line"/>
      <point x="606" y="-83"/>
      <point x="1003" y="286"/>
      <point x="1063" y="649" type="curve" smooth="yes"/>
      <point x="1112" y="940"/>
      <point x="989" y="1132"/>
      <point x="753" y="1132" type="curve" smooth="yes"/>
      <point x="479" y="1132"/>
      <point x="283" y="897"/>
      <point x="215" y="487" type="curve"/>
      <point x="324" y="557" type="line"/>
      <point x="375" y="838"/>
      <point x="498" y="977"/>
      <point x="695" y="977" type="curve" smooth="yes"/>
      <point x="847" y="977"/>
      <point x="925" y="847"/>
      <point x="891" y="647" type="curve" smooth="yes"/>
      <point x="840" y="337"/>
      <point x="525" y="40"/>
      <point x="158" y="-45" type="curve"/>
    </contour>
    <contour>
      <point x="-6" y="-419" type="line"/>
      <point x="166" y="-419" type="line"/>
      <point x="382" y="903" type="line"/>
      <point x="399" y="943" type="line"/>
      <point x="386" y="943" type="line"/>
      <point x="414" y="1117" type="line"/>
      <point x="248" y="1117" type="line"/>
    </contour>
  </outline>
</glyph>
<glyph name="Gstroke" format="2">
  <advance height="2479" width="1521"/>
  <unicode hex="01E4"/>
  <anchor x="676" y="0" name="bottom"/>
  <anchor x="958" y="1676" name="top"/>
  <outline>
    <contour>
      <point x="1478" y="454" type="line"/>
      <point x="809" y="454" type="line"/>
      <point x="785" y="308" type="line"/>
      <point x="1455" y="308" type="line"/>
    </contour>
    <component base="G"/>
  </outline>
</glyph>
<glyph name="Wynn" format="2">
  <advance height="2479" width="1310"/>
  <unicode hex="01F7"/>
  <outline>
    <contour>
      <point x="134" y="-169" type="line"/>
      <point x="712" y="-103"/>
      <point x="1145" y="295"/>
      <point x="1233" y="829" type="curve" smooth="yes"/>
      <point x="1302" y="1241"/>
      <point x="1131" y="1510"/>
      <point x="827" y="1510" type="curve" smooth="yes"/>
      <point x="690" y="1510"/>
      <point x="536" y="1455"/>
      <point x="420" y="1366" type="curve"/>
      <point x="400" y="1188" type="line"/>
      <point x="512" y="1279"/>
      <point x="665" y="1341"/>
      <point x="791" y="1341" type="curve" smooth="yes"/>
      <point x="1002" y="1341"/>
      <point x="1113" y="1154"/>
      <point x="1064" y="858" type="curve" smooth="yes"/>
      <point x="991" y="417"/>
      <point x="624" y="73"/>
      <point x="151" y="1" type="curve"/>
    </contour>
    <contour>
      <point x="17" y="-419" type="line"/>
      <point x="198" y="-419" type="line"/>
      <point x="513" y="1489" type="line"/>
      <point x="333" y="1489" type="line"/>
    </contour>
  </outline>
</glyph>
<glyph name="Yogh" format="2">
  <advance height="2479" width="1440"/>
  <unicode hex="021C"/>
  <anchor x="879" y="1676" name="top"/>
  <outline>
    <contour>
      <point x="537" y="-441" type="curve" smooth="yes"/>
      <point x="911" y="-441"/>
      <point x="1199" y="-204"/>
      <point x="1260" y="163" type="curve" smooth="yes"/>
      <point x="1310" y="468"/>
      <point x="1170" y="672"/>
      <point x="914" y="672" type="curve"/>
      <point x="748" y="557" type="line"/>
      <point x="993" y="559"/>
      <point x="1124" y="412"/>
      <point x="1084" y="171" type="curve" smooth="yes"/>
      <point x="1039" y="-94"/>
      <point x="820" y="-278"/>
      <point x="544" y="-278" type="curve" smooth="yes"/>
      <point x="312" y="-278"/>
      <point x="177" y="-142"/>
      <point x="198" y="64" type="curve"/>
      <point x="17" y="64" type="line"/>
      <point x="-17" y="-240"/>
      <point x="188" y="-441"/>
    </contour>
    <contour>
      <point x="347" y="406" type="line"/>
      <point x="891" y="519"/>
      <point x="1269" y="737"/>
      <point x="1322" y="1059" type="curve" smooth="yes"/>
      <point x="1366" y="1321"/>
      <point x="1170" y="1510"/>
      <point x="822" y="1510" type="curve" smooth="yes"/>
      <point x="506" y="1510"/>
      <point x="268" y="1349"/>
      <point x="228" y="1105" type="curve"/>
      <point x="401" y="1105" type="line"/>
      <point x="425" y="1253"/>
      <point x="594" y="1350"/>
      <point x="815" y="1350" type="curve" smooth="yes"/>
      <point x="1048" y="1350"/>
      <point x="1177" y="1236"/>
      <point x="1151" y="1074" type="curve" smooth="yes"/>
      <point x="1113" y="851"/>
      <point x="804" y="686"/>
      <point x="361" y="560" type="curve"/>
    </contour>
  </outline>
</glyph>
<glyph name="yogh" format="2">
  <advance height="2479" width="1195"/>
  <unicode hex="021D"/>
  <outline>
    <contour>
      <point x="255" y="205" type="line"/>
      <point x="713" y="289"/>
      <point x="1038" y="519"/>
      <point x="1081" y="783" type="curve" smooth="yes"/>
      <point x="1116" y="994"/>
      <point x="929" y="1132"/>
      <point x="668" y="1132" type="curve" smooth="yes"/>
      <point x="407" y="1132"/>
      <point x="180" y="992"/>
      <point x="145" y="780" type="curve"/>
      <point x="315" y="780" type="line"/>
      <point x="335" y="899"/>
      <point x="495" y="977"/>
      <point x="658" y="977" type="curve" smooth="yes"/>
      <point x="810" y="977"/>
      <point x="930" y="907"/>
      <point x="911" y="793" type="curve" smooth="yes"/>
      <point x="881" y="609"/>
      <point x="623" y="436"/>
      <point x="271" y="362" type="curve"/>
    </contour>
    <contour>
      <point x="405" y="-442" type="curve" smooth="yes"/>
      <point x="705" y="-442"/>
      <point x="958" y="-247"/>
      <point x="1003" y="28" type="curve" smooth="yes"/>
      <point x="1039" y="242"/>
      <point x="937" y="401"/>
      <point x="747" y="463" type="curve"/>
      <point x="543" y="349" type="line"/>
      <point x="751" y="328"/>
      <point x="862" y="212"/>
      <point x="834" y="44" type="curve" smooth="yes"/>
      <point x="802" y="-148"/>
      <point x="623" y="-282"/>
      <point x="408" y="-282" type="curve" smooth="yes"/>
      <point x="210" y="-282"/>
      <point x="171" y="-180"/>
      <point x="135" y="-118" type="curve"/>
      <point x="-23" y="-214" type="line"/>
      <point x="28" y="-330"/>
      <point x="150" y="-442"/>
    </contour>
  </outline>
</glyph>
<glyph name="ou" format="2">
  <advance height="2479" width="1292"/>
  <unicode hex="0223"/>
  <outline>
    <contour>
      <point x="687" y="879" type="line"/>
      <point x="375" y="879"/>
      <point x="113" y="730"/>
      <point x="64" y="433" type="curve" smooth="yes"/>
      <point x="12" y="128"/>
      <point x="227" y="-20"/>
      <point x="538" y="-20" type="curve" smooth="yes"/>
      <point x="561" y="-20" type="line" smooth="yes"/>
      <point x="873" y="-20"/>
      <point x="1135" y="128"/>
      <point x="1187" y="436" type="curve" smooth="yes"/>
      <point x="1236" y="730"/>
      <point x="1021" y="879"/>
      <point x="710" y="879" type="curve" smooth="yes"/>
    </contour>
    <contour>
      <point x="687" y="727" type="line"/>
      <point x="893" y="727"/>
      <point x="1018" y="631"/>
      <point x="986" y="436" type="curve" smooth="yes"/>
      <point x="954" y="236"/>
      <point x="794" y="140"/>
      <point x="588" y="140" type="curve" smooth="yes"/>
      <point x="564" y="140" type="line" smooth="yes"/>
      <point x="355" y="140"/>
      <point x="233" y="236"/>
      <point x="265" y="433" type="curve" smooth="yes"/>
      <point x="297" y="631"/>
      <point x="454" y="727"/>
      <point x="663" y="727" type="curve" smooth="yes"/>
    </contour>
    <contour>
      <point x="721" y="887" type="curve"/>
      <point x="681" y="887" type="line" smooth="yes"/>
      <point x="500" y="887"/>
      <point x="349" y="940"/>
      <point x="381" y="1143" type="curve" smooth="yes"/>
      <point x="407" y="1289"/>
      <point x="486" y="1359"/>
      <point x="617" y="1408" type="curve"/>
      <point x="643" y="1556" type="line"/>
      <point x="422" y="1548"/>
      <point x="224" y="1402"/>
      <point x="180" y="1143" type="curve" smooth="yes"/>
      <point x="131" y="844"/>
      <point x="367" y="739"/>
      <point x="655" y="739" type="curve" smooth="yes"/>
      <point x="695" y="739" type="line" smooth="yes"/>
      <point x="983" y="739"/>
      <point x="1254" y="844"/>
      <point x="1303" y="1143" type="curve" smooth="yes"/>
      <point x="1347" y="1402"/>
      <point x="1196" y="1548"/>
      <point x="980" y="1556" type="curve"/>
      <point x="954" y="1408" type="line"/>
      <point x="1073" y="1359"/>
      <point x="1129" y="1289"/>
      <point x="1103" y="1143" type="curve" smooth="yes"/>
      <point x="1071" y="940"/>
      <point x="905" y="887"/>
    </contour>
  </outline>
</glyph>
<glyph name="Zhook" format="2">
  <advance height="2479" width="1280"/>
  <unicode hex="0224"/>
  <outline>
    <contour>
      <point x="250" y="1329" type="line"/>
      <point x="1062" y="1329" type="line"/>
      <point x="61" y="131" type="line"/>
      <point x="38" y="0" type="line"/>
      <point x="780" y="0" type="line" smooth="yes"/>
      <point x="881" y="0"/>
      <point x="902" y="-81"/>
      <point x="887" y="-166" type="curve" smooth="yes"/>
      <point x="879" y="-221" type="line"/>
      <point x="1041" y="-221" type="line"/>
      <point x="1056" y="-134" type="line" smooth="yes"/>
      <point x="1085" y="41"/>
      <point x="989" y="160"/>
      <point x="806" y="160" type="curve" smooth="yes"/>
      <point x="279" y="160" type="line"/>
      <point x="1283" y="1359" type="line"/>
      <point x="1303" y="1489" type="line"/>
      <point x="276" y="1489" type="line"/>
    </contour>
  </outline>
</glyph>
<glyph name="zhook" format="2">
  <advance height="2479" width="1105"/>
  <unicode hex="0225"/>
  <outline>
    <contour>
      <point x="736" y="-233" type="line"/>
      <point x="890" y="-233" type="line"/>
      <point x="908" y="-134" type="line" smooth="yes"/>
      <point x="934" y="32"/>
      <point x="847" y="160"/>
      <point x="657" y="160" type="curve" smooth="yes"/>
      <point x="285" y="160" type="line"/>
      <point x="1047" y="980" type="line"/>
      <point x="1071" y="1117" type="line"/>
      <point x="209" y="1117" type="line"/>
      <point x="183" y="957" type="line"/>
      <point x="823" y="957" type="line"/>
      <point x="58" y="145" type="line"/>
      <point x="35" y="0" type="line"/>
      <point x="631" y="0" type="line" smooth="yes"/>
      <point x="748" y="0"/>
      <point x="759" y="-84"/>
      <point x="745" y="-177" type="curve" smooth="yes"/>
    </contour>
  </outline>
</glyph>
<glyph name="tcurl" format="2">
  <advance height="2479" width="982"/>
  <unicode hex="0236"/>
  <outline>
    <contour>
      <point x="431" y="1385" type="line"/>
      <point x="250" y="291" type="line" smooth="yes"/>
      <point x="224" y="143"/>
      <point x="282" y="-23"/>
      <point x="506" y="-23" type="curve" smooth="yes"/>
      <point x="690" y="-23"/>
      <point x="824" y="90"/>
      <point x="850" y="250" type="curve" smooth="yes"/>
      <point x="876" y="396"/>
      <point x="797" y="506"/>
      <point x="608" y="506" type="curve" smooth="yes"/>
      <point x="422" y="506"/>
      <point x="291" y="396"/>
      <point x="-6" y="128" type="curve"/>
      <point x="88" y="15" type="line"/>
      <point x="440" y="329"/>
      <point x="483" y="352"/>
      <point x="559" y="352" type="curve" smooth="yes"/>
      <point x="661" y="352"/>
      <point x="681" y="300"/>
      <point x="672" y="241" type="curve" smooth="yes"/>
      <point x="661" y="163"/>
      <point x="597" y="125"/>
      <point x="530" y="125" type="curve" smooth="yes"/>
      <point x="454" y="125"/>
      <point x="402" y="180"/>
      <point x="413" y="247" type="curve" smooth="yes"/>
      <point x="602" y="1385" type="line"/>
    </contour>
    <contour>
      <point x="797" y="1117" type="line"/>
      <point x="218" y="1117" type="line"/>
      <point x="195" y="972" type="line"/>
      <point x="774" y="972" type="line"/>
    </contour>
  </outline>
</glyph>
<glyph name="jdotless" format="2">
  <advance height="2479" width="486"/>
  <unicode hex="0237"/>
  <anchor x="381" y="0" name="_right"/>
  <anchor x="17" y="-460" name="bottom"/>
  <anchor x="256" y="649" name="cross"/>
  <anchor x="364" y="1303" name="top"/>
  <outline>
    <contour>
      <point x="250" y="1117" type="line"/>
      <point x="52" y="-81" type="line"/>
      <point x="32" y="-195"/>
      <point x="-26" y="-259"/>
      <point x="-131" y="-259" type="curve" smooth="yes"/>
      <point x="-143" y="-259"/>
      <point x="-151" y="-259"/>
      <point x="-163" y="-259" type="curve"/>
      <point x="-189" y="-419" type="line"/>
      <point x="-177" y="-419"/>
      <point x="-166" y="-419"/>
      <point x="-154" y="-419" type="curve" smooth="yes"/>
      <point x="61" y="-419"/>
      <point x="189" y="-288"/>
      <point x="224" y="-81" type="curve"/>
      <point x="422" y="1117" type="line"/>
    </contour>
  </outline>
</glyph>
<glyph name="dbdigraph" format="2">
  <advance height="2479" width="2017"/>
  <unicode hex="0238"/>
  <outline>
    <contour>
      <point x="484" y="-23" type="curve" smooth="yes"/>
      <point x="699" y="-23"/>
      <point x="794" y="111"/>
      <point x="842" y="172" type="curve"/>
      <point x="862" y="172" type="line"/>
      <point x="833" y="0" type="line"/>
      <point x="999" y="0" type="line"/>
      <point x="1028" y="172" type="line"/>
      <point x="1049" y="172" type="line"/>
      <point x="1078" y="111"/>
      <point x="1127" y="-23"/>
      <point x="1343" y="-23" type="curve" smooth="yes"/>
      <point x="1622" y="-23"/>
      <point x="1855" y="201"/>
      <point x="1913" y="556" type="curve" smooth="yes"/>
      <point x="1971" y="908"/>
      <point x="1814" y="1132"/>
      <point x="1532" y="1132" type="curve" smooth="yes"/>
      <point x="1313" y="1132"/>
      <point x="1223" y="998"/>
      <point x="1177" y="940" type="curve"/>
      <point x="1159" y="940" type="line"/>
      <point x="1249" y="1489" type="line"/>
      <point x="1078" y="1489" type="line"/>
      <point x="986" y="940" type="line"/>
      <point x="969" y="940" type="line"/>
      <point x="941" y="998"/>
      <point x="896" y="1132"/>
      <point x="678" y="1132" type="curve" smooth="yes"/>
      <point x="396" y="1132"/>
      <point x="164" y="908"/>
      <point x="105" y="556" type="curve" smooth="yes"/>
      <point x="47" y="201"/>
      <point x="204" y="-23"/>
    </contour>
    <contour>
      <point x="527" y="131" type="curve" smooth="yes"/>
      <point x="311" y="131"/>
      <point x="238" y="320"/>
      <point x="278" y="559" type="curve" smooth="yes"/>
      <point x="316" y="794"/>
      <point x="449" y="977"/>
      <point x="666" y="977" type="curve" smooth="yes"/>
      <point x="876" y="977"/>
      <point x="965" y="809"/>
      <point x="924" y="559" type="curve" smooth="yes"/>
      <point x="881" y="305"/>
      <point x="733" y="131"/>
    </contour>
    <contour>
      <point x="1345" y="131" type="curve" smooth="yes"/>
      <point x="1139" y="131"/>
      <point x="1055" y="305"/>
      <point x="1095" y="559" type="curve" smooth="yes"/>
      <point x="1136" y="809"/>
      <point x="1276" y="977"/>
      <point x="1485" y="977" type="curve" smooth="yes"/>
      <point x="1703" y="977"/>
      <point x="1779" y="794"/>
      <point x="1741" y="559" type="curve" smooth="yes"/>
      <point x="1700" y="320"/>
      <point x="1561" y="131"/>
    </contour>
  </outline>
</glyph>
<glyph name="Cstroke" format="2">
  <advance height="2479" width="1489"/>
  <unicode hex="023B"/>
  <anchor x="695" y="-12" name="cedilla"/>
  <anchor x="969" y="1676" name="top"/>
  <outline>
    <contour>
      <point x="212" y="-189" type="line"/>
      <point x="378" y="-189" type="line"/>
      <point x="1353" y="1679" type="line"/>
      <point x="1187" y="1679" type="line"/>
    </contour>
    <component base="C"/>
  </outline>
</glyph>
<glyph name="Tdiagonalstroke" format="2">
  <advance height="2479" width="1315"/>
  <unicode hex="023E"/>
  <unicode hex="2C66"/>
  <anchor x="564" y="0" name="bottom"/>
  <anchor x="585" y="0" name="cedilla"/>
  <anchor x="692" y="768" name="cross"/>
  <anchor x="748" y="64" name="cyrtic"/>
  <anchor x="605" y="0" name="right"/>
  <anchor x="844" y="1676" name="top"/>
  <outline>
    <contour>
      <point x="137" y="-189" type="line"/>
      <point x="303" y="-189" type="line"/>
      <point x="1277" y="1679" type="line"/>
      <point x="1111" y="1679" type="line"/>
    </contour>
    <component base="T"/>
  </outline>
</glyph>
<glyph name="sswashtail" format="2">
  <advance height="2479" width="1071"/>
  <unicode hex="023F"/>
  <anchor x="460" y="0" name="bottom"/>
  <anchor x="457" y="0" name="cedilla"/>
  <anchor x="675" y="1303" name="top"/>
  <outline>
    <contour>
      <point x="215" y="253" type="curve"/>
      <point x="76" y="177" type="line"/>
      <point x="224" y="-186" type="line" smooth="yes"/>
      <point x="284" y="-333"/>
      <point x="349" y="-419"/>
      <point x="477" y="-419" type="curve" smooth="yes"/>
      <point x="556" y="-419"/>
      <point x="649" y="-364"/>
      <point x="698" y="-320" type="curve"/>
      <point x="652" y="-204" type="line"/>
      <point x="614" y="-233"/>
      <point x="541" y="-273"/>
      <point x="489" y="-273" type="curve" smooth="yes"/>
      <point x="410" y="-273"/>
      <point x="396" y="-198"/>
    </contour>
    <component base="s"/>
  </outline>
</glyph>
<glyph name="zswashtail" format="2">
  <advance height="2479" width="1109"/>
  <unicode hex="0240"/>
  <outline>
    <contour>
      <point x="277" y="160" type="line"/>
      <point x="251" y="0" type="line"/>
      <point x="288" y="0" type="line" smooth="yes"/>
      <point x="608" y="0"/>
      <point x="539" y="-419"/>
      <point x="800" y="-419" type="curve" smooth="yes"/>
      <point x="896" y="-419"/>
      <point x="981" y="-364"/>
      <point x="1030" y="-320" type="curve"/>
      <point x="984" y="-204" type="line"/>
      <point x="943" y="-236"/>
      <point x="894" y="-259"/>
      <point x="838" y="-259" type="curve" smooth="yes"/>
      <point x="681" y="-259"/>
      <point x="702" y="160"/>
      <point x="335" y="160" type="curve" smooth="yes"/>
    </contour>
    <contour>
      <point x="291" y="160" type="line"/>
      <point x="1054" y="980" type="line"/>
      <point x="1077" y="1117" type="line"/>
      <point x="216" y="1117" type="line"/>
      <point x="190" y="957" type="line"/>
      <point x="830" y="957" type="line"/>
      <point x="64" y="145" type="line"/>
      <point x="41" y="0" type="line"/>
      <point x="265" y="0" type="line"/>
    </contour>
  </outline>
</glyph>
<glyph name="Vturned" format="2">
  <advance height="2479" width="1385"/>
  <unicode hex="0245"/>
  <outline>
    <contour>
      <point x="-41" y="0" type="line"/>
      <point x="151" y="0" type="line"/>
      <point x="801" y="1254" type="line"/>
      <point x="819" y="1254" type="line"/>
      <point x="1053" y="0" type="line"/>
      <point x="1239" y="0" type="line"/>
      <point x="938" y="1489" type="line"/>
      <point x="752" y="1489" type="line"/>
    </contour>
  </outline>
</glyph>
<glyph name="Qhooktail" format="2">
  <advance height="2479" width="1643"/>
  <unicode hex="024A"/>
  <outline>
    <contour>
      <point x="1532" y="1489" type="line"/>
      <point x="1367" y="1489" type="line"/>
      <point x="1329" y="1260" type="line"/>
      <point x="1311" y="1260" type="line"/>
      <point x="1263" y="1417"/>
      <point x="1113" y="1510"/>
      <point x="910" y="1510" type="curve" smooth="yes"/>
      <point x="535" y="1510"/>
      <point x="225" y="1193"/>
      <point x="153" y="751" type="curve" smooth="yes"/>
      <point x="77" y="294"/>
      <point x="284" y="-23"/>
      <point x="657" y="-23" type="curve" smooth="yes"/>
      <point x="857" y="-23"/>
      <point x="1038" y="70"/>
      <point x="1140" y="236" type="curve"/>
      <point x="1151" y="236" type="line"/>
      <point x="1093" y="-119" type="line" smooth="yes"/>
      <point x="1062" y="-311"/>
      <point x="1172" y="-419"/>
      <point x="1335" y="-419" type="curve" smooth="yes"/>
      <point x="1370" y="-419"/>
      <point x="1408" y="-419"/>
      <point x="1436" y="-410" type="curve"/>
      <point x="1460" y="-265" type="line"/>
      <point x="1444" y="-268"/>
      <point x="1423" y="-271"/>
      <point x="1404" y="-271" type="curve" smooth="yes"/>
      <point x="1310" y="-271"/>
      <point x="1246" y="-236"/>
      <point x="1265" y="-119" type="curve" smooth="yes"/>
    </contour>
    <contour>
      <point x="683" y="148" type="curve" smooth="yes"/>
      <point x="420" y="148"/>
      <point x="268" y="378"/>
      <point x="331" y="748" type="curve" smooth="yes"/>
      <point x="387" y="1094"/>
      <point x="609" y="1347"/>
      <point x="887" y="1347" type="curve" smooth="yes"/>
      <point x="1202" y="1347"/>
      <point x="1283" y="1082"/>
      <point x="1241" y="748" type="curve" smooth="yes"/>
      <point x="1175" y="412"/>
      <point x="1021" y="148"/>
    </contour>
  </outline>
</glyph>
<glyph name="Ystroke" format="2">
  <advance height="2479" width="1367"/>
  <unicode hex="024E"/>
  <anchor x="588" y="0" name="bottom"/>
  <anchor x="687" y="593" name="cross"/>
  <anchor x="678" y="0" name="ogonek"/>
  <anchor x="140" y="1489" name="tonos"/>
  <anchor x="867" y="1676" name="top"/>
  <outline>
    <contour>
      <point x="1466" y="1184" type="line"/>
      <point x="111" y="1184" type="line"/>
      <point x="90" y="1065" type="line"/>
      <point x="1446" y="1065" type="line"/>
    </contour>
    <component base="Y"/>
  </outline>
</glyph>
<glyph name="ystroke" format="2">
  <advance height="2479" width="1140"/>
  <unicode hex="024F"/>
  <anchor x="746" y="-49" name="bottom"/>
  <anchor x="570" y="-419" name="ogonek"/>
  <anchor x="694" y="1303" name="top"/>
  <outline>
    <contour>
      <point x="1103" y="797" type="line"/>
      <point x="125" y="797" type="line"/>
      <point x="102" y="663" type="line"/>
      <point x="1079" y="663" type="line"/>
    </contour>
    <component base="y"/>
  </outline>
</glyph>
<glyph name="alphaturned-latin" format="2">
  <advance height="2479" width="1276"/>
  <unicode hex="0252"/>
  <anchor x="562" y="0" name="bottom"/>
  <anchor x="88" y="0" name="ogonek"/>
  <anchor x="782" y="1303" name="rhalfring"/>
  <anchor x="770" y="1303" name="top"/>
  <outline>
    <contour>
      <point x="616" y="-23" type="curve" smooth="yes"/>
      <point x="885" y="-23"/>
      <point x="1106" y="190"/>
      <point x="1166" y="534" type="curve" smooth="yes"/>
      <point x="1224" y="897"/>
      <point x="1056" y="1132"/>
      <point x="763" y="1132" type="curve" smooth="yes"/>
      <point x="555" y="1132"/>
      <point x="472" y="999"/>
      <point x="424" y="940" type="curve"/>
      <point x="413" y="940" type="line"/>
      <point x="445" y="1117" type="line"/>
      <point x="272" y="1117" type="line"/>
      <point x="87" y="0" type="line"/>
      <point x="254" y="0" type="line"/>
      <point x="283" y="172" type="line"/>
      <point x="295" y="172" type="line"/>
      <point x="322" y="111"/>
      <point x="391" y="-23"/>
    </contour>
    <contour>
      <point x="577" y="131" type="curve" smooth="yes"/>
      <point x="381" y="131"/>
      <point x="306" y="295"/>
      <point x="349" y="537" type="curve" smooth="yes"/>
      <point x="390" y="798"/>
      <point x="539" y="977"/>
      <point x="759" y="977" type="curve" smooth="yes"/>
      <point x="967" y="977"/>
      <point x="1034" y="805"/>
      <point x="994" y="580" type="curve" smooth="yes"/>
      <point x="955" y="331"/>
      <point x="802" y="131"/>
    </contour>
  </outline>
</glyph>
<glyph name="bhook" format="2">
  <advance height="2479" width="1271"/>
  <unicode hex="0253"/>
  <outline>
    <contour>
      <point x="596" y="-23" type="curve" smooth="yes"/>
      <point x="876" y="-23"/>
      <point x="1108" y="201"/>
      <point x="1167" y="556" type="curve" smooth="yes"/>
      <point x="1225" y="908"/>
      <point x="1068" y="1132"/>
      <point x="785" y="1132" type="curve" smooth="yes"/>
      <point x="567" y="1132"/>
      <point x="477" y="998"/>
      <point x="431" y="940" type="curve"/>
      <point x="416" y="940" type="line"/>
      <point x="460" y="1210" type="line" smooth="yes"/>
      <point x="480" y="1327"/>
      <point x="556" y="1361"/>
      <point x="649" y="1361" type="curve" smooth="yes"/>
      <point x="669" y="1361"/>
      <point x="689" y="1359"/>
      <point x="701" y="1356" type="curve"/>
      <point x="727" y="1501" type="line"/>
      <point x="701" y="1510"/>
      <point x="663" y="1510"/>
      <point x="628" y="1510" type="curve" smooth="yes"/>
      <point x="465" y="1510"/>
      <point x="320" y="1402"/>
      <point x="288" y="1210" type="curve" smooth="yes"/>
      <point x="87" y="0" type="line"/>
      <point x="253" y="0" type="line"/>
      <point x="282" y="172" type="line"/>
      <point x="303" y="172" type="line"/>
      <point x="332" y="111"/>
      <point x="381" y="-23"/>
    </contour>
    <contour>
      <point x="599" y="131" type="curve" smooth="yes"/>
      <point x="393" y="131"/>
      <point x="308" y="305"/>
      <point x="349" y="559" type="curve" smooth="yes"/>
      <point x="390" y="809"/>
      <point x="529" y="977"/>
      <point x="739" y="977" type="curve" smooth="yes"/>
      <point x="957" y="977"/>
      <point x="1033" y="794"/>
      <point x="995" y="559" type="curve" smooth="yes"/>
      <point x="954" y="320"/>
      <point x="815" y="131"/>
    </contour>
  </outline>
</glyph>
<glyph name="dtail" format="2">
  <advance height="2479" width="1248"/>
  <unicode hex="0256"/>
  <anchor x="521" y="0" name="bottom"/>
  <anchor x="1126" y="1280" name="cross"/>
  <anchor x="1404" y="1489" name="raccent"/>
  <anchor x="748" y="1489" name="top"/>
  <outline>
    <contour>
      <point x="1047" y="-419" type="curve" smooth="yes"/>
      <point x="1082" y="-419"/>
      <point x="1120" y="-419"/>
      <point x="1149" y="-410" type="curve"/>
      <point x="1172" y="-265" type="line"/>
      <point x="1158" y="-268"/>
      <point x="1137" y="-271"/>
      <point x="1117" y="-271" type="curve" smooth="yes"/>
      <point x="1024" y="-271"/>
      <point x="956" y="-259"/>
      <point x="980" y="-108" type="curve" smooth="yes"/>
      <point x="1033" y="212" type="line"/>
      <point x="861" y="212" type="line"/>
      <point x="806" y="-119" type="line" smooth="yes"/>
      <point x="777" y="-311"/>
      <point x="884" y="-419"/>
    </contour>
    <component base="d"/>
  </outline>
</glyph>
<glyph name="dhook" format="2">
  <advance height="2479" width="1260"/>
  <unicode hex="0257"/>
  <outline>
    <contour>
      <point x="481" y="-23" type="curve" smooth="yes"/>
      <point x="696" y="-23"/>
      <point x="790" y="111"/>
      <point x="839" y="172" type="curve"/>
      <point x="924" y="172" type="line"/>
      <point x="1050" y="940" type="line"/>
      <point x="966" y="940" type="line"/>
      <point x="938" y="998"/>
      <point x="893" y="1132"/>
      <point x="674" y="1132" type="curve" smooth="yes"/>
      <point x="392" y="1132"/>
      <point x="161" y="908"/>
      <point x="103" y="556" type="curve" smooth="yes"/>
      <point x="43" y="201"/>
      <point x="202" y="-23"/>
    </contour>
    <contour>
      <point x="1027" y="1216" type="curve"/>
      <point x="966" y="852" type="line"/>
      <point x="977" y="570" type="line"/>
      <point x="866" y="209" type="line"/>
      <point x="832" y="0" type="line"/>
      <point x="998" y="0" type="line"/>
      <point x="1199" y="1216" type="line" smooth="yes"/>
      <point x="1217" y="1332"/>
      <point x="1297" y="1359"/>
      <point x="1391" y="1359" type="curve" smooth="yes"/>
      <point x="1405" y="1359"/>
      <point x="1431" y="1359"/>
      <point x="1443" y="1353" type="curve"/>
      <point x="1469" y="1501" type="line"/>
      <point x="1443" y="1510"/>
      <point x="1402" y="1513"/>
      <point x="1370" y="1513" type="curve" smooth="yes"/>
      <point x="1194" y="1513"/>
      <point x="1057" y="1394"/>
    </contour>
    <contour>
      <point x="529" y="131" type="curve" smooth="yes"/>
      <point x="314" y="131"/>
      <point x="237" y="320"/>
      <point x="275" y="559" type="curve" smooth="yes"/>
      <point x="315" y="794"/>
      <point x="452" y="977"/>
      <point x="670" y="977" type="curve" smooth="yes"/>
      <point x="879" y="977"/>
      <point x="963" y="809"/>
      <point x="921" y="559" type="curve" smooth="yes"/>
      <point x="878" y="305"/>
      <point x="736" y="131"/>
    </contour>
  </outline>
</glyph>
<glyph name="ereversed" format="2">
  <advance height="2479" width="1241"/>
  <unicode hex="0258"/>
  <anchor x="548" y="0" name="bottom"/>
  <anchor x="545" y="0" name="cedilla"/>
  <anchor x="379" y="0" name="ogonek"/>
  <anchor x="765" y="1303" name="top"/>
  <outline>
    <contour>
      <point x="529" y="-23" type="curve"/>
      <point x="847" y="-23"/>
      <point x="1077" y="201"/>
      <point x="1133" y="538" type="curve" smooth="yes"/>
      <point x="1190" y="887"/>
      <point x="1024" y="1132"/>
      <point x="717" y="1132" type="curve" smooth="yes"/>
      <point x="489" y="1132"/>
      <point x="224" y="995"/>
      <point x="155" y="579" type="curve" smooth="yes"/>
      <point x="142" y="500" type="line"/>
      <point x="1003" y="500" type="line"/>
      <point x="1028" y="649" type="line"/>
      <point x="341" y="649" type="line"/>
      <point x="372" y="838"/>
      <point x="521" y="977"/>
      <point x="712" y="977" type="curve"/>
      <point x="913" y="977"/>
      <point x="1006" y="812"/>
      <point x="975" y="628" type="curve" smooth="yes"/>
      <point x="959" y="529" type="line" smooth="yes"/>
      <point x="917" y="276"/>
      <point x="746" y="131"/>
      <point x="533" y="131" type="curve" smooth="yes"/>
      <point x="404" y="131"/>
      <point x="315" y="184"/>
      <point x="290" y="300" type="curve"/>
      <point x="122" y="265" type="line"/>
      <point x="147" y="95"/>
      <point x="297" y="-23"/>
    </contour>
  </outline>
</glyph>
<glyph name="schwahook" format="2">
  <advance height="2479" width="1605"/>
  <unicode hex="025A"/>
  <outline>
    <contour>
      <point x="548" y="-15" type="curve" smooth="yes"/>
      <point x="846" y="-15"/>
      <point x="1080" y="218"/>
      <point x="1136" y="556" type="curve" smooth="yes"/>
      <point x="1194" y="905"/>
      <point x="1030" y="1140"/>
      <point x="702" y="1140" type="curve" smooth="yes"/>
      <point x="480" y="1140"/>
      <point x="300" y="1032"/>
      <point x="219" y="864" type="curve"/>
      <point x="379" y="806" type="line"/>
      <point x="442" y="923"/>
      <point x="558" y="986"/>
      <point x="696" y="986" type="curve" smooth="yes"/>
      <point x="863" y="986"/>
      <point x="959" y="895"/>
      <point x="973" y="727" type="curve"/>
      <point x="152" y="559" type="line"/>
      <point x="151" y="550" type="line" smooth="yes"/>
      <point x="104" y="130"/>
      <point x="311" y="-15"/>
    </contour>
    <contour>
      <point x="554" y="140" type="curve" smooth="yes"/>
      <point x="380" y="140"/>
      <point x="289" y="261"/>
      <point x="308" y="438" type="curve"/>
      <point x="967" y="578" type="line"/>
      <point x="966" y="571"/>
      <point x="965" y="563"/>
      <point x="964" y="556" type="curve" smooth="yes"/>
      <point x="921" y="293"/>
      <point x="769" y="140"/>
    </contour>
    <contour>
      <point x="1410" y="387" type="curve" smooth="yes"/>
      <point x="1448" y="387"/>
      <point x="1492" y="391"/>
      <point x="1532" y="408" type="curve"/>
      <point x="1516" y="566" type="line"/>
      <point x="1502" y="563"/>
      <point x="1474" y="553"/>
      <point x="1453" y="553" type="curve" smooth="yes"/>
      <point x="1349" y="553"/>
      <point x="1362" y="629"/>
      <point x="1363" y="792" type="curve"/>
      <point x="989" y="728" type="line"/>
      <point x="969" y="579" type="line"/>
      <point x="1213" y="629" type="line"/>
      <point x="1226" y="512"/>
      <point x="1259" y="387"/>
    </contour>
  </outline>
</glyph>
<glyph name="eopenreversedhook" format="2">
  <advance height="2479" width="1478"/>
  <unicode hex="025D"/>
  <anchor x="688" y="1303" name="top"/>
  <outline>
    <contour>
      <point x="931" y="727" type="line"/>
      <point x="1071" y="753" type="line"/>
      <point x="1076" y="620"/>
      <point x="1111" y="503"/>
      <point x="1277" y="503" type="curve" smooth="yes"/>
      <point x="1324" y="503"/>
      <point x="1370" y="515"/>
      <point x="1411" y="535" type="curve"/>
      <point x="1405" y="657" type="line"/>
      <point x="1391" y="655"/>
      <point x="1376" y="652"/>
      <point x="1341" y="652" type="curve" smooth="yes"/>
      <point x="1233" y="652"/>
      <point x="1228" y="771"/>
      <point x="1231" y="943" type="curve"/>
      <point x="957" y="890" type="line"/>
    </contour>
    <component base="eopenreversed"/>
  </outline>
</glyph>
<glyph name="henghook" format="2">
  <advance height="2479" width="1199"/>
  <unicode hex="0267"/>
  <anchor x="506" y="0" name="bottom"/>
  <anchor x="721" y="1303" name="top"/>
  <outline>
    <contour>
      <point x="777" y="0" type="line"/>
      <point x="753" y="-119" type="line" smooth="yes"/>
      <point x="731" y="-236"/>
      <point x="660" y="-271"/>
      <point x="567" y="-271" type="curve" smooth="yes"/>
      <point x="547" y="-271"/>
      <point x="527" y="-268"/>
      <point x="512" y="-265" type="curve"/>
      <point x="489" y="-410" type="line"/>
      <point x="512" y="-419"/>
      <point x="550" y="-419"/>
      <point x="585" y="-419" type="curve" smooth="yes"/>
      <point x="748" y="-419"/>
      <point x="888" y="-311"/>
      <point x="925" y="-119" type="curve" smooth="yes"/>
      <point x="948" y="0" type="line"/>
    </contour>
    <component base="hhook"/>
  </outline>
</glyph>
<glyph name="Ismall" format="2">
  <advance height="2479" width="701"/>
  <unicode hex="026A"/>
  <outline>
    <contour>
      <point x="675" y="1117" type="line"/>
      <point x="212" y="1117" type="line"/>
      <point x="185" y="957" type="line"/>
      <point x="647" y="957" type="line"/>
    </contour>
    <contour>
      <point x="527" y="1117" type="line"/>
      <point x="355" y="1117" type="line"/>
      <point x="169" y="0" type="line"/>
      <point x="340" y="0" type="line"/>
    </contour>
    <contour>
      <point x="516" y="160" type="line"/>
      <point x="54" y="160" type="line"/>
      <point x="26" y="0" type="line"/>
      <point x="489" y="0" type="line"/>
    </contour>
  </outline>
</glyph>
<glyph name="lezh" format="2">
  <advance height="2479" width="1463"/>
  <unicode hex="026E"/>
  <anchor x="173" y="0" name="bottom"/>
  <anchor x="302" y="768" name="cross"/>
  <anchor x="648" y="1489" name="raccent"/>
  <anchor x="451" y="1676" name="top"/>
  <outline>
    <contour>
      <point x="661" y="-442" type="curve" smooth="yes"/>
      <point x="961" y="-442"/>
      <point x="1214" y="-247"/>
      <point x="1260" y="28" type="curve" smooth="yes"/>
      <point x="1304" y="295"/>
      <point x="1139" y="479"/>
      <point x="847" y="492" type="curve"/>
      <point x="848" y="503" type="line"/>
      <point x="1330" y="986" type="line"/>
      <point x="1350" y="1117" type="line"/>
      <point x="440.1875" y="1117.0" type="line"/>
      <point x="412.75" y="957.0" type="line"/>
      <point x="1075" y="957" type="line"/>
      <point x="1072" y="945" type="line"/>
      <point x="626" y="497" type="line"/>
      <point x="604" y="352" type="line"/>
      <point x="730" y="352" type="line" smooth="yes"/>
      <point x="981" y="352"/>
      <point x="1121" y="230"/>
      <point x="1090" y="44" type="curve" smooth="yes"/>
      <point x="1058" y="-148"/>
      <point x="878" y="-282"/>
      <point x="662" y="-282" type="curve" smooth="yes"/>
      <point x="536" y="-282"/>
      <point x="464" y="-241"/>
      <point x="393" y="-118" type="curve"/>
      <point x="233" y="-214" type="line"/>
      <point x="285" y="-330"/>
      <point x="406" y="-442"/>
    </contour>
    <component base="l" xOffset="23"/>
  </outline>
</glyph>
<glyph name="mhook" format="2">
  <advance height="2479" width="1780"/>
  <unicode hex="0271"/>
  <anchor x="797" y="0" name="bottom"/>
  <anchor x="1012" y="1303" name="top"/>
  <outline>
    <contour>
      <point x="1359" y="0" type="line"/>
      <point x="1338" y="-119" type="line" smooth="yes"/>
      <point x="1319" y="-236"/>
      <point x="1245" y="-271"/>
      <point x="1152" y="-271" type="curve" smooth="yes"/>
      <point x="1132" y="-271"/>
      <point x="1111" y="-268"/>
      <point x="1097" y="-265" type="curve"/>
      <point x="1073" y="-410" type="line"/>
      <point x="1097" y="-419"/>
      <point x="1135" y="-419"/>
      <point x="1169" y="-419" type="curve" smooth="yes"/>
      <point x="1332" y="-419"/>
      <point x="1477" y="-311"/>
      <point x="1510" y="-119" type="curve" smooth="yes"/>
      <point x="1530" y="0" type="line"/>
    </contour>
    <component base="m"/>
  </outline>
</glyph>
<glyph name="nhookleft" format="2">
  <advance height="2479" width="1236"/>
  <unicode hex="0272"/>
  <anchor x="543" y="0" name="bottom"/>
  <anchor x="758" y="1303" name="top"/>
  <outline>
    <contour>
      <point x="101" y="0" type="line"/>
      <point x="81" y="-119" type="line" smooth="yes"/>
      <point x="60" y="-235"/>
      <point x="-14" y="-271"/>
      <point x="-108" y="-271" type="curve" smooth="yes"/>
      <point x="-127" y="-271"/>
      <point x="-148" y="-268"/>
      <point x="-164" y="-265" type="curve"/>
      <point x="-187" y="-410" type="line"/>
      <point x="-162" y="-419"/>
      <point x="-124" y="-419"/>
      <point x="-91" y="-419" type="curve" smooth="yes"/>
      <point x="73" y="-419"/>
      <point x="218" y="-311"/>
      <point x="252" y="-119" type="curve" smooth="yes"/>
      <point x="273" y="0" type="line"/>
    </contour>
    <component base="n" xOffset="37"/>
  </outline>
</glyph>
<glyph name="Nsmall" format="2">
  <advance height="2479" width="1246"/>
  <unicode hex="0274"/>
  <outline>
    <contour>
      <point x="1136" y="1117" type="line"/>
      <point x="964" y="1117" type="line"/>
      <point x="832" y="317" type="line"/>
      <point x="817" y="317" type="line"/>
      <point x="416" y="1117" type="line"/>
      <point x="250" y="1117" type="line"/>
      <point x="64" y="0" type="line"/>
      <point x="236" y="0" type="line"/>
      <point x="368" y="797" type="line"/>
      <point x="383" y="797" type="line"/>
      <point x="781" y="0" type="line"/>
      <point x="950" y="0" type="line"/>
    </contour>
  </outline>
</glyph>
<glyph name="OEsmall" format="2">
  <advance height="2479" width="1547"/>
  <unicode hex="0276"/>
  <outline>
    <contour>
      <point x="642" y="0" type="line"/>
      <point x="1362" y="0" type="line"/>
      <point x="1388" y="154" type="line"/>
      <point x="840" y="154" type="line"/>
      <point x="894" y="483" type="line"/>
      <point x="1398" y="483" type="line"/>
      <point x="1424" y="637" type="line"/>
      <point x="920" y="637" type="line"/>
      <point x="974" y="963" type="line"/>
      <point x="1513" y="963" type="line"/>
      <point x="1539" y="1117" type="line"/>
      <point x="828" y="1117" type="line"/>
    </contour>
    <contour>
      <point x="552" y="0" type="curve" smooth="yes"/>
      <point x="697" y="0" type="line"/>
      <point x="723" y="154" type="line"/>
      <point x="566" y="153" type="line" smooth="yes"/>
      <point x="349" y="154"/>
      <point x="235" y="310"/>
      <point x="275" y="547" type="curve" smooth="yes"/>
      <point x="316" y="797"/>
      <point x="493" y="963"/>
      <point x="710" y="961" type="curve" smooth="yes"/>
      <point x="857" y="963" type="line"/>
      <point x="883" y="1117" type="line"/>
      <point x="726" y="1117" type="line" smooth="yes"/>
      <point x="405" y="1117"/>
      <point x="162" y="901"/>
      <point x="107" y="570" type="curve" smooth="yes"/>
      <point x="51" y="228"/>
      <point x="230" y="0"/>
    </contour>
  </outline>
</glyph>
<glyph name="omegaclosed-latin" format="2">
  <advance height="2479" width="1664"/>
  <unicode hex="0277"/>
  <outline>
    <contour>
      <point x="928" y="1132" type="line"/>
      <point x="401" y="1132"/>
      <point x="153" y="815"/>
      <point x="100" y="497" type="curve" smooth="yes"/>
      <point x="61" y="259"/>
      <point x="120" y="-20"/>
      <point x="413" y="-20" type="curve" smooth="yes"/>
      <point x="647" y="-20"/>
      <point x="804" y="157"/>
      <point x="855" y="471" type="curve" smooth="yes"/>
      <point x="887" y="660" type="line"/>
      <point x="751" y="660" type="line"/>
      <point x="719" y="471" type="line" smooth="yes"/>
      <point x="679" y="230"/>
      <point x="567" y="140"/>
      <point x="457" y="140" type="curve" smooth="yes"/>
      <point x="293" y="140"/>
      <point x="273" y="329"/>
      <point x="303" y="502" type="curve" smooth="yes"/>
      <point x="346" y="768"/>
      <point x="505" y="972"/>
      <point x="900" y="972" type="curve"/>
    </contour>
    <contour>
      <point x="900" y="972" type="line"/>
      <point x="1297" y="972"/>
      <point x="1388" y="768"/>
      <point x="1344" y="502" type="curve" smooth="yes"/>
      <point x="1315" y="329"/>
      <point x="1233" y="140"/>
      <point x="1071" y="140" type="curve" smooth="yes"/>
      <point x="959" y="140"/>
      <point x="877" y="230"/>
      <point x="916" y="471" type="curve" smooth="yes"/>
      <point x="948" y="660" type="line"/>
      <point x="812" y="660" type="line"/>
      <point x="780" y="471" type="line" smooth="yes"/>
      <point x="728" y="157"/>
      <point x="827" y="-20"/>
      <point x="1059" y="-20" type="curve" smooth="yes"/>
      <point x="1353" y="-20"/>
      <point x="1504" y="259"/>
      <point x="1543" y="497" type="curve" smooth="yes"/>
      <point x="1596" y="815"/>
      <point x="1454" y="1132"/>
      <point x="928" y="1132" type="curve"/>
    </contour>
  </outline>
</glyph>
<glyph name="rhookturned" format="2">
  <advance height="2479" width="804"/>
  <unicode hex="027B"/>
  <anchor x="289" y="0" name="bottom"/>
  <anchor x="524.0" y="582.0" name="cross"/>
  <anchor x="643" y="1303" name="top"/>
  <outline>
    <contour>
      <point x="561" y="-436" type="curve" smooth="yes"/>
      <point x="593" y="-436"/>
      <point x="637" y="-433"/>
      <point x="663" y="-425" type="curve"/>
      <point x="687" y="-291" type="line"/>
      <point x="669" y="-297"/>
      <point x="643" y="-297"/>
      <point x="628" y="-297" type="curve" smooth="yes"/>
      <point x="516" y="-297"/>
      <point x="473" y="-249"/>
      <point x="492" y="-140" type="curve" smooth="yes"/>
      <point x="515" y="0" type="line"/>
      <point x="349" y="0" type="line"/>
      <point x="326" y="-140" type="line" smooth="yes"/>
      <point x="294" y="-331"/>
      <point x="399" y="-436"/>
    </contour>
    <component base="rturned"/>
  </outline>
</glyph>
<glyph name="rlongleg" format="2">
  <advance height="2479" width="765"/>
  <unicode hex="027C"/>
  <anchor x="148" y="0" name="bottom"/>
  <anchor x="241" y="535" name="cross"/>
  <anchor x="544" y="1303" name="top"/>
  <outline>
    <contour>
      <point x="-6" y="-419" type="line"/>
      <point x="166" y="-419" type="line"/>
      <point x="235" y="0" type="line"/>
      <point x="64" y="0" type="line"/>
    </contour>
    <component base="r"/>
  </outline>
</glyph>
<glyph name="rtail" format="2">
  <advance height="2479" width="766"/>
  <unicode hex="027D"/>
  <anchor x="149" y="0" name="bottom"/>
  <anchor x="242" y="535" name="cross"/>
  <anchor x="545" y="1303" name="top"/>
  <outline>
    <contour>
      <point x="286" y="-419" type="curve" smooth="yes"/>
      <point x="321" y="-419"/>
      <point x="359" y="-419"/>
      <point x="388" y="-410" type="curve"/>
      <point x="411" y="-265" type="line"/>
      <point x="397" y="-268"/>
      <point x="377" y="-271"/>
      <point x="356" y="-271" type="curve" smooth="yes"/>
      <point x="263" y="-271"/>
      <point x="199" y="-236"/>
      <point x="216" y="-119" type="curve" smooth="yes"/>
      <point x="236" y="0" type="line"/>
      <point x="65" y="0" type="line"/>
      <point x="44" y="-119" type="line" smooth="yes"/>
      <point x="13" y="-311"/>
      <point x="124" y="-419"/>
    </contour>
    <component base="r" xOffset="1"/>
  </outline>
</glyph>
<glyph name="rfishhook" format="2">
  <advance height="2479" width="625"/>
  <unicode hex="027E"/>
  <outline>
    <contour>
      <point x="236" y="0" type="line"/>
      <point x="372" y="823" type="line" smooth="yes"/>
      <point x="393" y="937"/>
      <point x="483" y="972"/>
      <point x="576" y="972" type="curve" smooth="yes"/>
      <point x="593" y="972"/>
      <point x="611" y="969"/>
      <point x="628" y="966" type="curve"/>
      <point x="655" y="1117" type="line"/>
      <point x="628" y="1126"/>
      <point x="588" y="1132"/>
      <point x="559" y="1132" type="curve" smooth="yes"/>
      <point x="396" y="1132"/>
      <point x="236" y="1027"/>
      <point x="204" y="835" type="curve" smooth="yes"/>
      <point x="64" y="0" type="line"/>
    </contour>
  </outline>
</glyph>
<glyph name="rfishhookreversed" format="2">
  <advance height="2479" width="614"/>
  <unicode hex="027F"/>
  <outline>
    <contour>
      <point x="294" y="-419" type="line"/>
      <point x="503" y="835" type="line" smooth="yes"/>
      <point x="535" y="1027"/>
      <point x="410" y="1132"/>
      <point x="247" y="1132" type="curve" smooth="yes"/>
      <point x="218" y="1132"/>
      <point x="172" y="1126"/>
      <point x="145" y="1117" type="curve"/>
      <point x="119" y="966" type="line"/>
      <point x="137" y="969"/>
      <point x="160" y="972"/>
      <point x="177" y="972" type="curve" smooth="yes"/>
      <point x="271" y="972"/>
      <point x="349" y="937"/>
      <point x="329" y="823" type="curve" smooth="yes"/>
      <point x="122" y="-419" type="line"/>
    </contour>
  </outline>
</glyph>
<glyph name="shook" format="2">
  <advance height="2479" width="1071"/>
  <unicode hex="0282"/>
  <anchor x="460" y="0" name="bottom"/>
  <anchor x="457" y="0" name="cedilla"/>
  <anchor x="675" y="1303" name="top"/>
  <outline>
    <contour>
      <point x="58" y="268" type="line"/>
      <point x="9" y="-32" type="line" smooth="yes"/>
      <point x="-23" y="-224"/>
      <point x="90" y="-329"/>
      <point x="256" y="-329" type="curve" smooth="yes"/>
      <point x="288" y="-329"/>
      <point x="329" y="-326"/>
      <point x="355" y="-317" type="curve"/>
      <point x="381" y="-169" type="line"/>
      <point x="364" y="-175"/>
      <point x="337" y="-175"/>
      <point x="323" y="-175" type="curve" smooth="yes"/>
      <point x="230" y="-175"/>
      <point x="140" y="-148"/>
      <point x="157" y="-32" type="curve" smooth="yes"/>
      <point x="207" y="268" type="line"/>
    </contour>
    <component base="s"/>
  </outline>
</glyph>
<glyph name="esh" format="2">
  <advance height="2479" width="780"/>
  <unicode hex="0283"/>
  <outline>
    <contour>
      <point x="-23" y="-442" type="curve" smooth="yes"/>
      <point x="132" y="-442"/>
      <point x="296" y="-352"/>
      <point x="328" y="-160" type="curve" smooth="yes"/>
      <point x="556" y="1225" type="line" smooth="yes"/>
      <point x="575" y="1335"/>
      <point x="638" y="1399"/>
      <point x="756" y="1399" type="curve" smooth="yes"/>
      <point x="801" y="1399"/>
      <point x="828" y="1389"/>
      <point x="844" y="1383" type="curve"/>
      <point x="910" y="1527" type="line"/>
      <point x="884" y="1540"/>
      <point x="834" y="1559"/>
      <point x="744" y="1559" type="curve" smooth="yes"/>
      <point x="590" y="1559"/>
      <point x="425" y="1469"/>
      <point x="393" y="1277" type="curve" smooth="yes"/>
      <point x="165" y="-108" type="line" smooth="yes"/>
      <point x="146" y="-218"/>
      <point x="84" y="-282"/>
      <point x="-34" y="-282" type="curve" smooth="yes"/>
      <point x="-79" y="-282"/>
      <point x="-106" y="-272"/>
      <point x="-123" y="-266" type="curve"/>
      <point x="-188" y="-410" type="line"/>
      <point x="-162" y="-423"/>
      <point x="-113" y="-442"/>
    </contour>
  </outline>
</glyph>
<glyph name="eshcurl" format="2">
  <advance height="2479" width="1105"/>
  <unicode hex="0286"/>
  <outline>
    <contour>
      <point x="649" y="227" type="line"/>
      <point x="477" y="227" type="line"/>
      <point x="477" y="227"/>
      <point x="425" y="-87"/>
      <point x="416" y="-148" type="curve" smooth="yes"/>
      <point x="407" y="-213"/>
      <point x="343" y="-259"/>
      <point x="262" y="-259" type="curve" smooth="yes"/>
      <point x="201" y="-259"/>
      <point x="169" y="-215"/>
      <point x="177" y="-154" type="curve" smooth="yes"/>
      <point x="186" y="-95"/>
      <point x="241" y="-47"/>
      <point x="311" y="-47" type="curve" smooth="yes"/>
      <point x="393" y="-47"/>
      <point x="463" y="-113"/>
      <point x="550" y="-218" type="curve"/>
      <point x="675" y="-378" type="line"/>
      <point x="809" y="-259" type="line"/>
      <point x="608" y="-23" type="line"/>
      <point x="521" y="61"/>
      <point x="431" y="113"/>
      <point x="311" y="113" type="curve" smooth="yes"/>
      <point x="151" y="113"/>
      <point x="9" y="17"/>
      <point x="-20" y="-154" type="curve" smooth="yes"/>
      <point x="-47" y="-308"/>
      <point x="58" y="-419"/>
      <point x="239" y="-419" type="curve" smooth="yes"/>
      <point x="474" y="-419"/>
      <point x="567" y="-265"/>
      <point x="593" y="-105" type="curve"/>
    </contour>
    <contour>
      <point x="614" y="17" type="line"/>
      <point x="809" y="1193" type="line" smooth="yes"/>
      <point x="830" y="1321"/>
      <point x="922" y="1391"/>
      <point x="1036" y="1391" type="curve" smooth="yes"/>
      <point x="1071" y="1391"/>
      <point x="1108" y="1388"/>
      <point x="1135" y="1382" type="curve"/>
      <point x="1172" y="1542" type="line"/>
      <point x="1129" y="1551"/>
      <point x="1088" y="1556"/>
      <point x="1047" y="1556" type="curve" smooth="yes"/>
      <point x="820" y="1556"/>
      <point x="676" y="1428"/>
      <point x="637" y="1193" type="curve" smooth="yes"/>
      <point x="442" y="17" type="line"/>
    </contour>
  </outline>
</glyph>
<glyph name="tretroflexhook" format="2">
  <advance height="2479" width="743"/>
  <unicode hex="0288"/>
  <outline>
    <contour>
      <point x="736" y="1117" type="line"/>
      <point x="157" y="1117" type="line"/>
      <point x="134" y="972" type="line"/>
      <point x="713" y="972" type="line"/>
    </contour>
    <contour>
      <point x="369" y="1385" type="line"/>
      <point x="113" y="-154" type="line" smooth="yes"/>
      <point x="81" y="-349"/>
      <point x="224" y="-442"/>
      <point x="369" y="-442" type="curve" smooth="yes"/>
      <point x="433" y="-442"/>
      <point x="477" y="-431"/>
      <point x="500" y="-422" type="curve"/>
      <point x="492" y="-268" type="line"/>
      <point x="477" y="-271"/>
      <point x="451" y="-276"/>
      <point x="413" y="-276" type="curve" smooth="yes"/>
      <point x="337" y="-276"/>
      <point x="271" y="-253"/>
      <point x="294" y="-108" type="curve" smooth="yes"/>
      <point x="541" y="1385" type="line"/>
    </contour>
  </outline>
</glyph>
<glyph name="vhook" format="2">
  <advance height="2479" width="1242"/>
  <unicode hex="028B"/>
  <outline>
    <contour>
      <point x="472" y="-20" type="curve" smooth="yes"/>
      <point x="806" y="-20"/>
      <point x="990" y="256"/>
      <point x="1042" y="572" type="curve" smooth="yes"/>
      <point x="1079" y="796"/>
      <point x="1064" y="1132"/>
      <point x="799" y="1132" type="curve" smooth="yes"/>
      <point x="748" y="1132"/>
      <point x="691" y="1119"/>
      <point x="643" y="1095" type="curve"/>
      <point x="658" y="964" type="line"/>
      <point x="690" y="975"/>
      <point x="725" y="985"/>
      <point x="758" y="985" type="curve" smooth="yes"/>
      <point x="878" y="985"/>
      <point x="912" y="854"/>
      <point x="878" y="628" type="curve" smooth="yes"/>
      <point x="825" y="300"/>
      <point x="680" y="137"/>
      <point x="488" y="137" type="curve" smooth="yes"/>
      <point x="363" y="137"/>
      <point x="269" y="207"/>
      <point x="304" y="425" type="curve" smooth="yes"/>
      <point x="419" y="1117" type="line"/>
      <point x="248" y="1117" type="line"/>
      <point x="136" y="439" type="line" smooth="yes"/>
      <point x="83" y="125"/>
      <point x="230" y="-20"/>
    </contour>
  </outline>
</glyph>
<glyph name="glottalstopinverted" format="2">
  <advance height="2479" width="1155"/>
  <unicode hex="0296"/>
  <anchor x="666" y="1299" name="cross"/>
  <outline>
    <contour>
      <point x="461" y="-23" type="curve" smooth="yes"/>
      <point x="757" y="-23"/>
      <point x="988" y="194"/>
      <point x="1044" y="525" type="curve" smooth="yes"/>
      <point x="1100" y="869"/>
      <point x="932" y="1097"/>
      <point x="627" y="1097" type="curve"/>
      <point x="612" y="943" type="line"/>
      <point x="812" y="943"/>
      <point x="914" y="785"/>
      <point x="876" y="547" type="curve" smooth="yes"/>
      <point x="833" y="296"/>
      <point x="668" y="131"/>
      <point x="467" y="131" type="curve" smooth="yes"/>
      <point x="335" y="131"/>
      <point x="245" y="208"/>
      <point x="234" y="326" type="curve"/>
      <point x="67" y="326" type="line"/>
      <point x="60" y="116"/>
      <point x="217" y="-23"/>
    </contour>
    <contour>
      <point x="521" y="943" type="line"/>
      <point x="692" y="943" type="line"/>
      <point x="787" y="1510" type="line"/>
      <point x="615" y="1510" type="line"/>
    </contour>
  </outline>
</glyph>
<glyph name="Gsmallhook" format="2">
  <advance height="2479" width="1244"/>
  <unicode hex="029B"/>
  <outline>
    <contour>
      <point x="1089" y="765" type="line"/>
      <point x="1107" y="855" type="line" smooth="yes"/>
      <point x="1127" y="971"/>
      <point x="1191" y="1012"/>
      <point x="1284" y="1012" type="curve" smooth="yes"/>
      <point x="1298" y="1012"/>
      <point x="1321" y="1009"/>
      <point x="1337" y="1007" type="curve"/>
      <point x="1360" y="1140" type="line"/>
      <point x="1333" y="1149"/>
      <point x="1292" y="1155"/>
      <point x="1264" y="1155" type="curve" smooth="yes"/>
      <point x="1097" y="1155"/>
      <point x="1003" y="1045"/>
      <point x="970" y="855" type="curve" smooth="yes"/>
      <point x="953" y="765" type="line"/>
    </contour>
    <component base="Gsmall"/>
  </outline>
</glyph>
<glyph name="qhook" format="2">
  <advance height="2479" width="1390"/>
  <unicode hex="02A0"/>
  <anchor x="883" y="-419" name="bottom"/>
  <anchor x="-125" y="-495" name="bottom0315"/>
  <anchor x="924" y="-163" name="cross"/>
  <anchor x="770" y="1303" name="top"/>
  <outline>
    <contour>
      <point x="1235" y="1117" type="line"/>
      <point x="1249" y="1199"/>
      <point x="1307" y="1233"/>
      <point x="1416" y="1233" type="curve" smooth="yes"/>
      <point x="1433" y="1233"/>
      <point x="1454" y="1231"/>
      <point x="1471" y="1228" type="curve"/>
      <point x="1494" y="1373" type="line"/>
      <point x="1480" y="1379"/>
      <point x="1442" y="1382"/>
      <point x="1398" y="1382" type="curve" smooth="yes"/>
      <point x="1222" y="1382"/>
      <point x="1096" y="1287"/>
      <point x="1070" y="1117" type="curve"/>
    </contour>
    <contour>
      <point x="968" y="-419" type="line"/>
      <point x="1235" y="1117" type="line"/>
      <point x="1070" y="1117" type="line"/>
      <point x="1038" y="940" type="line"/>
      <point x="1017" y="940" type="line"/>
      <point x="991" y="998"/>
      <point x="947" y="1132"/>
      <point x="728" y="1132" type="curve" smooth="yes"/>
      <point x="446" y="1132"/>
      <point x="213" y="908"/>
      <point x="152" y="556" type="curve" smooth="yes"/>
      <point x="88" y="201"/>
      <point x="245" y="-23"/>
      <point x="524" y="-23" type="curve" smooth="yes"/>
      <point x="739" y="-23"/>
      <point x="835" y="111"/>
      <point x="885" y="172" type="curve"/>
      <point x="899" y="172" type="line"/>
      <point x="796" y="-419" type="line"/>
    </contour>
    <contour>
      <point x="969" y="559" type="curve" smooth="yes"/>
      <point x="924" y="305"/>
      <point x="780" y="131"/>
      <point x="574" y="131" type="curve" smooth="yes"/>
      <point x="358" y="131"/>
      <point x="283" y="320"/>
      <point x="323" y="559" type="curve" smooth="yes"/>
      <point x="366" y="794"/>
      <point x="504" y="977"/>
      <point x="722" y="977" type="curve" smooth="yes"/>
      <point x="932" y="977"/>
      <point x="1014" y="809"/>
    </contour>
  </outline>
</glyph>
<glyph name="tccurl" format="2">
  <advance height="2479" width="1718"/>
  <unicode hex="02A8"/>
  <outline>
    <contour>
      <point x="736" y="1117" type="line"/>
      <point x="157" y="1117" type="line"/>
      <point x="134" y="972" type="line"/>
      <point x="713" y="972" type="line"/>
    </contour>
    <contour>
      <point x="369" y="1385" type="line"/>
      <point x="189" y="300" type="line" smooth="yes"/>
      <point x="154" y="87"/>
      <point x="271" y="-17"/>
      <point x="433" y="-15" type="curve" smooth="yes"/>
      <point x="593" y="-15"/>
      <point x="753" y="87"/>
      <point x="881" y="209" type="curve" smooth="yes"/>
      <point x="1012" y="337"/>
      <point x="1114" y="401"/>
      <point x="1233" y="401" type="curve" smooth="yes"/>
      <point x="1321" y="401"/>
      <point x="1347" y="369"/>
      <point x="1338" y="308" type="curve" smooth="yes"/>
      <point x="1318" y="195"/>
      <point x="1187" y="131"/>
      <point x="1056" y="131" type="curve" smooth="yes"/>
      <point x="852" y="131"/>
      <point x="748" y="300"/>
      <point x="791" y="559" type="curve" smooth="yes"/>
      <point x="832" y="812"/>
      <point x="995" y="977"/>
      <point x="1196" y="977" type="curve" smooth="yes"/>
      <point x="1347" y="977"/>
      <point x="1423" y="884"/>
      <point x="1431" y="783" type="curve"/>
      <point x="1603" y="783" type="line"/>
      <point x="1609" y="992"/>
      <point x="1455" y="1132"/>
      <point x="1219" y="1132" type="curve" smooth="yes"/>
      <point x="916" y="1132"/>
      <point x="675" y="893"/>
      <point x="620" y="553" type="curve" smooth="yes"/>
      <point x="564" y="218"/>
      <point x="716" y="-23"/>
      <point x="1030" y="-23" type="curve" smooth="yes"/>
      <point x="1260" y="-23"/>
      <point x="1463" y="111"/>
      <point x="1498" y="305" type="curve" smooth="yes"/>
      <point x="1521" y="448"/>
      <point x="1446" y="556"/>
      <point x="1265" y="556" type="curve" smooth="yes"/>
      <point x="1082" y="556"/>
      <point x="928" y="454"/>
      <point x="768" y="308" type="curve" smooth="yes"/>
      <point x="660" y="212"/>
      <point x="544" y="143"/>
      <point x="460" y="143" type="curve" smooth="yes"/>
      <point x="399" y="143"/>
      <point x="340" y="180"/>
      <point x="361" y="300" type="curve" smooth="yes"/>
      <point x="541" y="1385" type="line"/>
    </contour>
  </outline>
</glyph>
<glyph name="lsdigraph" format="2">
  <advance height="2479" width="1446"/>
  <unicode hex="02AA"/>
  <anchor x="132" y="0" name="bottom"/>
  <anchor x="188" y="768" name="cross"/>
  <anchor x="534" y="1489" name="raccent"/>
  <anchor x="336" y="1676" name="top"/>
  <outline>
    <contour>
      <point x="228" y="-9" type="line"/>
      <point x="396" y="-9"/>
      <point x="535" y="88"/>
      <point x="610" y="268" type="curve"/>
      <point x="433" y="268" type="line"/>
      <point x="406" y="193"/>
      <point x="347" y="146"/>
      <point x="272" y="146" type="curve"/>
    </contour>
    <contour>
      <point x="811" y="-23" type="curve" smooth="yes"/>
      <point x="1070" y="-23"/>
      <point x="1271" y="119"/>
      <point x="1303" y="311" type="curve" smooth="yes"/>
      <point x="1329" y="468"/>
      <point x="1247" y="565"/>
      <point x="1055" y="614" type="curve" smooth="yes"/>
      <point x="895" y="655" type="line" smooth="yes"/>
      <point x="770" y="687"/>
      <point x="718" y="733"/>
      <point x="732" y="817" type="curve" smooth="yes"/>
      <point x="747" y="913"/>
      <point x="860" y="983"/>
      <point x="997" y="983" type="curve" smooth="yes"/>
      <point x="1148" y="983"/>
      <point x="1195" y="902"/>
      <point x="1212" y="823" type="curve"/>
      <point x="1375" y="867" type="line"/>
      <point x="1346" y="1027"/>
      <point x="1244" y="1132"/>
      <point x="1023" y="1132" type="curve" smooth="yes"/>
      <point x="788" y="1132"/>
      <point x="590" y="998"/>
      <point x="558" y="809" type="curve" smooth="yes"/>
      <point x="532" y="655"/>
      <point x="607" y="551"/>
      <point x="805" y="503" type="curve" smooth="yes"/>
      <point x="983" y="460" type="line" smooth="yes"/>
      <point x="1093" y="433"/>
      <point x="1137" y="381"/>
      <point x="1122" y="303" type="curve" smooth="yes"/>
      <point x="1108" y="207"/>
      <point x="991" y="128"/>
      <point x="831" y="128" type="curve" smooth="yes"/>
      <point x="698" y="128"/>
      <point x="617" y="179"/>
      <point x="610" y="268" type="curve"/>
      <point x="433" y="268" type="line"/>
      <point x="442" y="79"/>
      <point x="581" y="-23"/>
    </contour>
    <component base="l.ss02" xOffset="-91"/>
  </outline>
</glyph>
<glyph name="bilabialpercussive" format="2">
  <advance height="2479" width="919"/>
  <unicode hex="02AC"/>
  <outline>
    <contour>
      <point x="332" y="1004" type="line"/>
      <point x="311" y="873" type="line"/>
      <point x="390" y="873" type="line"/>
      <point x="605" y="1324" type="line"/>
      <point x="634" y="1457" type="line"/>
      <point x="544" y="1457" type="line"/>
    </contour>
    <contour>
      <point x="343" y="1457" type="line"/>
      <point x="186" y="1457" type="line"/>
      <point x="262" y="873" type="line"/>
      <point x="349" y="873" type="line"/>
      <point x="364" y="1004" type="line"/>
    </contour>
    <contour>
      <point x="707" y="1004" type="line"/>
      <point x="675" y="873" type="line"/>
      <point x="762" y="873" type="line"/>
      <point x="1030" y="1457" type="line"/>
      <point x="876" y="1457" type="line"/>
    </contour>
    <contour>
      <point x="672" y="1457" type="line"/>
      <point x="588" y="1457" type="line"/>
      <point x="573" y="1327" type="line"/>
      <point x="634" y="873" type="line"/>
      <point x="716" y="873" type="line"/>
      <point x="739" y="1004" type="line"/>
    </contour>
    <contour>
      <point x="189" y="134" type="line"/>
      <point x="166" y="0" type="line"/>
      <point x="244" y="0" type="line"/>
      <point x="460" y="454" type="line"/>
      <point x="489" y="585" type="line"/>
      <point x="399" y="585" type="line"/>
    </contour>
    <contour>
      <point x="198" y="585" type="line"/>
      <point x="41" y="585" type="line"/>
      <point x="116" y="0" type="line"/>
      <point x="204" y="0" type="line"/>
      <point x="221" y="134" type="line"/>
    </contour>
    <contour>
      <point x="564" y="134" type="line"/>
      <point x="529" y="0" type="line"/>
      <point x="617" y="0" type="line"/>
      <point x="884" y="585" type="line"/>
      <point x="730" y="585" type="line"/>
    </contour>
    <contour>
      <point x="527" y="585" type="line"/>
      <point x="442" y="585" type="line"/>
      <point x="428" y="454" type="line"/>
      <point x="489" y="0" type="line"/>
      <point x="570" y="0" type="line"/>
      <point x="596" y="134" type="line"/>
    </contour>
  </outline>
</glyph>
<glyph name="bidentalpercussive" format="2">
  <advance height="2479" width="1105"/>
  <unicode hex="02AD"/>
  <outline>
    <contour>
      <point x="826" y="582" type="line"/>
      <point x="282" y="582" type="line"/>
      <point x="262" y="460" type="line"/>
      <point x="806" y="460" type="line"/>
    </contour>
    <contour>
      <point x="303" y="582" type="line"/>
      <point x="151" y="582" type="line"/>
      <point x="55" y="0" type="line"/>
      <point x="207" y="0" type="line"/>
    </contour>
    <contour>
      <point x="963" y="582" type="line"/>
      <point x="812" y="582" type="line"/>
      <point x="716" y="0" type="line"/>
      <point x="867" y="0" type="line"/>
    </contour>
    <contour>
      <point x="972" y="1455" type="line"/>
      <point x="428" y="1455" type="line"/>
      <point x="407" y="1332" type="line"/>
      <point x="951" y="1332" type="line"/>
    </contour>
    <contour>
      <point x="448" y="1455" type="line"/>
      <point x="297" y="1455" type="line"/>
      <point x="201" y="876" type="line"/>
      <point x="352" y="876" type="line"/>
    </contour>
    <contour>
      <point x="1108" y="1455" type="line"/>
      <point x="957" y="1455" type="line"/>
      <point x="861" y="876" type="line"/>
      <point x="1012" y="876" type="line"/>
    </contour>
  </outline>
</glyph>
<glyph name="hturnedfishhook" format="2">
  <advance height="2479" width="1357"/>
  <unicode hex="02AE"/>
  <outline>
    <contour>
      <point x="155" y="977" type="line"/>
      <point x="169" y="980"/>
      <point x="190" y="983"/>
      <point x="211" y="983" type="curve" smooth="yes"/>
      <point x="303" y="983"/>
      <point x="367" y="948"/>
      <point x="347" y="832" type="curve" smooth="yes"/>
      <point x="278" y="407" type="line" smooth="yes"/>
      <point x="230" y="119"/>
      <point x="358" y="-15"/>
      <point x="589" y="-15" type="curve" smooth="yes"/>
      <point x="763" y="-15"/>
      <point x="876" y="58"/>
      <point x="950" y="175" type="curve"/>
      <point x="964" y="175" type="line"/>
      <point x="865" y="-419" type="line"/>
      <point x="1037" y="-419" type="line"/>
      <point x="1293" y="1117" type="line"/>
      <point x="1121" y="1117" type="line"/>
      <point x="1008" y="445" type="line" smooth="yes"/>
      <point x="975" y="250"/>
      <point x="832" y="140"/>
      <point x="664" y="140" type="curve" smooth="yes"/>
      <point x="501" y="140"/>
      <point x="422" y="241"/>
      <point x="452" y="419" type="curve" smooth="yes"/>
      <point x="519" y="832" type="line" smooth="yes"/>
      <point x="550" y="1024"/>
      <point x="440" y="1132"/>
      <point x="278" y="1132" type="curve" smooth="yes"/>
      <point x="242" y="1132"/>
      <point x="204" y="1132"/>
      <point x="179" y="1123" type="curve"/>
    </contour>
  </outline>
</glyph>
<glyph name="rhookturnedmod" format="2">
  <advance height="2479" width="733"/>
  <unicode hex="02B5"/>
  <outline>
    <contour>
      <point x="113" y="646" type="line"/>
      <point x="122" y="640"/>
      <point x="148" y="637"/>
      <point x="180" y="637" type="curve" smooth="yes"/>
      <point x="317" y="637"/>
      <point x="442" y="800"/>
      <point x="477" y="1024" type="curve"/>
      <point x="431" y="1024" type="line"/>
      <point x="407" y="899"/>
      <point x="349" y="809"/>
      <point x="241" y="809" type="curve" smooth="yes"/>
      <point x="204" y="809"/>
      <point x="175" y="817"/>
      <point x="145" y="832" type="curve"/>
    </contour>
    <contour>
      <point x="602" y="346" type="curve"/>
      <point x="631" y="518" type="line"/>
      <point x="614" y="512"/>
      <point x="582" y="506"/>
      <point x="556" y="506" type="curve" smooth="yes"/>
      <point x="529" y="506"/>
      <point x="506" y="521"/>
      <point x="515" y="573" type="curve" smooth="yes"/>
      <point x="660" y="1452" type="line"/>
      <point x="477" y="1452" type="line"/>
      <point x="329" y="561" type="line" smooth="yes"/>
      <point x="305" y="422"/>
      <point x="323" y="329"/>
      <point x="448" y="329" type="curve" smooth="yes"/>
      <point x="500" y="329"/>
      <point x="544" y="335"/>
    </contour>
  </outline>
</glyph>
<glyph name="Rsmallinvertedmod" format="2">
  <advance height="2479" width="919"/>
  <unicode hex="02B6"/>
  <outline>
    <contour>
      <point x="698" y="1108" type="line"/>
      <point x="969" y="1452" type="line"/>
      <point x="759" y="1452" type="line"/>
      <point x="489" y="1108" type="line"/>
    </contour>
    <contour>
      <point x="471" y="652" type="line"/>
      <point x="666" y="652"/>
      <point x="800" y="777"/>
      <point x="823" y="916" type="curve" smooth="yes"/>
      <point x="847" y="1059"/>
      <point x="759" y="1181"/>
      <point x="573" y="1181" type="curve" smooth="yes"/>
      <point x="346" y="1181" type="line"/>
      <point x="323" y="1030" type="line"/>
      <point x="518" y="1030" type="line" smooth="yes"/>
      <point x="620" y="1030"/>
      <point x="652" y="980"/>
      <point x="643" y="919" type="curve" smooth="yes"/>
      <point x="631" y="855"/>
      <point x="576" y="806"/>
      <point x="463" y="806" type="curve" smooth="yes"/>
      <point x="323" y="806" type="line"/>
      <point x="431" y="1452" type="line"/>
      <point x="247" y="1452" type="line"/>
      <point x="113" y="652" type="line"/>
    </contour>
  </outline>
</glyph>
<glyph name="commareversedmod" format="2">
  <advance height="2479" width="547"/>
  <unicode hex="02BD"/>
  <outline>
    <contour>
      <point x="353" y="992" type="curve"/>
      <point x="484" y="992" type="line"/>
      <point x="481" y="1084"/>
      <point x="471" y="1280"/>
      <point x="484" y="1478" type="curve" smooth="yes"/>
      <point x="489" y="1559" type="line"/>
      <point x="303" y="1559" type="line"/>
      <point x="301" y="1481" type="line" smooth="yes"/>
      <point x="298" y="1315"/>
      <point x="336" y="1091"/>
    </contour>
  </outline>
</glyph>
<glyph name="ringhalfright" format="2">
  <advance height="2479" width="361"/>
  <unicode hex="02BE"/>
  <anchor x="259" y="1152" name="_rhalfring"/>
  <outline>
    <contour>
      <point x="169" y="1111" type="line"/>
      <point x="282" y="1111"/>
      <point x="390" y="1190"/>
      <point x="410" y="1306" type="curve" smooth="yes"/>
      <point x="428" y="1425"/>
      <point x="349" y="1510"/>
      <point x="236" y="1510" type="curve"/>
      <point x="221" y="1417" type="line"/>
      <point x="276" y="1417"/>
      <point x="314" y="1370"/>
      <point x="305" y="1306" type="curve" smooth="yes"/>
      <point x="294" y="1248"/>
      <point x="241" y="1201"/>
      <point x="186" y="1201" type="curve"/>
    </contour>
  </outline>
</glyph>
<glyph name="ringhalfleft" format="2">
  <advance height="2479" width="361"/>
  <unicode hex="02BF"/>
  <outline>
    <contour>
      <point x="377" y="1111" type="curve"/>
      <point x="391" y="1201" type="line"/>
      <point x="333" y="1201"/>
      <point x="297" y="1248"/>
      <point x="307" y="1306" type="curve" smooth="yes"/>
      <point x="317" y="1370"/>
      <point x="369" y="1417"/>
      <point x="428" y="1417" type="curve"/>
      <point x="442" y="1510" type="line"/>
      <point x="329" y="1510"/>
      <point x="223" y="1425"/>
      <point x="202" y="1306" type="curve" smooth="yes"/>
      <point x="183" y="1190"/>
      <point x="263" y="1111"/>
    </contour>
  </outline>
</glyph>
<glyph name="glottalstopmod" format="2">
  <advance height="2479" width="919"/>
  <unicode hex="02C0"/>
  <outline>
    <contour>
      <point x="273" y="1516" type="curve"/>
      <point x="433" y="1516" type="line"/>
      <point x="463" y="1594"/>
      <point x="509" y="1652"/>
      <point x="617" y="1652" type="curve" smooth="yes"/>
      <point x="762" y="1652"/>
      <point x="783" y="1542"/>
      <point x="759" y="1405" type="curve" smooth="yes"/>
      <point x="745" y="1312" type="line" smooth="yes"/>
      <point x="721" y="1178"/>
      <point x="684" y="1033"/>
      <point x="515" y="1033" type="curve" smooth="yes"/>
      <point x="483" y="1033" type="line"/>
      <point x="457" y="881" type="line"/>
      <point x="489" y="881" type="line" smooth="yes"/>
      <point x="733" y="881"/>
      <point x="884" y="1050"/>
      <point x="928" y="1312" type="curve" smooth="yes"/>
      <point x="943" y="1405" type="line" smooth="yes"/>
      <point x="977" y="1620"/>
      <point x="887" y="1807"/>
      <point x="643" y="1807" type="curve" smooth="yes"/>
      <point x="451" y="1807"/>
      <point x="308" y="1679"/>
    </contour>
    <contour>
      <point x="448" y="1033" type="line"/>
      <point x="384" y="652" type="line"/>
      <point x="567" y="652" type="line"/>
      <point x="631" y="1033" type="line"/>
    </contour>
  </outline>
</glyph>
<glyph name="arrowheadleftmod" format="2">
  <advance height="2479" width="919"/>
  <unicode hex="02C2"/>
  <outline>
    <contour>
      <point x="154" y="911" type="line"/>
      <point x="442" y="980" type="line"/>
      <point x="922" y="1155" type="line"/>
      <point x="951" y="1329" type="line"/>
      <point x="175" y="1033" type="line"/>
    </contour>
    <contour>
      <point x="829" y="596" type="line"/>
      <point x="858" y="771" type="line"/>
      <point x="436" y="943" type="line"/>
      <point x="172" y="1015" type="line"/>
      <point x="151" y="896" type="line"/>
    </contour>
  </outline>
</glyph>
<glyph name="arrowheadrightmod" format="2">
  <advance height="2479" width="919"/>
  <unicode hex="02C3"/>
  <outline>
    <contour>
      <point x="881" y="911" type="line"/>
      <point x="902" y="1033" type="line"/>
      <point x="224" y="1329" type="line"/>
      <point x="195" y="1155" type="line"/>
      <point x="620" y="980" type="line"/>
    </contour>
    <contour>
      <point x="102" y="596" type="line"/>
      <point x="879" y="896" type="line"/>
      <point x="899" y="1015" type="line"/>
      <point x="614" y="943" type="line"/>
      <point x="131" y="771" type="line"/>
    </contour>
  </outline>
</glyph>
<glyph name="arrowheaddownmod" format="2">
  <advance height="2479" width="919"/>
  <unicode hex="02C5"/>
  <outline>
    <contour>
      <point x="410" y="585" type="line"/>
      <point x="532" y="585" type="line"/>
      <point x="951" y="1309" type="line"/>
      <point x="777" y="1309" type="line"/>
      <point x="527" y="858" type="line"/>
    </contour>
    <contour>
      <point x="396" y="585" type="line"/>
      <point x="515" y="585" type="line"/>
      <point x="489" y="858" type="line"/>
      <point x="393" y="1309" type="line"/>
      <point x="218" y="1309" type="line"/>
    </contour>
  </outline>
</glyph>
<glyph name="caron" format="2">
  <advance height="2479" width="931"/>
  <unicode hex="02C7"/>
  <anchor x="589" y="1303" name="_top"/>
  <outline>
    <contour>
      <point x="480" y="1565" type="line"/>
      <point x="317" y="1565" type="line"/>
      <point x="316" y="1553" type="line"/>
      <point x="502" y="1251" type="line"/>
      <point x="659" y="1251" type="line"/>
      <point x="944" y="1553" type="line"/>
      <point x="945" y="1565" type="line"/>
      <point x="783" y="1565" type="line"/>
      <point x="598" y="1361" type="line"/>
    </contour>
  </outline>
</glyph>
<glyph name="verticallinelowmod" format="2">
  <advance height="2479" width="361"/>
  <unicode hex="02CC"/>
  <outline>
    <contour>
      <point x="151" y="-81" type="line"/>
      <point x="0" y="-81" type="line"/>
      <point x="-70" y="-489" type="line"/>
      <point x="81" y="-489" type="line"/>
    </contour>
  </outline>
</glyph>
<glyph name="colontriangularhalfmod" format="2">
  <advance height="2479" width="547"/>
  <unicode hex="02D1"/>
  <outline>
    <contour>
      <point x="221" y="1082" type="line"/>
      <point x="314" y="861" type="line"/>
      <point x="335" y="861" type="line"/>
      <point x="503" y="1082" type="line"/>
    </contour>
  </outline>
</glyph>
<glyph name="uptackmod" format="2">
  <advance height="2479" width="733"/>
  <unicode hex="02D4"/>
  <outline>
    <contour>
      <point x="227" y="172" type="line"/>
      <point x="378" y="172" type="line"/>
      <point x="433" y="509" type="line"/>
      <point x="282" y="509" type="line"/>
    </contour>
    <contour>
      <point x="99" y="172" type="line"/>
      <point x="506" y="172" type="line"/>
      <point x="529" y="311" type="line"/>
      <point x="122" y="311" type="line"/>
    </contour>
  </outline>
</glyph>
<glyph name="ring" format="2">
  <advance height="2479" width="640"/>
  <unicode hex="02DA"/>
  <anchor x="442" y="1303" name="_top"/>
  <outline>
    <contour>
      <point x="445" y="1242" type="curve" smooth="yes"/>
      <point x="593" y="1242"/>
      <point x="721" y="1350"/>
      <point x="736" y="1489" type="curve" smooth="yes"/>
      <point x="751" y="1629"/>
      <point x="652" y="1745"/>
      <point x="503" y="1745" type="curve" smooth="yes"/>
      <point x="355" y="1745"/>
      <point x="224" y="1629"/>
      <point x="209" y="1489" type="curve" smooth="yes"/>
      <point x="195" y="1350"/>
      <point x="297" y="1242"/>
    </contour>
    <contour>
      <point x="460" y="1353" type="curve" smooth="yes"/>
      <point x="378" y="1353"/>
      <point x="326" y="1420"/>
      <point x="335" y="1489" type="curve" smooth="yes"/>
      <point x="343" y="1562"/>
      <point x="407" y="1632"/>
      <point x="489" y="1632" type="curve" smooth="yes"/>
      <point x="570" y="1632"/>
      <point x="623" y="1562"/>
      <point x="614" y="1489" type="curve" smooth="yes"/>
      <point x="605" y="1420"/>
      <point x="541" y="1353"/>
    </contour>
  </outline>
</glyph>
<glyph name="tilde" format="2">
  <advance height="2479" width="1024"/>
  <unicode hex="02DC"/>
  <anchor x="634" y="1303" name="_top"/>
  <anchor x="698" y="1676" name="top"/>
  <outline>
    <contour>
      <point x="401" y="1251" type="line"/>
      <point x="413" y="1312"/>
      <point x="463" y="1361"/>
      <point x="518" y="1361" type="curve" smooth="yes"/>
      <point x="628" y="1361"/>
      <point x="631" y="1268"/>
      <point x="765" y="1268" type="curve" smooth="yes"/>
      <point x="890" y="1268"/>
      <point x="1004" y="1364"/>
      <point x="1027" y="1516" type="curve"/>
      <point x="899" y="1527" type="line"/>
      <point x="890" y="1466"/>
      <point x="838" y="1417"/>
      <point x="783" y="1417" type="curve" smooth="yes"/>
      <point x="678" y="1417"/>
      <point x="643" y="1510"/>
      <point x="532" y="1510" type="curve" smooth="yes"/>
      <point x="407" y="1510"/>
      <point x="294" y="1405"/>
      <point x="271" y="1257" type="curve"/>
    </contour>
  </outline>
</glyph>
